<?xml version="1.0" encoding="UTF-8"?>
<!DOCTYPE svg PUBLIC "-//W3C//DTD SVG 1.1//EN" "http://www.w3.org/Graphics/SVG/1.1/DTD/svg11.dtd">
<svg xmlns="http://www.w3.org/2000/svg" version="1.1" width="500px" height="500px" style="shape-rendering:geometricPrecision; text-rendering:geometricPrecision; image-rendering:optimizeQuality; fill-rule:evenodd; clip-rule:evenodd" xmlns:xlink="http://www.w3.org/1999/xlink">
<g><path style="opacity:0.84" fill="#010101" d="M 211.5,50.5 C 234.5,50.5303 257.333,50.5303 280,50.5C 281.763,50.9755 283.43,51.6422 285,52.5C 286.118,57.7258 286.618,63.0591 286.5,68.5C 287.909,81.1086 284.242,91.9419 275.5,101C 272.14,103.546 268.474,105.379 264.5,106.5C 264.5,129.5 264.5,152.5 264.5,175.5C 274.667,176.761 284.834,176.761 295,175.5C 296.895,175.615 298.562,176.282 300,177.5C 301.841,194.102 301.841,210.768 300,227.5C 292.915,254.421 275.749,270.421 248.5,275.5C 219.227,271.06 201.394,254.394 195,225.5C 193.168,209.435 193.168,193.435 195,177.5C 206.789,176.782 218.623,176.115 230.5,175.5C 231.414,160.582 231.748,145.582 231.5,130.5C 231.095,122.827 230.595,115.161 230,107.5C 220.919,102.753 214.252,95.7531 210,86.5C 208.431,75.8929 208.097,65.2262 209,54.5C 209.662,53.0161 210.496,51.6828 211.5,50.5 Z M 238.5,61.5 C 250.867,61.9087 263.2,61.9087 275.5,61.5C 276.115,70.0159 275.282,78.3492 273,86.5C 270.149,91.7186 265.982,94.8853 260.5,96C 271.417,89.1733 275.751,79.5067 273.5,67C 256.9,65.3774 240.233,65.044 223.5,66C 221.901,67.7863 221.067,69.953 221,72.5C 220.502,69.1832 220.335,65.8499 220.5,62.5C 226.69,62.8229 232.69,62.4896 238.5,61.5 Z M 232.5,76.5 C 242.859,76.747 253.192,77.4136 263.5,78.5C 260.041,84.0629 255.041,86.7296 248.5,86.5C 240.46,87.1619 235.127,83.8285 232.5,76.5 Z M 221.5,82.5 C 225.127,87.7944 229.46,92.461 234.5,96.5C 228.067,93.7357 223.734,89.069 221.5,82.5 Z M 245.5,97.5 C 247.833,97.5 250.167,97.5 252.5,97.5C 252.5,102.5 252.5,107.5 252.5,112.5C 249.167,112.5 245.833,112.5 242.5,112.5C 242.5,107.833 242.5,103.167 242.5,98.5C 243.791,98.7373 244.791,98.404 245.5,97.5 Z M 243.5,123.5 C 246.898,123.18 250.232,123.513 253.5,124.5C 252.209,136.154 252.209,147.821 253.5,159.5C 249.833,159.5 246.167,159.5 242.5,159.5C 242.578,147.484 242.911,135.484 243.5,123.5 Z M 242.5,170.5 C 245.833,170.5 249.167,170.5 252.5,170.5C 252.666,180.839 252.5,191.172 252,201.5C 251.058,204.993 249.725,208.326 248,211.5C 245.545,207.469 243.879,203.136 243,198.5C 242.5,189.173 242.334,179.839 242.5,170.5 Z M 205.5,187.5 C 214.167,187.5 222.833,187.5 231.5,187.5C 230.393,202.773 235.06,215.939 245.5,227C 249.26,228.176 252.093,227.01 254,223.5C 260.852,212.447 264.352,200.447 264.5,187.5C 272.833,187.5 281.167,187.5 289.5,187.5C 289.667,200.171 289.5,212.838 289,225.5C 283.907,246.926 270.574,259.926 249,264.5C 221.394,258.895 206.561,242.062 204.5,214C 205.484,205.251 205.817,196.418 205.5,187.5 Z"/></g>
<g><path style="opacity:0.66" fill="#010101" d="M 110.5,127.5 C 116.356,127.854 118.523,130.854 117,136.5C 111.927,140.864 108.427,139.864 106.5,133.5C 106.67,130.674 108.003,128.674 110.5,127.5 Z"/></g>
<g><path style="opacity:0.708" fill="#020202" d="M 383.5,127.5 C 389.82,127.32 392.32,130.32 391,136.5C 387.265,140.706 383.932,140.373 381,135.5C 380.018,132.225 380.851,129.559 383.5,127.5 Z"/></g>
<g><path style="opacity:0.828" fill="#010101" d="M 297.5,280.5 C 296.874,279.471 296.041,278.471 295,277.5C 294.329,278.252 293.496,278.586 292.5,278.5C 292.953,277.542 293.619,276.708 294.5,276C 289.5,275.333 284.5,275.333 279.5,276C 268.854,284.318 256.854,287.318 243.5,285C 274.57,279.606 295.737,262.106 307,232.5C 308.147,218.513 308.647,204.513 308.5,190.5C 315.359,185.14 322.359,179.974 329.5,175C 335.801,170.435 342.135,170.435 348.5,175C 358.333,181.417 368.333,187.584 378.5,193.5C 379.333,179.178 379.833,164.845 380,150.5C 382.167,147.713 385.001,146.88 388.5,148C 390.933,151.385 391.933,155.218 391.5,159.5C 390.522,196.758 390.522,233.925 391.5,271C 399.996,339.005 370.329,368.171 302.5,358.5C 257.177,357.177 211.843,357.177 166.5,358.5C 140.944,362.177 122.111,352.844 110,330.5C 109,327.167 108,323.833 107,320.5C 106.652,310.325 106.152,300.158 105.5,290C 105.764,243.612 105.93,197.112 106,150.5C 108.918,146.353 112.418,145.686 116.5,148.5C 117.333,162.154 117.833,175.821 118,189.5C 124.608,183.559 131.775,178.392 139.5,174C 148.893,171.511 157.559,173.178 165.5,179C 172.16,183.999 179.16,188.499 186.5,192.5C 186.833,194.333 187.167,196.167 187.5,198C 187.695,200.793 187.029,203.293 185.5,205.5C 174.13,198.149 162.463,191.315 150.5,185C 148.167,184.333 145.833,184.333 143.5,185C 134.16,190.006 125.66,196.172 118,203.5C 117.501,209.491 117.334,215.491 117.5,221.5C 120.203,221.045 122.87,220.378 125.5,219.5C 129.908,221.364 130.575,224.197 127.5,228C 124.253,229.644 120.92,229.811 117.5,228.5C 117.5,232.5 117.5,236.5 117.5,240.5C 139.503,240.667 161.503,240.5 183.5,240C 185.766,238.486 186.932,236.319 187,233.5C 190.583,241.571 194.916,249.238 200,256.5C 204.5,261 209,265.5 213.5,270C 219.181,273.173 224.514,276.839 229.5,281C 228.975,281.692 228.308,282.192 227.5,282.5C 221.397,281.411 215.73,279.244 210.5,276C 190.477,275.947 170.643,275.781 151,275.5C 149.167,275.667 147.333,275.833 145.5,276C 144.541,277.464 143.208,278.297 141.5,278.5C 139.437,276.691 136.937,275.691 134,275.5C 132.5,275.667 131,275.833 129.5,276C 126.127,279.763 122.294,282.93 118,285.5C 117.517,286.448 117.351,287.448 117.5,288.5C 204.945,287.372 292.278,287.372 379.5,288.5C 379.5,284.167 379.5,279.833 379.5,275.5C 376.482,275.335 373.482,275.502 370.5,276C 368.49,278.775 365.99,279.608 363,278.5C 362.517,277.552 362.351,276.552 362.5,275.5C 356.966,274.817 351.966,276.151 347.5,279.5C 345.889,278.68 345.222,277.346 345.5,275.5C 340.305,274.944 335.472,275.944 331,278.5C 329.586,276.502 327.586,275.502 325,275.5C 321.603,275.721 318.436,276.721 315.5,278.5C 314.713,277.758 314.047,276.925 313.5,276C 307.073,274.21 301.74,275.71 297.5,280.5 Z M 242.5,170.5 C 242.334,179.839 242.5,189.173 243,198.5C 243.879,203.136 245.545,207.469 248,211.5C 249.725,208.326 251.058,204.993 252,201.5C 252.5,191.172 252.666,180.839 252.5,170.5C 249.167,170.5 245.833,170.5 242.5,170.5 Z M 337.5,183.5 C 351.361,191.685 365.194,200.018 379,208.5C 378.451,219.178 378.617,229.845 379.5,240.5C 355.833,240.5 332.167,240.5 308.5,240.5C 308.5,237.167 308.5,233.833 308.5,230.5C 312.257,230.929 315.757,230.263 319,228.5C 320.923,224.018 319.423,221.351 314.5,220.5C 314.334,213.825 314.5,207.158 315,200.5C 322.299,194.448 329.799,188.782 337.5,183.5 Z M 205.5,187.5 C 205.817,196.418 205.484,205.251 204.5,214C 206.561,242.062 221.394,258.895 249,264.5C 270.574,259.926 283.907,246.926 289,225.5C 289.5,212.838 289.667,200.171 289.5,187.5C 281.167,187.5 272.833,187.5 264.5,187.5C 264.352,200.447 260.852,212.447 254,223.5C 252.093,227.01 249.26,228.176 245.5,227C 235.06,215.939 230.393,202.773 231.5,187.5C 222.833,187.5 214.167,187.5 205.5,187.5 Z M 196.5,263.5 C 170.211,264.482 143.878,264.815 117.5,264.5C 117.5,260.167 117.5,255.833 117.5,251.5C 141.212,251.823 164.878,251.49 188.5,250.5C 189.478,250.977 190.311,251.643 191,252.5C 192.655,256.303 194.489,259.97 196.5,263.5 Z M 304.5,250.5 C 329.425,251.49 354.425,251.823 379.5,251.5C 379.5,255.833 379.5,260.167 379.5,264.5C 351.825,264.833 324.159,264.5 296.5,263.5C 299.93,259.64 302.597,255.307 304.5,250.5 Z M 117.5,275.5 C 122.272,275.367 122.438,276.7 118,279.5C 117.51,278.207 117.343,276.873 117.5,275.5 Z M 123.5,298.5 C 125.414,299.185 127.414,299.685 129.5,300C 126.007,304.493 122.173,308.659 118,312.5C 117.333,309.833 117.333,307.167 118,304.5C 119.626,302.195 121.46,300.195 123.5,298.5 Z M 309.5,298.5 C 312.127,299.105 314.793,299.605 317.5,300C 310.891,305.607 304.557,311.607 298.5,318C 296.167,318.667 293.833,318.667 291.5,318C 298.017,311.982 304.017,305.482 309.5,298.5 Z M 327.5,298.5 C 329.801,299.06 332.134,299.56 334.5,300C 328.5,306 322.5,312 316.5,318C 314.167,318.667 311.833,318.667 309.5,318C 316.039,311.962 322.039,305.462 327.5,298.5 Z M 139.5,299.5 C 142.187,299.336 144.854,299.503 147.5,300C 141.985,305.682 136.319,311.182 130.5,316.5C 128.053,318.223 125.387,318.723 122.5,318C 128.763,312.243 134.43,306.076 139.5,299.5 Z M 156.5,299.5 C 158.857,299.337 161.19,299.503 163.5,300C 157.5,306 151.5,312 145.5,318C 143.5,318.667 141.5,318.667 139.5,318C 145.741,312.263 151.408,306.097 156.5,299.5 Z M 172.5,299.5 C 174.857,299.337 177.19,299.503 179.5,300C 173.523,305.645 167.857,311.645 162.5,318C 160.167,318.667 157.833,318.667 155.5,318C 161.763,312.243 167.43,306.076 172.5,299.5 Z M 189.5,299.5 C 191.857,299.337 194.19,299.503 196.5,300C 190.711,306.279 184.711,312.279 178.5,318C 176.5,318.667 174.5,318.667 172.5,318C 178.004,311.663 183.671,305.496 189.5,299.5 Z M 205.5,299.5 C 207.857,299.337 210.19,299.503 212.5,300C 207.199,306.302 201.532,312.302 195.5,318C 193.167,318.667 190.833,318.667 188.5,318C 194.741,312.263 200.408,306.097 205.5,299.5 Z M 222.5,299.5 C 224.604,299.201 226.604,299.534 228.5,300.5C 223.015,306.485 217.348,312.319 211.5,318C 209.5,318.667 207.5,318.667 205.5,318C 211.004,311.663 216.671,305.496 222.5,299.5 Z M 238.5,299.5 C 241.187,299.336 243.854,299.503 246.5,300C 240.5,306 234.5,312 228.5,318C 226.167,318.667 223.833,318.667 221.5,318C 227.763,312.243 233.43,306.076 238.5,299.5 Z M 263.5,299.5 C 258.19,305.919 252.523,312.086 246.5,318C 244.167,318.667 241.833,318.667 239.5,318C 244.801,311.698 250.468,305.698 256.5,300C 258.81,299.503 261.143,299.337 263.5,299.5 Z M 273.5,299.5 C 276.187,299.336 278.854,299.503 281.5,300C 275.473,306.027 269.473,312.027 263.5,318C 261.167,318.667 258.833,318.667 256.5,318C 262.004,311.663 267.671,305.496 273.5,299.5 Z M 290.5,299.5 C 293.187,299.336 295.854,299.503 298.5,300C 292.602,305.809 286.935,311.809 281.5,318C 279.167,318.667 276.833,318.667 274.5,318C 280.043,311.961 285.376,305.795 290.5,299.5 Z M 344.5,299.5 C 346.857,299.337 349.19,299.503 351.5,300C 345.5,306 339.5,312 333.5,318C 331.167,318.667 328.833,318.667 326.5,318C 332.703,311.965 338.703,305.798 344.5,299.5 Z M 361.5,299.5 C 363.857,299.337 366.19,299.503 368.5,300C 361.833,305.333 355.833,311.333 350.5,318C 348.167,318.667 345.833,318.667 343.5,318C 349.703,311.965 355.703,305.798 361.5,299.5 Z M 377.5,299.5 C 378.5,299.5 379.5,299.5 380.5,299.5C 380.322,302.216 379.822,304.883 379,307.5C 375.175,310.624 371.675,314.124 368.5,318C 366.098,318.814 363.765,318.647 361.5,317.5C 361.667,317.167 361.833,316.833 362,316.5C 367.764,311.242 372.931,305.576 377.5,299.5 Z M 378.5,316.5 C 379.773,317.077 379.773,317.743 378.5,318.5C 377.537,318.03 377.537,317.363 378.5,316.5 Z M 132.5,328.5 C 135.187,328.336 137.854,328.503 140.5,329C 137.373,331.963 134.373,335.129 131.5,338.5C 129.833,337.333 128.167,336.167 126.5,335C 129.386,333.615 131.386,331.449 132.5,328.5 Z M 150.5,328.5 C 152.857,328.337 155.19,328.503 157.5,329C 152.629,335.036 147.296,340.536 141.5,345.5C 139.775,344.985 138.108,344.318 136.5,343.5C 141.188,338.48 145.855,333.48 150.5,328.5 Z M 167.5,328.5 C 169.604,328.201 171.604,328.534 173.5,329.5C 168.715,334.907 164.048,340.407 159.5,346C 157.17,347.345 154.837,347.512 152.5,346.5C 157.523,340.481 162.523,334.481 167.5,328.5 Z M 183.5,328.5 C 185.527,328.338 187.527,328.505 189.5,329C 184.5,334.667 179.5,340.333 174.5,346C 172.553,346.991 170.553,347.325 168.5,347C 174.115,341.23 179.115,335.063 183.5,328.5 Z M 199.5,328.5 C 201.527,328.338 203.527,328.505 205.5,329C 200.622,334.209 196.122,339.709 192,345.5C 189.367,347.16 186.534,347.66 183.5,347C 188.296,340.371 193.629,334.204 199.5,328.5 Z M 215.5,328.5 C 217.527,328.338 219.527,328.505 221.5,329C 215.801,334.365 210.467,340.031 205.5,346C 203.553,346.991 201.553,347.325 199.5,347C 204.296,340.371 209.629,334.204 215.5,328.5 Z M 231.5,328.5 C 233.857,328.337 236.19,328.503 238.5,329C 232.833,334.667 227.167,340.333 221.5,346C 219.246,347.15 216.913,347.484 214.5,347C 220.004,340.663 225.671,334.496 231.5,328.5 Z M 247.5,328.5 C 250.187,328.336 252.854,328.503 255.5,329C 250.272,335.14 244.605,340.806 238.5,346C 236.444,346.311 234.444,346.811 232.5,347.5C 231.479,346.998 231.312,346.332 232,345.5C 237.764,340.242 242.931,334.576 247.5,328.5 Z M 266.5,328.5 C 268.527,328.338 270.527,328.505 272.5,329C 267.281,335.097 261.614,340.764 255.5,346C 253.236,346.236 251.069,346.736 249,347.5C 248.833,347.167 248.667,346.833 248.5,346.5C 254.908,340.758 260.908,334.758 266.5,328.5 Z M 283.5,328.5 C 285.857,328.337 288.19,328.503 290.5,329C 284.887,334.613 279.221,340.279 273.5,346C 271.099,347.039 268.766,347.206 266.5,346.5C 271.729,340.002 277.396,334.002 283.5,328.5 Z M 301.5,328.5 C 303.857,328.337 306.19,328.503 308.5,329C 303.167,335.667 297.167,341.667 290.5,347C 288.167,347.667 285.833,347.667 283.5,347C 289.032,340.303 295.032,334.136 301.5,328.5 Z M 319.5,328.5 C 321.372,329.359 323.038,329.692 324.5,329.5C 319.85,335.284 314.85,340.784 309.5,346C 307.231,347.558 304.898,347.724 302.5,346.5C 307.54,339.796 313.207,333.796 319.5,328.5 Z M 336.5,328.5 C 338.891,329.408 341.224,329.574 343.5,329C 338.533,334.969 333.199,340.635 327.5,346C 324.97,347.422 322.303,347.755 319.5,347C 324.324,340.011 329.991,333.844 336.5,328.5 Z M 359.5,328.5 C 360.525,328.897 360.692,329.563 360,330.5C 354.949,336.095 349.782,341.595 344.5,347C 341.833,347.667 339.167,347.667 336.5,347C 341.5,342 346.5,337 351.5,332C 354.051,330.325 356.717,329.159 359.5,328.5 Z M 370.5,329.5 C 371.675,329.281 372.675,329.614 373.5,330.5C 368.975,336.522 363.475,341.522 357,345.5C 356.333,344.833 356.333,344.167 357,343.5C 361.703,338.965 366.203,334.298 370.5,329.5 Z"/></g>
<g><path style="opacity:0.805" fill="#010101" d="M 212.5,193.5 C 215.777,193.216 218.943,193.549 222,194.5C 222.968,203.849 223.968,213.182 225,222.5C 230.788,231.955 238.288,239.788 247.5,246C 244.765,253.433 240.431,254.433 234.5,249C 227.374,244.208 221.207,238.375 216,231.5C 214.268,227.637 212.934,223.637 212,219.5C 211.198,210.755 211.364,202.088 212.5,193.5 Z"/></g>
<g><path style="opacity:0.697" fill="#010101" d="M 330.5,205.5 C 333.602,205.154 336.435,205.821 339,207.5C 339.763,214.053 336.93,216.219 330.5,214C 327.899,211.17 327.899,208.337 330.5,205.5 Z"/></g>
<g><path style="opacity:0.719" fill="#010101" d="M 139.5,208.5 C 142.97,207.875 145.804,208.875 148,211.5C 148.756,213.809 148.256,215.809 146.5,217.5C 143.634,218.795 140.801,218.795 138,217.5C 135.788,214.021 136.288,211.021 139.5,208.5 Z"/></g>
<g><path style="opacity:0.376" fill="#040403" d="M 160.5,209.5 C 165.266,210.158 166.6,212.658 164.5,217C 161.743,217.782 159.243,217.282 157,215.5C 156.219,214.056 156.386,212.723 157.5,211.5C 158.739,211.058 159.739,210.391 160.5,209.5 Z"/></g>
<g><path style="opacity:0.734" fill="#010101" d="M 164.5,219.5 C 167.216,219.678 169.883,220.178 172.5,221C 175.611,224.889 174.944,227.889 170.5,230C 163.026,232.508 159.859,230.008 161,222.5C 162.145,221.364 163.312,220.364 164.5,219.5 Z"/></g>
<g><path style="opacity:0.711" fill="#010101" d="M 348.5,219.5 C 352.747,219.118 355.414,220.951 356.5,225C 353.964,229.84 350.464,230.673 346,227.5C 344.837,224.029 345.67,221.362 348.5,219.5 Z"/></g>
<g><path style="opacity:0.68" fill="#010101" d="M 136.5,221.5 C 143.997,220.804 145.997,223.637 142.5,230C 139.15,230.93 136.317,230.097 134,227.5C 133.458,224.918 134.292,222.918 136.5,221.5 Z"/></g>
<g><path style="opacity:0.687" fill="#010101" d="M 328.5,221.5 C 337.53,220.66 339.53,223.827 334.5,231C 326.42,231.72 324.42,228.553 328.5,221.5 Z"/></g>
<g><path style="opacity:0.668" fill="#010101" d="M 365.5,222.5 C 372.312,223.608 373.645,226.775 369.5,232C 363.657,233.359 361.157,231.192 362,225.5C 363.145,224.364 364.312,223.364 365.5,222.5 Z"/></g>
<g><path style="opacity:0.424" fill="#0f0f12" d="M 297.5,280.5 C 295.519,282.144 293.519,283.81 291.5,285.5C 290.394,282.934 290.727,280.6 292.5,278.5C 293.496,278.586 294.329,278.252 295,277.5C 296.041,278.471 296.874,279.471 297.5,280.5 Z"/></g>
<g><path style="opacity:0.596" fill="#010a0b" d="M 322.5,430.5 C 322.167,431.167 321.833,431.833 321.5,432.5C 316.833,432.5 312.167,432.5 307.5,432.5C 298.494,432.334 289.494,432.5 280.5,433C 281.696,433.654 281.696,434.154 280.5,434.5C 274.885,433.711 269.218,433.211 263.5,433C 239.502,432.5 215.502,432.333 191.5,432.5C 191.5,431.833 191.5,431.167 191.5,430.5C 235.502,429.362 279.168,429.362 322.5,430.5 Z"/></g>
<g><path style="opacity:0.428" fill="#000102" d="M 322.5,430.5 C 326.936,430.21 331.27,430.71 335.5,432C 337.818,433.102 338.485,434.602 337.5,436.5C 335.621,432.991 332.621,431.658 328.5,432.5C 326.167,432.5 323.833,432.5 321.5,432.5C 321.833,431.833 322.167,431.167 322.5,430.5 Z"/></g>
<g><path style="opacity:0.585" fill="#000609" d="M 191.5,430.5 C 191.5,431.167 191.5,431.833 191.5,432.5C 191.167,432.5 190.833,432.5 190.5,432.5C 182.493,432.334 174.493,432.5 166.5,433C 160.635,433.436 159.635,435.436 163.5,439C 165.433,439.251 167.266,439.751 169,440.5C 169.308,439.692 169.808,439.025 170.5,438.5C 175.435,439.448 180.435,439.781 185.5,439.5C 187.703,439.935 189.703,439.935 191.5,439.5C 196.833,439.5 202.167,439.5 207.5,439.5C 216.833,439.5 226.167,439.5 235.5,439.5C 257.833,439.5 280.167,439.5 302.5,439.5C 303.5,439.5 304.5,439.5 305.5,439.5C 312.126,439.338 318.626,439.338 325,439.5C 326.086,437.153 327.419,437.153 329,439.5C 330.727,439.354 330.894,438.687 329.5,437.5C 331.276,436.685 331.943,435.518 331.5,434C 330.263,433.768 329.263,433.268 328.5,432.5C 332.621,431.658 335.621,432.991 337.5,436.5C 337.586,437.496 337.252,438.329 336.5,439C 334.608,439.973 332.608,440.64 330.5,441C 274.167,441.667 217.833,441.667 161.5,441C 157.128,438.805 156.461,435.805 159.5,432C 169.14,430.888 178.807,430.054 188.5,429.5C 189.417,430.127 190.417,430.461 191.5,430.5 Z"/></g>
<g><path style="opacity:1" fill="#021010" d="M 307.5,432.5 C 312.167,432.5 316.833,432.5 321.5,432.5C 323.833,432.5 326.167,432.5 328.5,432.5C 329.263,433.268 330.263,433.768 331.5,434C 331.943,435.518 331.276,436.685 329.5,437.5C 330.894,438.687 330.727,439.354 329,439.5C 327.419,437.153 326.086,437.153 325,439.5C 318.626,439.338 312.126,439.338 305.5,439.5C 306.589,437.883 308.256,437.05 310.5,437C 309.185,435.605 309.519,434.605 311.5,434C 309.942,433.79 308.609,433.29 307.5,432.5 Z"/></g>
<g><path style="opacity:1" fill="#021415" d="M 190.5,432.5 C 190.833,432.5 191.167,432.5 191.5,432.5C 215.502,432.333 239.502,432.5 263.5,433C 269.218,433.211 274.885,433.711 280.5,434.5C 281.696,434.154 281.696,433.654 280.5,433C 289.494,432.5 298.494,432.334 307.5,432.5C 308.609,433.29 309.942,433.79 311.5,434C 309.519,434.605 309.185,435.605 310.5,437C 308.256,437.05 306.589,437.883 305.5,439.5C 304.5,439.5 303.5,439.5 302.5,439.5C 299.197,438.522 295.697,437.855 292,437.5C 274.093,438.416 255.593,438.416 236.5,437.5C 235.702,437.957 235.369,438.624 235.5,439.5C 226.167,439.5 216.833,439.5 207.5,439.5C 207.389,438.883 207.056,438.383 206.5,438C 202.778,437.762 199.111,437.262 195.5,436.5C 193.517,436.815 192.184,437.815 191.5,439.5C 189.703,439.935 187.703,439.935 185.5,439.5C 185.423,438.25 184.756,437.417 183.5,437C 180.833,436.667 178.167,436.333 175.5,436C 177.754,434.349 180.088,434.182 182.5,435.5C 185.096,434.051 187.763,433.051 190.5,432.5 Z"/></g>
<g><path style="opacity:1" fill="#061215" d="M 302.5,439.5 C 280.167,439.5 257.833,439.5 235.5,439.5C 235.369,438.624 235.702,437.957 236.5,437.5C 255.593,438.416 274.093,438.416 292,437.5C 295.697,437.855 299.197,438.522 302.5,439.5 Z"/></g>
<g><path style="opacity:1" fill="#051419" d="M 207.5,439.5 C 202.167,439.5 196.833,439.5 191.5,439.5C 192.184,437.815 193.517,436.815 195.5,436.5C 199.111,437.262 202.778,437.762 206.5,438C 207.056,438.383 207.389,438.883 207.5,439.5 Z"/></g>
<g><path style="opacity:0.995" fill="#031112" d="M 190.5,432.5 C 187.763,433.051 185.096,434.051 182.5,435.5C 180.088,434.182 177.754,434.349 175.5,436C 178.167,436.333 180.833,436.667 183.5,437C 184.756,437.417 185.423,438.25 185.5,439.5C 180.435,439.781 175.435,439.448 170.5,438.5C 169.808,439.025 169.308,439.692 169,440.5C 167.266,439.751 165.433,439.251 163.5,439C 159.635,435.436 160.635,433.436 166.5,433C 174.493,432.5 182.493,432.334 190.5,432.5 Z"/></g>
</svg>
