<?xml version="1.0" encoding="UTF-8"?>
<!DOCTYPE svg PUBLIC "-//W3C//DTD SVG 1.1//EN" "http://www.w3.org/Graphics/SVG/1.1/DTD/svg11.dtd">
<svg xmlns="http://www.w3.org/2000/svg" version="1.1" width="500px" height="500px" style="shape-rendering:geometricPrecision; text-rendering:geometricPrecision; image-rendering:optimizeQuality; fill-rule:evenodd; clip-rule:evenodd" xmlns:xlink="http://www.w3.org/1999/xlink">
<g><path style="opacity:0.294" fill="#b7babf" d="M 252.5,96.5 C 247.797,96.4372 243.13,96.7705 238.5,97.5C 241.017,96.027 243.85,95.3603 247,95.5C 249.033,95.5056 250.866,95.8389 252.5,96.5 Z"/></g>
<g><path style="opacity:1" fill="#1c2128" d="M 252.5,96.5 C 253.791,96.2627 254.791,96.596 255.5,97.5C 256.116,99.4171 257.45,100.584 259.5,101C 256.037,102.64 256.371,104.307 260.5,106C 259.906,106.464 259.239,106.631 258.5,106.5C 257.609,105.89 256.609,105.557 255.5,105.5C 250.636,103.33 245.636,102.997 240.5,104.5C 238.986,103.32 237.319,102.32 235.5,101.5C 236.524,100.148 237.524,98.8149 238.5,97.5C 243.13,96.7705 247.797,96.4372 252.5,96.5 Z"/></g>
<g><path style="opacity:1" fill="#484d52" d="M 238.5,97.5 C 237.524,98.8149 236.524,100.148 235.5,101.5C 237.319,102.32 238.986,103.32 240.5,104.5C 238.858,105.803 237.191,107.136 235.5,108.5C 235.358,102.319 233.358,101.319 229.5,105.5C 231.436,101.689 234.436,99.0225 238.5,97.5 Z"/></g>
<g><path style="opacity:1" fill="#35373f" d="M 255.5,97.5 C 260.441,99.4416 264.108,102.775 266.5,107.5C 265.206,106.71 264.039,105.71 263,104.5C 261.477,106.569 260.643,108.903 260.5,111.5C 259.599,110.71 258.932,109.71 258.5,108.5C 258.5,107.833 258.5,107.167 258.5,106.5C 259.239,106.631 259.906,106.464 260.5,106C 256.371,104.307 256.037,102.64 259.5,101C 257.45,100.584 256.116,99.4171 255.5,97.5 Z"/></g>
<g><path style="opacity:0.749" fill="#929599" d="M 255.5,105.5 C 256.609,105.557 257.609,105.89 258.5,106.5C 258.5,107.167 258.5,107.833 258.5,108.5C 257.167,107.833 256.167,106.833 255.5,105.5 Z"/></g>
<g><path style="opacity:0.196" fill="#b0b4b9" d="M 229.5,105.5 C 229.573,107.027 228.906,108.027 227.5,108.5C 227.427,106.973 228.094,105.973 229.5,105.5 Z"/></g>
<g><path style="opacity:0.757" fill="#8a8c94" d="M 243.5,108.5 C 242.167,110.5 240.5,112.167 238.5,113.5C 239.167,110.833 240.833,109.167 243.5,108.5 Z"/></g>
<g><path style="opacity:1" fill="#65686d" d="M 266.5,107.5 C 267.931,108.78 268.598,110.447 268.5,112.5C 267.466,111.313 266.133,110.48 264.5,110C 265.756,109.583 266.423,108.75 266.5,107.5 Z"/></g>
<g><path style="opacity:1" fill="#1e2228" d="M 255.5,111.5 C 256.344,115.099 256.677,118.766 256.5,122.5C 252.548,127.629 247.548,128.796 241.5,126C 239.859,124.871 238.859,123.371 238.5,121.5C 238.5,118.833 238.5,116.167 238.5,113.5C 240.5,112.167 242.167,110.5 243.5,108.5C 245.966,107.366 248.633,107.199 251.5,108C 253.324,108.66 254.657,109.827 255.5,111.5 Z M 246.5,114.5 C 247.833,114.833 249.167,115.167 250.5,115.5C 250.608,117.514 249.942,119.18 248.5,120.5C 244.365,119.433 243.698,117.433 246.5,114.5 Z"/></g>
<g><path style="opacity:0.267" fill="#a6abae" d="M 246.5,114.5 C 248.128,113.147 249.462,113.481 250.5,115.5C 249.167,115.167 247.833,114.833 246.5,114.5 Z"/></g>
<g><path style="opacity:0.014" fill="#d6dcdd" d="M 234.5,110.5 C 234.073,113.01 233.407,115.343 232.5,117.5C 232.338,115.473 232.505,113.473 233,111.5C 233.383,110.944 233.883,110.611 234.5,110.5 Z"/></g>
<g><path style="opacity:0.694" fill="#9a9ba0" d="M 238.5,113.5 C 238.5,116.167 238.5,118.833 238.5,121.5C 236.028,118.881 236.028,116.214 238.5,113.5 Z"/></g>
<g><path style="opacity:0.863" fill="#909396" d="M 255.5,111.5 C 258.858,114.937 259.191,118.603 256.5,122.5C 256.677,118.766 256.344,115.099 255.5,111.5 Z"/></g>
<g><path style="opacity:0.286" fill="#b3b5b9" d="M 268.5,113.5 C 269.234,114.878 269.901,116.378 270.5,118C 276.681,118.172 282.681,118.672 288.5,119.5C 281.833,119.5 275.167,119.5 268.5,119.5C 268.5,117.5 268.5,115.5 268.5,113.5 Z"/></g>
<g><path style="opacity:0.131" fill="#bfc0c5" d="M 260.5,111.5 C 261.222,111.918 261.722,112.584 262,113.5C 262.233,117.585 262.733,121.585 263.5,125.5C 261.661,121.262 260.661,116.596 260.5,111.5 Z"/></g>
<g><path style="opacity:0.573" fill="#aaacaf" d="M 250.5,115.5 C 251.598,116.601 251.765,117.934 251,119.5C 250.329,120.252 249.496,120.586 248.5,120.5C 249.942,119.18 250.608,117.514 250.5,115.5 Z"/></g>
<g><path style="opacity:1" fill="#151b22" d="M 201.5,140.5 C 201.232,142.099 201.566,143.432 202.5,144.5C 202.427,146.027 203.094,147.027 204.5,147.5C 206.368,148.263 208.035,149.263 209.5,150.5C 223.833,151.833 238.167,151.833 252.5,150.5C 264.345,150.828 276.012,150.495 287.5,149.5C 289.833,149.167 291.167,147.833 291.5,145.5C 291.328,144.508 291.662,143.842 292.5,143.5C 293.755,145.641 295.422,146.307 297.5,145.5C 298.298,145.957 298.631,146.624 298.5,147.5C 298.262,149.404 297.262,150.738 295.5,151.5C 294.5,151.833 293.833,152.5 293.5,153.5C 291.824,155.834 289.491,156.834 286.5,156.5C 258.808,156.799 231.141,156.466 203.5,155.5C 203.027,154.094 202.027,153.427 200.5,153.5C 197.836,151.516 196.169,148.849 195.5,145.5C 195.5,144.167 195.5,142.833 195.5,141.5C 192.518,141.963 189.518,142.296 186.5,142.5C 178.932,142.466 172.265,144.799 166.5,149.5C 165.603,150.598 164.77,150.598 164,149.5C 163.506,151.134 163.34,152.801 163.5,154.5C 163.784,156.415 163.451,158.081 162.5,159.5C 162.718,155.223 162.052,151.557 160.5,148.5C 160.5,147.833 160.5,147.167 160.5,146.5C 162.583,142.082 165.916,139.082 170.5,137.5C 178.8,136.629 187.133,136.295 195.5,136.5C 195.5,134.167 195.5,131.833 195.5,129.5C 196.043,129.44 196.376,129.107 196.5,128.5C 188.193,127.502 179.86,127.169 171.5,127.5C 170.244,127.539 169.244,127.039 168.5,126C 169.973,125.29 170.64,124.124 170.5,122.5C 172.824,122.995 174.991,122.995 177,122.5C 178.473,122.903 179.806,123.57 181,124.5C 182.016,123.366 182.683,123.699 183,125.5C 185.333,124.833 187.667,124.167 190,123.5C 193.548,125.532 197.214,125.866 201,124.5C 201.352,128.258 200.519,131.758 198.5,135C 199.869,136.719 200.869,138.552 201.5,140.5 Z"/></g>
<g><path style="opacity:0.996" fill="#55585b" d="M 163.5,123.5 C 163.607,125.379 163.107,125.712 162,124.5C 160.261,126.318 158.094,127.318 155.5,127.5C 157.579,125.127 160.246,123.794 163.5,123.5 Z"/></g>
<g><path style="opacity:0.651" fill="#92979a" d="M 154.5,128.5 C 152.833,130.833 150.833,132.833 148.5,134.5C 149.5,131.5 151.5,129.5 154.5,128.5 Z"/></g>
<g><path style="opacity:1" fill="#272c33" d="M 235.5,108.5 C 235.672,109.492 235.338,110.158 234.5,110.5C 233.883,110.611 233.383,110.944 233,111.5C 232.505,113.473 232.338,115.473 232.5,117.5C 232.5,120.167 232.5,122.833 232.5,125.5C 223.867,126.245 215.2,126.745 206.5,127C 205.627,128.045 204.627,128.878 203.5,129.5C 202.883,129.611 202.383,129.944 202,130.5C 201.502,133.817 201.335,137.15 201.5,140.5C 200.869,138.552 199.869,136.719 198.5,135C 200.519,131.758 201.352,128.258 201,124.5C 197.214,125.866 193.548,125.532 190,123.5C 187.667,124.167 185.333,124.833 183,125.5C 182.683,123.699 182.016,123.366 181,124.5C 179.806,123.57 178.473,122.903 177,122.5C 174.991,122.995 172.824,122.995 170.5,122.5C 170.64,124.124 169.973,125.29 168.5,126C 169.244,127.039 170.244,127.539 171.5,127.5C 170.167,128.167 168.833,128.833 167.5,129.5C 166.07,130.537 164.403,131.204 162.5,131.5C 160.973,131.427 159.973,132.094 159.5,133.5C 159.5,134.167 159.167,134.5 158.5,134.5C 156.167,134.833 154.833,136.167 154.5,138.5C 152.442,141.697 150.775,145.03 149.5,148.5C 149.682,146.409 149.348,144.409 148.5,142.5C 149.376,141.749 150.376,141.249 151.5,141C 149.926,140.664 148.592,139.831 147.5,138.5C 146.278,141.642 144.611,144.975 142.5,148.5C 143.025,144.467 144.358,140.8 146.5,137.5C 147.906,137.027 148.573,136.027 148.5,134.5C 150.833,132.833 152.833,130.833 154.5,128.5C 154.5,127.833 154.833,127.5 155.5,127.5C 158.094,127.318 160.261,126.318 162,124.5C 163.107,125.712 163.607,125.379 163.5,123.5C 165.562,122.224 167.896,121.39 170.5,121C 188.9,120.686 207.233,119.853 225.5,118.5C 225.311,114.963 225.977,111.63 227.5,108.5C 228.906,108.027 229.573,107.027 229.5,105.5C 233.358,101.319 235.358,102.319 235.5,108.5 Z"/></g>
<g><path style="opacity:0.498" fill="#898d92" d="M 171.5,127.5 C 179.86,127.169 188.193,127.502 196.5,128.5C 196.376,129.107 196.043,129.44 195.5,129.5C 186.319,128.298 176.986,128.298 167.5,129.5C 168.833,128.833 170.167,128.167 171.5,127.5 Z"/></g>
<g><path style="opacity:0.008" fill="#d7d8db" d="M 162.5,131.5 C 162.027,132.906 161.027,133.573 159.5,133.5C 159.973,132.094 160.973,131.427 162.5,131.5 Z"/></g>
<g><path style="opacity:1" fill="#1e232a" d="M 266.5,107.5 C 266.423,108.75 265.756,109.583 264.5,110C 266.133,110.48 267.466,111.313 268.5,112.5C 268.5,112.833 268.5,113.167 268.5,113.5C 268.5,115.5 268.5,117.5 268.5,119.5C 275.167,119.5 281.833,119.5 288.5,119.5C 289.492,119.328 290.158,119.662 290.5,120.5C 290.604,122.973 291.604,123.639 293.5,122.5C 295.556,124.019 297.89,124.853 300.5,125C 296.679,125.399 296.012,126.732 298.5,129C 296.853,131.558 297.187,132.392 299.5,131.5C 299.5,132.833 299.5,134.167 299.5,135.5C 301.167,135.5 302.833,135.5 304.5,135.5C 310.358,135.178 316.025,135.511 321.5,136.5C 322.469,137.309 323.302,138.309 324,139.5C 324.671,138.748 325.504,138.414 326.5,138.5C 326.944,140.113 327.944,141.28 329.5,142C 328.601,143.652 327.601,145.152 326.5,146.5C 325.313,144.025 323.313,143.025 320.5,143.5C 316.499,143.197 312.832,142.864 309.5,142.5C 306.167,141.167 302.833,141.167 299.5,142.5C 299.784,144.415 299.451,146.081 298.5,147.5C 298.631,146.624 298.298,145.957 297.5,145.5C 295.422,146.307 293.755,145.641 292.5,143.5C 292.665,139.818 292.499,136.152 292,132.5C 291.215,130.714 290.049,129.214 288.5,128C 280.091,126.894 271.758,126.06 263.5,125.5C 262.733,121.585 262.233,117.585 262,113.5C 261.722,112.584 261.222,111.918 260.5,111.5C 260.643,108.903 261.477,106.569 263,104.5C 264.039,105.71 265.206,106.71 266.5,107.5 Z"/></g>
<g><path style="opacity:0.302" fill="#b2b2b6" d="M 334.5,132.5 C 336.027,132.427 337.027,133.094 337.5,134.5C 335.973,134.573 334.973,133.906 334.5,132.5 Z"/></g>
<g><path style="opacity:0.051" fill="#e2e4e6" d="M 303.5,128.5 C 302.791,129.404 301.791,129.737 300.5,129.5C 300.5,131.167 300.5,132.833 300.5,134.5C 302.099,134.232 303.432,134.566 304.5,135.5C 302.833,135.5 301.167,135.5 299.5,135.5C 299.5,134.167 299.5,132.833 299.5,131.5C 299.5,130.5 299.5,129.5 299.5,128.5C 300.833,128.5 302.167,128.5 303.5,128.5 Z"/></g>
<g><path style="opacity:0.008" fill="#dcdee0" d="M 158.5,134.5 C 157.5,136.167 156.167,137.5 154.5,138.5C 154.833,136.167 156.167,134.833 158.5,134.5 Z"/></g>
<g><path style="opacity:0.047" fill="#dbe0e1" d="M 203.5,129.5 C 202.608,134.438 202.274,139.438 202.5,144.5C 201.566,143.432 201.232,142.099 201.5,140.5C 201.335,137.15 201.502,133.817 202,130.5C 202.383,129.944 202.883,129.611 203.5,129.5 Z"/></g>
<g><path style="opacity:0.373" fill="#a0a5a8" d="M 148.5,134.5 C 148.573,136.027 147.906,137.027 146.5,137.5C 146.427,135.973 147.094,134.973 148.5,134.5 Z"/></g>
<g><path style="opacity:0.855" fill="#767a7f" d="M 195.5,129.5 C 195.5,131.833 195.5,134.167 195.5,136.5C 187.133,136.295 178.8,136.629 170.5,137.5C 171.263,136.732 172.263,136.232 173.5,136C 180.492,135.5 187.492,135.334 194.5,135.5C 194.205,133.265 194.539,131.265 195.5,129.5 Z"/></g>
<g><path style="opacity:0.784" fill="#838689" d="M 287.5,132.5 C 288.249,133.531 288.915,134.698 289.5,136C 288.167,137.333 288.167,138.667 289.5,140C 288.915,141.302 288.249,142.469 287.5,143.5C 287.5,139.833 287.5,136.167 287.5,132.5 Z"/></g>
<g><path style="opacity:1" fill="#6d6f74" d="M 321.5,136.5 C 323.553,136.402 325.22,137.069 326.5,138.5C 325.504,138.414 324.671,138.748 324,139.5C 323.302,138.309 322.469,137.309 321.5,136.5 Z"/></g>
<g><path style="opacity:1" fill="#2a2e35" d="M 290.5,120.5 C 301.004,120.443 311.671,120.61 322.5,121C 330.078,121.458 336.745,124.125 342.5,129C 345.447,131.436 347.78,134.269 349.5,137.5C 349.414,138.496 349.748,139.329 350.5,140C 349.833,140.333 349.167,140.667 348.5,141C 350.047,142.387 351.713,143.553 353.5,144.5C 353.5,144.833 353.5,145.167 353.5,145.5C 352.005,145.415 351.005,146.081 350.5,147.5C 351.167,147.833 351.833,148.167 352.5,148.5C 351.968,150.851 350.968,153.185 349.5,155.5C 348.833,153.833 348.167,152.167 347.5,150.5C 345.451,144.433 342.118,139.1 337.5,134.5C 337.027,133.094 336.027,132.427 334.5,132.5C 324.475,129.466 314.142,128.133 303.5,128.5C 302.167,128.5 300.833,128.5 299.5,128.5C 299.5,129.5 299.5,130.5 299.5,131.5C 297.187,132.392 296.853,131.558 298.5,129C 296.012,126.732 296.679,125.399 300.5,125C 297.89,124.853 295.556,124.019 293.5,122.5C 291.604,123.639 290.604,122.973 290.5,120.5 Z"/></g>
<g><path style="opacity:0.633" fill="#a7acb0" d="M 195.5,145.5 C 194.732,144.737 194.232,143.737 194,142.5C 191.395,143.814 188.895,143.814 186.5,142.5C 189.518,142.296 192.518,141.963 195.5,141.5C 195.5,142.833 195.5,144.167 195.5,145.5 Z"/></g>
<g><path style="opacity:1" fill="#191e26" d="M 223.5,130.5 C 223.953,131.458 224.619,132.292 225.5,133C 221.442,133.34 217.442,134.007 213.5,135C 212.199,136.616 212.199,138.116 213.5,139.5C 213.611,140.117 213.944,140.617 214.5,141C 236.167,141.667 257.833,141.667 279.5,141C 280.416,140.722 281.082,140.222 281.5,139.5C 281.567,138.041 281.234,136.708 280.5,135.5C 279.737,134.732 278.737,134.232 277.5,134C 273.514,133.501 269.514,133.334 265.5,133.5C 265.833,132.833 266.167,132.167 266.5,131.5C 272.705,129.83 279.039,129.33 285.5,130C 286.381,130.708 287.047,131.542 287.5,132.5C 287.5,136.167 287.5,139.833 287.5,143.5C 286.167,144.167 285.167,145.167 284.5,146.5C 259.833,146.5 235.167,146.5 210.5,146.5C 210.027,145.094 209.027,144.427 207.5,144.5C 204.639,139.855 204.973,135.355 208.5,131C 213.566,129.259 218.566,129.092 223.5,130.5 Z"/></g>
<g><path style="opacity:0.82" fill="#6f7478" d="M 213.5,139.5 C 236.547,139.595 259.213,139.595 281.5,139.5C 281.082,140.222 280.416,140.722 279.5,141C 257.833,141.667 236.167,141.667 214.5,141C 213.944,140.617 213.611,140.117 213.5,139.5 Z"/></g>
<g><path style="opacity:0.439" fill="#aaaeb4" d="M 265.5,133.5 C 269.514,133.334 273.514,133.501 277.5,134C 278.737,134.232 279.737,134.732 280.5,135.5C 275.332,135.066 270.332,134.4 265.5,133.5 Z"/></g>
<g><path style="opacity:0.173" fill="#cbd0d1" d="M 266.5,131.5 C 266.167,132.167 265.833,132.833 265.5,133.5C 264.325,133.719 263.325,133.386 262.5,132.5C 263.689,131.571 265.022,131.238 266.5,131.5 Z"/></g>
<g><path style="opacity:0.915" fill="#959aa0" d="M 223.5,130.5 C 225.199,130.34 226.866,130.506 228.5,131C 229.833,131.667 229.833,132.333 228.5,133C 223.919,134.275 219.252,135.275 214.5,136C 213.663,137.011 213.33,138.178 213.5,139.5C 212.199,138.116 212.199,136.616 213.5,135C 217.442,134.007 221.442,133.34 225.5,133C 224.619,132.292 223.953,131.458 223.5,130.5 Z"/></g>
<g><path style="opacity:0.804" fill="#74787e" d="M 299.5,142.5 C 302.833,141.167 306.167,141.167 309.5,142.5C 306.378,142.72 303.044,142.72 299.5,142.5 Z"/></g>
<g><path style="opacity:1" fill="#52575e" d="M 349.5,137.5 C 351.588,139.336 352.921,141.669 353.5,144.5C 351.713,143.553 350.047,142.387 348.5,141C 349.167,140.667 349.833,140.333 350.5,140C 349.748,139.329 349.414,138.496 349.5,137.5 Z"/></g>
<g><path style="opacity:0.933" fill="#6e7477" d="M 320.5,143.5 C 323.313,143.025 325.313,144.025 326.5,146.5C 324.456,145.492 322.456,144.492 320.5,143.5 Z"/></g>
<g><path style="opacity:0.29" fill="#b0b3b8" d="M 207.5,144.5 C 209.027,144.427 210.027,145.094 210.5,146.5C 208.973,146.573 207.973,145.906 207.5,144.5 Z"/></g>
<g><path style="opacity:0.008" fill="#d9dcde" d="M 287.5,143.5 C 287.5,145.5 286.5,146.5 284.5,146.5C 285.167,145.167 286.167,144.167 287.5,143.5 Z"/></g>
<g><path style="opacity:0.325" fill="#b4b6bb" d="M 202.5,144.5 C 203.906,144.973 204.573,145.973 204.5,147.5C 203.094,147.027 202.427,146.027 202.5,144.5 Z"/></g>
<g><path style="opacity:0.528" fill="#85898e" d="M 210.5,146.5 C 235.167,146.5 259.833,146.5 284.5,146.5C 261.431,147.171 238.264,147.838 215,148.5C 213.378,147.901 211.878,147.234 210.5,146.5 Z"/></g>
<g><path style="opacity:0.525" fill="#a0a1a6" d="M 291.5,145.5 C 291.167,147.833 289.833,149.167 287.5,149.5C 288.5,147.833 289.833,146.5 291.5,145.5 Z"/></g>
<g><path style="opacity:1" fill="#282f35" d="M 326.5,138.5 C 332.897,141.231 337.23,145.897 339.5,152.5C 338.141,151.993 337.141,150.993 336.5,149.5C 335.158,150.902 334.324,150.569 334,148.5C 332.519,149.471 331.685,150.804 331.5,152.5C 330.833,152.5 330.5,152.167 330.5,151.5C 330.573,149.973 329.906,148.973 328.5,148.5C 327.5,148.167 326.833,147.5 326.5,146.5C 327.601,145.152 328.601,143.652 329.5,142C 327.944,141.28 326.944,140.113 326.5,138.5 Z"/></g>
<g><path style="opacity:0.271" fill="#abafb1" d="M 160.5,146.5 C 160.5,147.167 160.5,147.833 160.5,148.5C 159.833,148.833 159.167,149.167 158.5,149.5C 158.427,147.973 159.094,146.973 160.5,146.5 Z"/></g>
<g><path style="opacity:1" fill="#0b151d" d="M 149.5,148.5 C 148.732,149.263 148.232,150.263 148,151.5C 147.5,185.832 147.333,220.165 147.5,254.5C 146.883,254.389 146.383,254.056 146,253.5C 145.667,249.833 145.333,246.167 145,242.5C 144.002,247.604 143.169,252.604 142.5,257.5C 142.5,221.167 142.5,184.833 142.5,148.5C 144.611,144.975 146.278,141.642 147.5,138.5C 148.592,139.831 149.926,140.664 151.5,141C 150.376,141.249 149.376,141.749 148.5,142.5C 149.348,144.409 149.682,146.409 149.5,148.5 Z"/></g>
<g><path style="opacity:1" fill="#6e7579" d="M 166.5,149.5 C 165.89,151.434 164.89,153.101 163.5,154.5C 163.34,152.801 163.506,151.134 164,149.5C 164.77,150.598 165.603,150.598 166.5,149.5 Z"/></g>
<g><path style="opacity:0.015" fill="#f5fafa" d="M 287.5,149.5 C 276.012,150.495 264.345,150.828 252.5,150.5C 252.167,150.5 251.833,150.5 251.5,150.5C 260.235,149.821 269.068,149.154 278,148.5C 281.057,149.451 284.223,149.784 287.5,149.5 Z"/></g>
<g><path style="opacity:0.008" fill="#d4d5d8" d="M 328.5,148.5 C 329.906,148.973 330.573,149.973 330.5,151.5C 329.094,151.027 328.427,150.027 328.5,148.5 Z"/></g>
<g><path style="opacity:0.569" fill="#878a8d" d="M 251.5,150.5 C 251.833,150.5 252.167,150.5 252.5,150.5C 238.167,151.833 223.833,151.833 209.5,150.5C 223.479,150.328 237.479,150.328 251.5,150.5 Z"/></g>
<g><path style="opacity:0.569" fill="#7d8285" d="M 353.5,145.5 C 354.924,147.515 355.59,149.848 355.5,152.5C 355.167,152.5 354.833,152.5 354.5,152.5C 354.007,150.194 353.674,147.861 353.5,145.5 Z"/></g>
<g><path style="opacity:0.004" fill="#cecfd2" d="M 295.5,151.5 C 295.5,152.833 294.833,153.5 293.5,153.5C 293.833,152.5 294.5,151.833 295.5,151.5 Z"/></g>
<g><path style="opacity:0.302" fill="#afafb2" d="M 200.5,153.5 C 202.027,153.427 203.027,154.094 203.5,155.5C 201.973,155.573 200.973,154.906 200.5,153.5 Z"/></g>
<g><path style="opacity:0.141" fill="#d2d5d9" d="M 203.5,155.5 C 231.141,156.466 258.808,156.799 286.5,156.5C 260.003,157.664 233.336,157.83 206.5,157C 205.263,156.768 204.263,156.268 203.5,155.5 Z"/></g>
<g><path style="opacity:0.8" fill="#929599" d="M 158.5,149.5 C 157.862,154.19 157.029,158.856 156,163.5C 155.5,197.498 155.333,231.498 155.5,265.5C 155.5,283.5 155.5,301.5 155.5,319.5C 155.5,327.833 155.5,336.167 155.5,344.5C 154.335,283.335 154.168,222.001 155,160.5C 155.498,156.509 156.665,152.842 158.5,149.5 Z"/></g>
<g><path style="opacity:0.69" fill="#9a9b9e" d="M 299.5,164.5 C 298.167,166.5 296.5,168.167 294.5,169.5C 295.167,166.833 296.833,165.167 299.5,164.5 Z"/></g>
<g><path style="opacity:0.604" fill="#a8acae" d="M 321.5,164.5 C 323.262,165.262 324.262,166.596 324.5,168.5C 322.738,167.738 321.738,166.404 321.5,164.5 Z"/></g>
<g><path style="opacity:0.273" fill="#c3c8ce" d="M 339.5,152.5 C 340.268,153.263 340.768,154.263 341,155.5C 341.822,163.012 341.655,170.345 340.5,177.5C 340.705,169.133 340.371,160.8 339.5,152.5 Z"/></g>
<g><path style="opacity:1" fill="#2e3137" d="M 218.5,169.5 C 218.167,169.5 217.833,169.5 217.5,169.5C 215.738,169.643 214.071,169.309 212.5,168.5C 211.378,169.63 210.044,170.297 208.5,170.5C 210.612,167.27 213.612,165.27 217.5,164.5C 220.982,165.603 221.315,167.27 218.5,169.5 Z"/></g>
<g><path style="opacity:1" fill="#181c23" d="M 321.5,164.5 C 321.738,166.404 322.738,167.738 324.5,168.5C 325.331,171.659 326.331,174.659 327.5,177.5C 326.653,178.966 325.32,179.8 323.5,180C 325.776,181.03 326.443,182.53 325.5,184.5C 325.957,185.298 326.624,185.631 327.5,185.5C 327.5,185.833 327.5,186.167 327.5,186.5C 326.842,187.398 326.176,188.398 325.5,189.5C 324.153,189.553 322.82,189.553 321.5,189.5C 321.5,189.167 321.5,188.833 321.5,188.5C 321.5,187.5 321.5,186.5 321.5,185.5C 315.5,185.5 309.5,185.5 303.5,185.5C 303.511,183.983 304.177,182.816 305.5,182C 310.5,181.333 315.5,181.333 320.5,182C 319.396,183.131 319.729,183.965 321.5,184.5C 322.158,182.563 322.491,180.73 322.5,179C 321.906,178.536 321.239,178.369 320.5,178.5C 320.741,176.102 320.074,174.102 318.5,172.5C 317.5,172.167 316.833,171.5 316.5,170.5C 316.082,169.778 315.416,169.278 314.5,169C 310.056,168.727 305.723,168.56 301.5,168.5C 301.094,169.557 301.094,170.891 301.5,172.5C 300.883,172.611 300.383,172.944 300,173.5C 299.505,175.473 299.338,177.473 299.5,179.5C 298.341,178.544 297.174,177.544 296,176.5C 294.826,177.544 293.659,178.544 292.5,179.5C 292.336,176.813 292.503,174.146 293,171.5C 293.278,170.584 293.778,169.918 294.5,169.5C 296.5,168.167 298.167,166.5 299.5,164.5C 306.808,160.565 314.141,160.565 321.5,164.5 Z M 316.5,170.5 C 316.833,171.5 317.5,172.167 318.5,172.5C 318.448,174.903 318.781,177.236 319.5,179.5C 315.239,178.908 310.906,178.908 306.5,179.5C 304.5,179.5 302.5,179.5 300.5,179.5C 300.448,177.097 300.781,174.764 301.5,172.5C 306.109,169.413 311.109,168.747 316.5,170.5 Z"/></g>
<g><path style="opacity:0.741" fill="#62676b" d="M 316.5,170.5 C 311.109,168.747 306.109,169.413 301.5,172.5C 301.094,170.891 301.094,169.557 301.5,168.5C 305.723,168.56 310.056,168.727 314.5,169C 315.416,169.278 316.082,169.778 316.5,170.5 Z"/></g>
<g><path style="opacity:0.007" fill="#dddfe0" d="M 324.5,168.5 C 326.655,170.617 327.655,173.284 327.5,176.5C 329.415,176.216 331.081,176.549 332.5,177.5C 330.833,177.5 329.167,177.5 327.5,177.5C 326.331,174.659 325.331,171.659 324.5,168.5 Z"/></g>
<g><path style="opacity:0.161" fill="#ccd1d7" d="M 333.5,157.5 C 334.819,164.344 334.819,171.344 333.5,178.5C 332.893,178.376 332.56,178.043 332.5,177.5C 333.491,171.021 333.824,164.354 333.5,157.5 Z"/></g>
<g><path style="opacity:0.035" fill="#c0c1c3" d="M 217.5,169.5 C 217.833,169.5 218.167,169.5 218.5,169.5C 217.581,172.089 215.914,174.089 213.5,175.5C 214.415,173.246 215.748,171.246 217.5,169.5 Z"/></g>
<g><path style="opacity:0.098" fill="#cacfd2" d="M 207.5,171.5 C 205.841,174.833 203.175,176.5 199.5,176.5C 192.5,176.5 185.5,176.5 178.5,176.5C 186.323,175.671 194.323,175.171 202.5,175C 203.789,173.198 205.456,172.031 207.5,171.5 Z"/></g>
<g><path style="opacity:0.475" fill="#9a9ca1" d="M 318.5,172.5 C 320.074,174.102 320.741,176.102 320.5,178.5C 320.5,179.167 320.167,179.5 319.5,179.5C 318.781,177.236 318.448,174.903 318.5,172.5 Z"/></g>
<g><path style="opacity:0.51" fill="#878b8e" d="M 301.5,172.5 C 300.781,174.764 300.448,177.097 300.5,179.5C 302.5,179.5 304.5,179.5 306.5,179.5C 306.5,179.833 306.5,180.167 306.5,180.5C 303.941,180.802 301.607,180.468 299.5,179.5C 299.338,177.473 299.505,175.473 300,173.5C 300.383,172.944 300.883,172.611 301.5,172.5 Z"/></g>
<g><path style="opacity:0.997" fill="#0f171e" d="M 339.5,152.5 C 340.371,160.8 340.705,169.133 340.5,177.5C 339.506,187.653 339.172,197.986 339.5,208.5C 337.803,206.695 336.97,204.361 337,201.5C 336.02,203.059 335.187,204.726 334.5,206.5C 333.717,199.658 332.717,192.992 331.5,186.5C 330.432,185.566 329.099,185.232 327.5,185.5C 326.624,185.631 325.957,185.298 325.5,184.5C 326.443,182.53 325.776,181.03 323.5,180C 325.32,179.8 326.653,178.966 327.5,177.5C 329.167,177.5 330.833,177.5 332.5,177.5C 332.56,178.043 332.893,178.376 333.5,178.5C 334.819,171.344 334.819,164.344 333.5,157.5C 332.463,156.07 331.796,154.403 331.5,152.5C 331.685,150.804 332.519,149.471 334,148.5C 334.324,150.569 335.158,150.902 336.5,149.5C 337.141,150.993 338.141,151.993 339.5,152.5 Z"/></g>
<g><path style="opacity:0.053" fill="#c7ced0" d="M 182.5,182.5 C 187.511,182.334 192.511,182.501 197.5,183C 196.897,185.071 195.564,186.238 193.5,186.5C 193.953,185.542 194.619,184.708 195.5,184C 192.633,183.199 189.966,183.366 187.5,184.5C 186.5,184.5 185.5,184.5 184.5,184.5C 183.828,185.267 182.995,185.934 182,186.5C 181.235,184.934 181.402,183.601 182.5,182.5 Z"/></g>
<g><path style="opacity:0.02" fill="#c4c6c7" d="M 187.5,184.5 C 189.5,184.5 190.5,185.5 190.5,187.5C 189.167,186.833 188.167,185.833 187.5,184.5 Z"/></g>
<g><path style="opacity:0.011" fill="#fbfbfe" d="M 298.5,186.5 C 298.5,186.167 298.5,185.833 298.5,185.5C 300.167,185.5 301.833,185.5 303.5,185.5C 309.5,185.5 315.5,185.5 321.5,185.5C 321.5,186.5 321.5,187.5 321.5,188.5C 321.167,188.5 320.833,188.5 320.5,188.5C 313.576,186.537 306.243,185.87 298.5,186.5 Z"/></g>
<g><path style="opacity:0.686" fill="#a1a3a4" d="M 193.5,186.5 C 193.5,187.167 193.5,187.833 193.5,188.5C 192.209,188.737 191.209,188.404 190.5,187.5C 191.609,187.443 192.609,187.11 193.5,186.5 Z"/></g>
<g><path style="opacity:0.392" fill="#999ea2" d="M 327.5,185.5 C 329.099,185.232 330.432,185.566 331.5,186.5C 330.5,186.5 329.5,186.5 328.5,186.5C 328.822,192.358 328.489,198.025 327.5,203.5C 327.5,200.5 327.5,197.5 327.5,194.5C 327.5,191.833 327.5,189.167 327.5,186.5C 327.5,186.167 327.5,185.833 327.5,185.5 Z"/></g>
<g><path style="opacity:1" fill="#242a32" d="M 278.5,188.5 C 278.5,189.5 278.5,190.5 278.5,191.5C 258.833,191.5 239.167,191.5 219.5,191.5C 217.296,189.937 217.63,188.437 220.5,187C 238.5,186.333 256.5,186.333 274.5,187C 276.058,187.21 277.391,187.71 278.5,188.5 Z"/></g>
<g><path style="opacity:0.055" fill="#caccd1" d="M 298.5,185.5 C 298.5,185.833 298.5,186.167 298.5,186.5C 305.424,188.463 312.757,189.13 320.5,188.5C 320.833,188.5 321.167,188.5 321.5,188.5C 321.5,188.833 321.5,189.167 321.5,189.5C 313.5,189.5 305.5,189.5 297.5,189.5C 297.232,187.901 297.566,186.568 298.5,185.5 Z"/></g>
<g><path style="opacity:1" fill="#161b22" d="M 178.5,176.5 C 185.5,176.5 192.5,176.5 199.5,176.5C 199.439,178.592 198.439,180.092 196.5,181C 191.649,181.174 186.982,181.674 182.5,182.5C 181.402,183.601 181.235,184.934 182,186.5C 182.995,185.934 183.828,185.267 184.5,184.5C 185.5,184.5 186.5,184.5 187.5,184.5C 188.167,185.833 189.167,186.833 190.5,187.5C 191.209,188.404 192.209,188.737 193.5,188.5C 196.125,189.441 196.125,190.607 193.5,192C 194.756,192.417 195.423,193.25 195.5,194.5C 195.5,195.167 195.167,195.5 194.5,195.5C 192.547,196.462 190.714,196.795 189,196.5C 188.082,194.624 186.582,193.624 184.5,193.5C 184.174,190.999 182.841,189.832 180.5,190C 181.085,191.302 181.751,192.469 182.5,193.5C 182.5,195.833 182.5,198.167 182.5,200.5C 187.167,200.5 191.833,200.5 196.5,200.5C 197.5,200.5 198.5,200.5 199.5,200.5C 199.421,201.93 199.754,203.264 200.5,204.5C 194.346,205.167 188.346,205.833 182.5,206.5C 181.652,207.625 180.652,207.625 179.5,206.5C 178.833,205.167 177.833,204.167 176.5,203.5C 175.343,195.344 175.177,187.01 176,178.5C 176.708,177.619 177.542,176.953 178.5,176.5 Z"/></g>
<g><path style="opacity:0.337" fill="#9ca5ae" d="M 184.5,193.5 C 184.167,193.5 183.833,193.5 183.5,193.5C 183.167,192.167 182.833,192.167 182.5,193.5C 181.751,192.469 181.085,191.302 180.5,190C 182.841,189.832 184.174,190.999 184.5,193.5 Z"/></g>
<g><path style="opacity:0.999" fill="#1c2126" d="M 217.5,169.5 C 215.748,171.246 214.415,173.246 213.5,175.5C 211.706,177.797 209.706,179.963 207.5,182C 208.647,189.42 208.813,196.92 208,204.5C 206.406,206.297 204.406,207.297 202,207.5C 195.534,206.6 189.034,206.267 182.5,206.5C 188.346,205.833 194.346,205.167 200.5,204.5C 199.754,203.264 199.421,201.93 199.5,200.5C 200.5,200.5 201.5,200.5 202.5,200.5C 202.824,196.445 202.491,192.445 201.5,188.5C 200.081,189.005 199.415,190.005 199.5,191.5C 198.833,192.833 197.833,193.833 196.5,194.5C 196.167,194.5 195.833,194.5 195.5,194.5C 195.423,193.25 194.756,192.417 193.5,192C 196.125,190.607 196.125,189.441 193.5,188.5C 193.5,187.833 193.5,187.167 193.5,186.5C 195.564,186.238 196.897,185.071 197.5,183C 192.511,182.501 187.511,182.334 182.5,182.5C 186.982,181.674 191.649,181.174 196.5,181C 198.439,180.092 199.439,178.592 199.5,176.5C 203.175,176.5 205.841,174.833 207.5,171.5C 207.5,170.833 207.833,170.5 208.5,170.5C 210.044,170.297 211.378,169.63 212.5,168.5C 214.071,169.309 215.738,169.643 217.5,169.5 Z"/></g>
<g><path style="opacity:0.749" fill="#a6a9ac" d="M 278.5,188.5 C 279.289,188.783 279.956,189.283 280.5,190C 279.331,191.836 277.664,193.002 275.5,193.5C 256.706,192.845 238.039,192.179 219.5,191.5C 239.167,191.5 258.833,191.5 278.5,191.5C 278.5,190.5 278.5,189.5 278.5,188.5 Z"/></g>
<g><path style="opacity:1" fill="#090f17" d="M 299.5,179.5 C 301.607,180.468 303.941,180.802 306.5,180.5C 311.032,180.818 315.366,180.485 319.5,179.5C 320.167,179.5 320.5,179.167 320.5,178.5C 321.239,178.369 321.906,178.536 322.5,179C 322.491,180.73 322.158,182.563 321.5,184.5C 319.729,183.965 319.396,183.131 320.5,182C 315.5,181.333 310.5,181.333 305.5,182C 304.177,182.816 303.511,183.983 303.5,185.5C 301.833,185.5 300.167,185.5 298.5,185.5C 297.566,186.568 297.232,187.901 297.5,189.5C 305.5,189.5 313.5,189.5 321.5,189.5C 322.82,189.553 324.153,189.553 325.5,189.5C 326.176,188.398 326.842,187.398 327.5,186.5C 327.5,189.167 327.5,191.833 327.5,194.5C 325.266,194.62 323.099,194.287 321,193.5C 313.024,194.122 305.191,194.789 297.5,195.5C 297.263,196.791 297.596,197.791 298.5,198.5C 300.556,199.216 302.723,199.883 305,200.5C 307.86,199.488 311.027,199.488 314.5,200.5C 313.975,201.192 313.308,201.692 312.5,202C 313.598,202.77 313.598,203.603 312.5,204.5C 312.5,211.167 312.5,217.833 312.5,224.5C 311.833,219.319 311.167,213.985 310.5,208.5C 309.914,208.291 309.414,207.957 309,207.5C 308.768,208.737 308.268,209.737 307.5,210.5C 307.795,208.265 307.461,206.265 306.5,204.5C 305.495,202.257 303.995,201.924 302,203.5C 299.14,200.719 295.973,200.053 292.5,201.5C 292.5,194.5 292.5,187.5 292.5,180.5C 292.5,180.167 292.5,179.833 292.5,179.5C 293.659,178.544 294.826,177.544 296,176.5C 297.174,177.544 298.341,178.544 299.5,179.5 Z M 298.5,186.5 C 306.243,185.87 313.576,186.537 320.5,188.5C 312.757,189.13 305.424,188.463 298.5,186.5 Z"/></g>
<g><path style="opacity:0.761" fill="#636969" d="M 319.5,179.5 C 315.366,180.485 311.032,180.818 306.5,180.5C 306.5,180.167 306.5,179.833 306.5,179.5C 310.906,178.908 315.239,178.908 319.5,179.5 Z"/></g>
<g><path style="opacity:0.008" fill="#cccecf" d="M 195.5,194.5 C 195.833,194.5 196.167,194.5 196.5,194.5C 196.573,196.027 195.906,197.027 194.5,197.5C 194.5,196.833 194.5,196.167 194.5,195.5C 195.167,195.5 195.5,195.167 195.5,194.5 Z"/></g>
<g><path style="opacity:0.482" fill="#969ca1" d="M 199.5,200.5 C 198.5,200.5 197.5,200.5 196.5,200.5C 196.5,200.167 196.5,199.833 196.5,199.5C 198.167,199.5 199.833,199.5 201.5,199.5C 201.665,196.482 201.498,193.482 201,190.5C 200.617,191.056 200.117,191.389 199.5,191.5C 199.415,190.005 200.081,189.005 201.5,188.5C 202.491,192.445 202.824,196.445 202.5,200.5C 201.5,200.5 200.5,200.5 199.5,200.5 Z"/></g>
<g><path style="opacity:0.341" fill="#b0b2b7" d="M 249.5,196.5 C 239.63,197.214 229.63,197.88 219.5,198.5C 219.611,197.883 219.944,197.383 220.5,197C 230.077,196.82 239.577,196.32 249,195.5C 249.399,195.728 249.565,196.062 249.5,196.5 Z"/></g>
<g><path style="opacity:0.178" fill="#d5d9de" d="M 297.5,195.5 C 297.833,195.5 298.167,195.5 298.5,195.5C 305.76,197.465 313.427,198.132 321.5,197.5C 314.018,198.492 306.352,198.825 298.5,198.5C 297.596,197.791 297.263,196.791 297.5,195.5 Z"/></g>
<g><path style="opacity:1" fill="#2c2e35" d="M 275.5,197.5 C 275.5,198.833 275.5,200.167 275.5,201.5C 266.971,201.566 258.638,202.233 250.5,203.5C 240.675,204.658 230.675,204.825 220.5,204C 218.447,202.322 218.113,200.489 219.5,198.5C 229.63,197.88 239.63,197.214 249.5,196.5C 257.124,195.537 264.624,195.204 272,195.5C 273.302,196.085 274.469,196.751 275.5,197.5 Z"/></g>
<g><path style="opacity:0.635" fill="#9a9b9c" d="M 275.5,197.5 C 277.781,198.634 277.781,199.968 275.5,201.5C 275.5,200.167 275.5,198.833 275.5,197.5 Z"/></g>
<g><path style="opacity:0.997" fill="#0f151b" d="M 160.5,148.5 C 162.052,151.557 162.718,155.223 162.5,159.5C 162.5,159.833 162.5,160.167 162.5,160.5C 161.502,183.994 161.169,207.661 161.5,231.5C 160.698,230.048 160.198,228.382 160,226.5C 159.667,227.167 159.333,227.833 159,228.5C 158.667,226.833 158.333,225.167 158,223.5C 157.815,236.545 157.315,249.545 156.5,262.5C 157.777,263.922 157.443,264.922 155.5,265.5C 155.333,231.498 155.5,197.498 156,163.5C 157.029,158.856 157.862,154.19 158.5,149.5C 159.167,149.167 159.833,148.833 160.5,148.5 Z"/></g>
<g><path style="opacity:0.667" fill="#6d7276" d="M 182.5,193.5 C 182.833,193.5 183.167,193.5 183.5,193.5C 183.338,195.527 183.505,197.527 184,199.5C 185.356,198.62 186.856,198.286 188.5,198.5C 187.167,196.833 185.833,195.167 184.5,193.5C 186.582,193.624 188.082,194.624 189,196.5C 190.714,196.795 192.547,196.462 194.5,195.5C 194.5,196.167 194.5,196.833 194.5,197.5C 193.34,199.203 194.007,199.869 196.5,199.5C 196.5,199.833 196.5,200.167 196.5,200.5C 191.833,200.5 187.167,200.5 182.5,200.5C 182.5,198.167 182.5,195.833 182.5,193.5 Z M 183.5,193.5 C 183.833,193.5 184.167,193.5 184.5,193.5C 185.833,195.167 187.167,196.833 188.5,198.5C 186.856,198.286 185.356,198.62 184,199.5C 183.505,197.527 183.338,195.527 183.5,193.5 Z"/></g>
<g><path style="opacity:1" fill="#272e34" d="M 331.5,186.5 C 332.717,192.992 333.717,199.658 334.5,206.5C 335.187,204.726 336.02,203.059 337,201.5C 336.97,204.361 337.803,206.695 339.5,208.5C 339.127,213.699 339.127,218.699 339.5,223.5C 340.479,226.625 340.813,229.958 340.5,233.5C 340.5,239.167 340.5,244.833 340.5,250.5C 339.596,249.791 339.263,248.791 339.5,247.5C 338.167,247.5 336.833,247.5 335.5,247.5C 336.279,250.075 336.113,252.408 335,254.5C 334.832,286.003 334.332,317.336 333.5,348.5C 333.413,307.78 333.413,267.113 333.5,226.5C 334.598,225.399 334.765,224.066 334,222.5C 333.283,223.044 332.783,223.711 332.5,224.5C 331.564,225.974 330.23,226.974 328.5,227.5C 327.5,227.5 326.5,227.5 325.5,227.5C 325.5,247.5 325.5,267.5 325.5,287.5C 324.206,285.952 323.539,283.952 323.5,281.5C 324.678,272.89 324.678,264.223 323.5,255.5C 321.801,255.527 320.467,256.194 319.5,257.5C 319.83,239.659 319.497,221.992 318.5,204.5C 317.036,205.405 315.702,205.405 314.5,204.5C 313.833,204.5 313.167,204.5 312.5,204.5C 313.598,203.603 313.598,202.77 312.5,202C 313.308,201.692 313.975,201.192 314.5,200.5C 311.027,199.488 307.86,199.488 305,200.5C 302.723,199.883 300.556,199.216 298.5,198.5C 306.352,198.825 314.018,198.492 321.5,197.5C 314.04,196.128 306.374,195.461 298.5,195.5C 298.167,195.5 297.833,195.5 297.5,195.5C 305.191,194.789 313.024,194.122 321,193.5C 323.099,194.287 325.266,194.62 327.5,194.5C 327.5,197.5 327.5,200.5 327.5,203.5C 326.513,208.305 326.179,213.305 326.5,218.5C 329.367,218.631 331.033,217.297 331.5,214.5C 332.396,205.146 332.396,195.812 331.5,186.5 Z"/></g>
<g><path style="opacity:0.361" fill="#9fa6a9" d="M 340.5,177.5 C 340.769,192.862 340.436,208.195 339.5,223.5C 339.127,218.699 339.127,213.699 339.5,208.5C 339.172,197.986 339.506,187.653 340.5,177.5 Z"/></g>
<g><path style="opacity:0.259" fill="#b9b9be" d="M 275.5,201.5 C 267.39,203.114 259.056,203.78 250.5,203.5C 258.638,202.233 266.971,201.566 275.5,201.5 Z"/></g>
<g><path style="opacity:0.016" fill="#d2d4d4" d="M 176.5,203.5 C 177.833,204.167 178.833,205.167 179.5,206.5C 177.5,206.5 176.5,205.5 176.5,203.5 Z"/></g>
<g><path style="opacity:0.544" fill="#8c9094" d="M 292.5,203.5 C 294.459,209.75 295.126,216.416 294.5,223.5C 293.662,223.842 293.328,224.508 293.5,225.5C 293.452,218.272 293.119,210.938 292.5,203.5 Z"/></g>
<g><path style="opacity:1" fill="#0b151c" d="M 353.5,145.5 C 353.674,147.861 354.007,150.194 354.5,152.5C 354.5,183.5 354.5,214.5 354.5,245.5C 353.778,245.082 353.278,244.416 353,243.5C 352.535,244.931 351.701,246.097 350.5,247C 351.996,249.447 351.663,250.281 349.5,249.5C 349.5,218.167 349.5,186.833 349.5,155.5C 350.968,153.185 351.968,150.851 352.5,148.5C 351.833,148.167 351.167,147.833 350.5,147.5C 351.005,146.081 352.005,145.415 353.5,145.5 Z"/></g>
<g><path style="opacity:1" fill="#101921" d="M 292.5,180.5 C 292.5,187.5 292.5,194.5 292.5,201.5C 295.973,200.053 299.14,200.719 302,203.5C 303.995,201.924 305.495,202.257 306.5,204.5C 304.5,204.5 302.5,204.5 300.5,204.5C 300.5,220.167 300.5,235.833 300.5,251.5C 299.668,272.329 299.168,293.329 299,314.5C 298.692,315.308 298.192,315.975 297.5,316.5C 296.304,314.855 295.304,313.189 294.5,311.5C 294.5,282.167 294.5,252.833 294.5,223.5C 295.126,216.416 294.459,209.75 292.5,203.5C 291.188,195.735 291.188,188.068 292.5,180.5 Z"/></g>
<g><path style="opacity:0.492" fill="#85898d" d="M 202.5,212.5 C 202.082,213.222 201.416,213.722 200.5,214C 193.174,214.5 185.841,214.666 178.5,214.5C 186.355,213.74 194.355,213.073 202.5,212.5 Z"/></g>
<g><path style="opacity:0.086" fill="#c1c3c8" d="M 327.5,203.5 C 327.334,208.179 327.501,212.845 328,217.5C 329.039,216.29 330.206,215.29 331.5,214.5C 331.033,217.297 329.367,218.631 326.5,218.5C 326.179,213.305 326.513,208.305 327.5,203.5 Z"/></g>
<g><path style="opacity:0.999" fill="#1d2228" d="M 207.5,240.5 C 206.711,240.783 206.044,241.283 205.5,242C 196.506,242.5 187.506,242.666 178.5,242.5C 177.542,242.047 176.708,241.381 176,240.5C 175.333,232.833 175.333,225.167 176,217.5C 176.377,216.058 177.21,215.058 178.5,214.5C 185.841,214.666 193.174,214.5 200.5,214C 201.416,213.722 202.082,213.222 202.5,212.5C 206.159,210.751 208.826,211.751 210.5,215.5C 210,216.5 209.5,217.5 209,218.5C 208.829,226.011 208.329,233.345 207.5,240.5 Z M 185.5,220.5 C 189.371,220.185 193.038,220.518 196.5,221.5C 194.413,222.585 193.08,224.251 192.5,226.5C 191.833,226.5 191.167,226.5 190.5,226.5C 189.054,225.387 187.387,225.22 185.5,226C 184.748,226.671 184.414,227.504 184.5,228.5C 184.5,228.833 184.5,229.167 184.5,229.5C 184.5,231.5 185.5,232.5 187.5,232.5C 188.29,233.794 189.29,234.961 190.5,236C 188.044,235.936 185.711,236.102 183.5,236.5C 182.963,230.865 183.63,225.532 185.5,220.5 Z M 200.5,226.5 C 201.479,229.625 201.813,232.958 201.5,236.5C 198.287,236.81 195.287,236.477 192.5,235.5C 195.138,232.526 197.805,229.526 200.5,226.5 Z"/></g>
<g><path style="opacity:0.22" fill="#abafb2" d="M 182.5,220.5 C 187.65,219.349 192.984,219.183 198.5,220C 197.956,220.717 197.289,221.217 196.5,221.5C 193.038,220.518 189.371,220.185 185.5,220.5C 184.5,220.5 183.5,220.5 182.5,220.5 Z"/></g>
<g><path style="opacity:0.995" fill="#434a54" d="M 219.5,225.5 C 219.5,224.167 219.5,222.833 219.5,221.5C 220.263,220.732 221.263,220.232 222.5,220C 240.833,219.333 259.167,219.333 277.5,220C 278.833,221.667 278.833,223.333 277.5,225C 258.011,226.462 238.677,226.629 219.5,225.5 Z"/></g>
<g><path style="opacity:0.025" fill="#f7f9fc" d="M 182.5,220.5 C 183.5,220.5 184.5,220.5 185.5,220.5C 183.63,225.532 182.963,230.865 183.5,236.5C 183.167,236.5 182.833,236.5 182.5,236.5C 182.5,231.167 182.5,225.833 182.5,220.5 Z"/></g>
<g><path style="opacity:0.447" fill="#acafb3" d="M 196.5,221.5 C 195.92,223.749 194.587,225.415 192.5,226.5C 193.08,224.251 194.413,222.585 196.5,221.5 Z"/></g>
<g><path style="opacity:0.682" fill="#93939c" d="M 219.5,221.5 C 219.5,222.833 219.5,224.167 219.5,225.5C 217.219,224.366 217.219,223.032 219.5,221.5 Z"/></g>
<g><path style="opacity:0.071" fill="#bec3cb" d="M 333.5,226.5 C 333.672,225.508 333.338,224.842 332.5,224.5C 332.783,223.711 333.283,223.044 334,222.5C 334.765,224.066 334.598,225.399 333.5,226.5 Z"/></g>
<g><path style="opacity:0.455" fill="#9b9da0" d="M 190.5,226.5 C 188.142,226.253 186.142,226.919 184.5,228.5C 184.414,227.504 184.748,226.671 185.5,226C 187.387,225.22 189.054,225.387 190.5,226.5 Z"/></g>
<g><path style="opacity:0.024" fill="#bdbdc0" d="M 184.5,229.5 C 185.833,230.167 186.833,231.167 187.5,232.5C 185.5,232.5 184.5,231.5 184.5,229.5 Z"/></g>
<g><path style="opacity:0.969" fill="#424a51" d="M 200.5,225.5 C 200.5,225.833 200.5,226.167 200.5,226.5C 197.805,229.526 195.138,232.526 192.5,235.5C 192.337,233.143 192.503,230.81 193,228.5C 193.324,230.569 194.158,230.902 195.5,229.5C 196.429,228.311 196.762,226.978 196.5,225.5C 197.833,225.5 199.167,225.5 200.5,225.5 Z"/></g>
<g><path style="opacity:0.999" fill="#373c42" d="M 219.5,229.5 C 238.836,229.333 258.17,229.5 277.5,230C 278.833,232 278.833,234 277.5,236C 258.523,237.488 239.523,237.822 220.5,237C 218.285,234.758 217.952,232.258 219.5,229.5 Z"/></g>
<g><path style="opacity:0.467" fill="#8c9194" d="M 182.5,236.5 C 182.833,236.5 183.167,236.5 183.5,236.5C 185.711,236.102 188.044,235.936 190.5,236C 189.29,234.961 188.29,233.794 187.5,232.5C 189.411,233.075 191.078,234.075 192.5,235.5C 195.287,236.477 198.287,236.81 201.5,236.5C 201.813,232.958 201.479,229.625 200.5,226.5C 200.5,226.167 200.5,225.833 200.5,225.5C 201.117,225.389 201.617,225.056 202,224.5C 202.499,228.821 202.666,233.154 202.5,237.5C 195.646,237.824 188.979,237.491 182.5,236.5 Z"/></g>
<g><path style="opacity:0.402" fill="#abadb0" d="M 207.5,240.5 C 207.586,241.496 207.252,242.329 206.5,243C 197.492,243.667 188.492,244.001 179.5,244C 178.944,243.617 178.611,243.117 178.5,242.5C 187.506,242.666 196.506,242.5 205.5,242C 206.044,241.283 206.711,240.783 207.5,240.5 Z"/></g>
<g><path style="opacity:1" fill="#09141c" d="M 354.5,245.5 C 354.5,281.833 354.5,318.167 354.5,354.5C 352.441,355.986 351.775,357.82 352.5,360C 351.833,360.667 351.167,360.667 350.5,360C 350.045,357.45 349.711,354.616 349.5,351.5C 349.5,317.5 349.5,283.5 349.5,249.5C 351.663,250.281 351.996,249.447 350.5,247C 351.701,246.097 352.535,244.931 353,243.5C 353.278,244.416 353.778,245.082 354.5,245.5 Z"/></g>
<g><path style="opacity:0.854" fill="#6e767a" d="M 149.5,148.5 C 149.714,216.011 149.38,283.678 148.5,351.5C 147.502,319.338 147.168,287.004 147.5,254.5C 147.333,220.165 147.5,185.832 148,151.5C 148.232,150.263 148.732,149.263 149.5,148.5 Z"/></g>
<g><path style="opacity:0.757" fill="#9fa2a0" d="M 207.5,249.5 C 205.5,249.5 203.5,249.5 201.5,249.5C 203.5,246.833 205.5,246.833 207.5,249.5 Z"/></g>
<g><path style="opacity:0.535" fill="#989b9e" d="M 318.5,204.5 C 319.497,221.992 319.83,239.659 319.5,257.5C 319.5,277.167 319.5,296.833 319.5,316.5C 317.901,316.768 316.568,316.434 315.5,315.5C 316.5,315.5 317.5,315.5 318.5,315.5C 317.773,278.465 317.773,241.465 318.5,204.5 Z"/></g>
<g><path style="opacity:0.803" fill="#565d60" d="M 354.5,152.5 C 354.833,152.5 355.167,152.5 355.5,152.5C 355.282,216.274 355.615,280.107 356.5,344C 356.269,348.706 355.603,353.206 354.5,357.5C 354.5,356.5 354.5,355.5 354.5,354.5C 354.5,318.167 354.5,281.833 354.5,245.5C 354.5,214.5 354.5,183.5 354.5,152.5 Z"/></g>
<g><path style="opacity:0.788" fill="#7e8185" d="M 294.5,223.5 C 294.5,252.833 294.5,282.167 294.5,311.5C 293.523,314.287 293.19,317.287 293.5,320.5C 293.384,288.847 293.384,257.181 293.5,225.5C 293.328,224.508 293.662,223.842 294.5,223.5 Z"/></g>
<g><path style="opacity:0.345" fill="#c2c6c9" d="M 231.5,255.5 C 247.035,254.364 262.702,254.697 278.5,256.5C 278.768,258.099 278.434,259.432 277.5,260.5C 277.5,259.5 277.5,258.5 277.5,257.5C 262.201,256.169 246.868,255.502 231.5,255.5 Z"/></g>
<g><path style="opacity:0.998" fill="#131921" d="M 230.5,255.5 C 230.833,255.5 231.167,255.5 231.5,255.5C 246.868,255.502 262.201,256.169 277.5,257.5C 277.5,258.5 277.5,259.5 277.5,260.5C 258.167,260.5 238.833,260.5 219.5,260.5C 219.5,259.5 219.5,258.5 219.5,257.5C 223.337,257.069 227.003,256.402 230.5,255.5 Z"/></g>
<g><path style="opacity:0.482" fill="#93959b" d="M 230.5,255.5 C 227.003,256.402 223.337,257.069 219.5,257.5C 219.5,258.5 219.5,259.5 219.5,260.5C 238.833,260.5 258.167,260.5 277.5,260.5C 275.71,261.997 273.544,262.664 271,262.5C 255.499,261.175 239.999,261.175 224.5,262.5C 220.342,263.038 218.176,261.372 218,257.5C 221.957,255.781 226.124,255.114 230.5,255.5 Z"/></g>
<g><path style="opacity:1" fill="#292f34" d="M 201.5,249.5 C 203.5,249.5 205.5,249.5 207.5,249.5C 208.658,258.657 208.824,267.991 208,277.5C 207.167,278.333 206.333,279.167 205.5,280C 196.833,280.667 188.167,280.667 179.5,280C 178.584,279.626 177.75,279.126 177,278.5C 175.391,269.602 175.058,260.602 176,251.5C 177.242,250.128 178.742,249.128 180.5,248.5C 187.442,249.464 194.442,249.797 201.5,249.5 Z M 200.5,256.5 C 201.194,261.805 201.528,267.138 201.5,272.5C 195.5,272.5 189.5,272.5 183.5,272.5C 183.802,269.941 183.468,267.607 182.5,265.5C 182.5,263.167 182.5,260.833 182.5,258.5C 188.208,256.614 194.208,255.947 200.5,256.5 Z"/></g>
<g><path style="opacity:0.08" fill="#ebebec" d="M 200.5,256.5 C 194.208,255.947 188.208,256.614 182.5,258.5C 182.5,257.5 182.5,256.5 182.5,255.5C 188.69,255.177 194.69,255.51 200.5,256.5 Z"/></g>
<g><path style="opacity:0.061" fill="#c6cbce" d="M 306.5,204.5 C 307.461,206.265 307.795,208.265 307.5,210.5C 307.5,242.5 307.5,274.5 307.5,306.5C 307.795,308.735 307.461,310.735 306.5,312.5C 306.5,276.833 306.5,241.167 306.5,205.5C 304.833,205.5 303.167,205.5 301.5,205.5C 300.84,242.515 301.506,279.182 303.5,315.5C 302.791,316.404 301.791,316.737 300.5,316.5C 300.5,294.833 300.5,273.167 300.5,251.5C 300.5,235.833 300.5,220.167 300.5,204.5C 302.5,204.5 304.5,204.5 306.5,204.5 Z"/></g>
<g><path style="opacity:0.631" fill="#74797b" d="M 200.5,256.5 C 201.222,256.918 201.722,257.584 202,258.5C 202.816,263.684 202.65,268.684 201.5,273.5C 201.5,273.167 201.5,272.833 201.5,272.5C 201.528,267.138 201.194,261.805 200.5,256.5 Z"/></g>
<g><path style="opacity:0.839" fill="#82858a" d="M 224.5,267.5 C 231.826,266.834 239.326,266.5 247,266.5C 257.383,266.283 267.55,266.95 277.5,268.5C 259.836,268.052 242.169,267.718 224.5,267.5 Z"/></g>
<g><path style="opacity:1" fill="#0b1319" d="M 161.5,231.5 C 161.667,270.168 161.5,308.835 161,347.5C 160.667,348.167 160.333,348.833 160,349.5C 160.257,346.624 159.257,343.957 157,341.5C 156.829,333.989 156.329,326.655 155.5,319.5C 155.5,301.5 155.5,283.5 155.5,265.5C 157.443,264.922 157.777,263.922 156.5,262.5C 157.315,249.545 157.815,236.545 158,223.5C 158.333,225.167 158.667,226.833 159,228.5C 159.333,227.833 159.667,227.167 160,226.5C 160.198,228.382 160.698,230.048 161.5,231.5 Z"/></g>
<g><path style="opacity:1" fill="#272c34" d="M 224.5,267.5 C 242.169,267.718 259.836,268.052 277.5,268.5C 278.807,270.223 278.807,272.057 277.5,274C 274.833,274.333 272.167,274.667 269.5,275C 257.637,275.178 245.804,275.344 234,275.5C 228.992,275.036 224.159,274.37 219.5,273.5C 219.5,271.833 219.5,270.167 219.5,268.5C 220.919,267.549 222.585,267.216 224.5,267.5 Z"/></g>
<g><path style="opacity:0.592" fill="#8e8e91" d="M 219.5,268.5 C 219.5,270.167 219.5,271.833 219.5,273.5C 217.078,271.714 217.078,270.048 219.5,268.5 Z"/></g>
<g><path style="opacity:1" fill="#0c161d" d="M 340.5,250.5 C 340.813,284.198 340.479,317.864 339.5,351.5C 337.955,352.23 337.122,353.563 337,355.5C 335.869,353.395 334.703,351.395 333.5,349.5C 333.5,349.167 333.5,348.833 333.5,348.5C 334.332,317.336 334.832,286.003 335,254.5C 336.113,252.408 336.279,250.075 335.5,247.5C 336.833,247.5 338.167,247.5 339.5,247.5C 339.263,248.791 339.596,249.791 340.5,250.5 Z"/></g>
<g><path style="opacity:0.176" fill="#dfe2e4" d="M 182.5,265.5 C 183.468,267.607 183.802,269.941 183.5,272.5C 189.5,272.5 195.5,272.5 201.5,272.5C 201.5,272.833 201.5,273.167 201.5,273.5C 195.167,273.5 188.833,273.5 182.5,273.5C 182.5,270.833 182.5,268.167 182.5,265.5 Z"/></g>
<g><path style="opacity:0.725" fill="#6d7377" d="M 347.5,150.5 C 348.167,152.167 348.833,153.833 349.5,155.5C 349.5,186.833 349.5,218.167 349.5,249.5C 349.5,283.5 349.5,317.5 349.5,351.5C 349.167,351.5 348.833,351.5 348.5,351.5C 348.575,284.421 348.242,217.421 347.5,150.5 Z"/></g>
<g><path style="opacity:0.431" fill="#a9abad" d="M 215.5,280.5 C 213.435,280.517 211.435,280.85 209.5,281.5C 210.134,280.053 211.301,279.387 213,279.5C 214.07,279.528 214.903,279.861 215.5,280.5 Z"/></g>
<g><path style="opacity:0.999" fill="#0f1821" d="M 312.5,224.5 C 312.5,250.833 312.5,277.167 312.5,303.5C 311.842,304.398 311.176,305.398 310.5,306.5C 309.473,305.209 308.473,305.209 307.5,306.5C 307.5,274.5 307.5,242.5 307.5,210.5C 308.268,209.737 308.768,208.737 309,207.5C 309.414,207.957 309.914,208.291 310.5,208.5C 311.167,213.985 311.833,219.319 312.5,224.5 Z"/></g>
<g><path style="opacity:0.214" fill="#caced2" d="M 312.5,204.5 C 313.167,204.5 313.833,204.5 314.5,204.5C 313.507,240.761 313.174,277.094 313.5,313.5C 312.521,310.375 312.187,307.042 312.5,303.5C 312.5,277.167 312.5,250.833 312.5,224.5C 312.5,217.833 312.5,211.167 312.5,204.5 Z"/></g>
<g><path style="opacity:1" fill="#1e242a" d="M 215.5,280.5 C 216.598,281.601 216.765,282.934 216,284.5C 212.962,287.203 210.295,290.203 208,293.5C 208.514,300.794 208.514,308.128 208,315.5C 207.292,316.381 206.458,317.047 205.5,317.5C 196.114,317.78 186.78,317.447 177.5,316.5C 176.883,316.389 176.383,316.056 176,315.5C 175.195,306.452 175.361,297.452 176.5,288.5C 177.025,287.808 177.692,287.308 178.5,287C 186.833,286.667 195.167,286.333 203.5,286C 205.351,284.248 207.351,282.748 209.5,281.5C 211.435,280.85 213.435,280.517 215.5,280.5 Z M 182.5,293.5 C 187.619,292.897 192.285,293.564 196.5,295.5C 194.833,296.5 193.5,297.833 192.5,299.5C 191.193,298.847 189.86,298.18 188.5,297.5C 187.893,297.624 187.56,297.957 187.5,298.5C 186.167,298.5 185.5,299.167 185.5,300.5C 184.07,302.455 184.403,304.121 186.5,305.5C 187.854,308.698 190.187,309.864 193.5,309C 195.668,306.002 198.001,303.169 200.5,300.5C 201.482,303.962 201.815,307.629 201.5,311.5C 197.5,311.5 193.5,311.5 189.5,311.5C 187.735,310.539 185.735,310.205 183.5,310.5C 183.768,308.901 183.434,307.568 182.5,306.5C 183.833,302.167 183.833,297.833 182.5,293.5 Z"/></g>
<g><path style="opacity:0.231" fill="#c2c4ca" d="M 182.5,293.5 C 182.5,293.167 182.5,292.833 182.5,292.5C 187.5,292.5 192.5,292.5 197.5,292.5C 197.5,293.5 197.5,294.5 197.5,295.5C 197.167,295.5 196.833,295.5 196.5,295.5C 192.285,293.564 187.619,292.897 182.5,293.5 Z"/></g>
<g><path style="opacity:0.298" fill="#a0a4a9" d="M 328.5,227.5 C 327.183,241.946 326.516,256.612 326.5,271.5C 326.535,287.563 326.869,303.396 327.5,319C 326.915,320.302 326.249,321.469 325.5,322.5C 325.5,310.833 325.5,299.167 325.5,287.5C 325.5,267.5 325.5,247.5 325.5,227.5C 326.5,227.5 327.5,227.5 328.5,227.5 Z"/></g>
<g><path style="opacity:0.082" fill="#d9dadd" d="M 220.5,292.5 C 219.4,293.605 218.733,294.938 218.5,296.5C 217.024,294.291 217.691,292.958 220.5,292.5 Z"/></g>
<g><path style="opacity:0.686" fill="#989ba1" d="M 279.5,293.5 C 282.167,294.833 282.167,296.167 279.5,297.5C 279.5,296.167 279.5,294.833 279.5,293.5 Z"/></g>
<g><path style="opacity:1" fill="#0d161e" d="M 147.5,254.5 C 147.168,287.004 147.502,319.338 148.5,351.5C 148.5,351.833 148.5,352.167 148.5,352.5C 148.777,355.448 148.444,358.281 147.5,361C 150.709,364.993 150.042,366.493 145.5,365.5C 143.415,363.316 142.415,360.649 142.5,357.5C 142.5,324.167 142.5,290.833 142.5,257.5C 143.169,252.604 144.002,247.604 145,242.5C 145.333,246.167 145.667,249.833 146,253.5C 146.383,254.056 146.883,254.389 147.5,254.5 Z"/></g>
<g><path style="opacity:1" fill="#232a34" d="M 279.5,293.5 C 279.5,294.833 279.5,296.167 279.5,297.5C 279.389,298.117 279.056,298.617 278.5,299C 275.633,299.801 272.966,299.634 270.5,298.5C 253.265,297.82 235.931,297.154 218.5,296.5C 218.733,294.938 219.4,293.605 220.5,292.5C 240.312,291.265 259.979,291.599 279.5,293.5 Z"/></g>
<g><path style="opacity:0.999" fill="#0c151e" d="M 325.5,287.5 C 325.5,299.167 325.5,310.833 325.5,322.5C 325.5,323.167 325.167,323.5 324.5,323.5C 323.603,324.598 322.77,324.598 322,323.5C 321.508,324.549 321.674,325.549 322.5,326.5C 319.83,328.09 318.163,327.423 317.5,324.5C 318.043,324.44 318.376,324.107 318.5,323.5C 315.675,322.745 313.009,321.745 310.5,320.5C 309.199,319.36 308.032,318.027 307,316.5C 306.257,318.645 305.424,318.811 304.5,317C 305.414,315.594 306.08,314.094 306.5,312.5C 307.461,310.735 307.795,308.735 307.5,306.5C 308.473,305.209 309.473,305.209 310.5,306.5C 311.176,305.398 311.842,304.398 312.5,303.5C 312.187,307.042 312.521,310.375 313.5,313.5C 314.5,313.833 315.167,314.5 315.5,315.5C 316.568,316.434 317.901,316.768 319.5,316.5C 319.5,296.833 319.5,277.167 319.5,257.5C 320.467,256.194 321.801,255.527 323.5,255.5C 324.678,264.223 324.678,272.89 323.5,281.5C 323.539,283.952 324.206,285.952 325.5,287.5 Z"/></g>
<g><path style="opacity:0.49" fill="#7e868b" d="M 218.5,296.5 C 235.931,297.154 253.265,297.82 270.5,298.5C 252.801,299.153 235.468,298.486 218.5,296.5 Z"/></g>
<g><path style="opacity:0.698" fill="#5b5f65" d="M 142.5,148.5 C 142.5,184.833 142.5,221.167 142.5,257.5C 142.5,290.833 142.5,324.167 142.5,357.5C 141.513,352.187 140.846,346.687 140.5,341C 141.468,283.714 141.468,226.381 140.5,169C 141.077,162.01 141.743,155.177 142.5,148.5 Z"/></g>
<g><path style="opacity:0.616" fill="#8e8f95" d="M 182.5,292.5 C 182.5,292.833 182.5,293.167 182.5,293.5C 183.833,297.833 183.833,302.167 182.5,306.5C 181.167,301.833 181.167,297.167 182.5,292.5 Z"/></g>
<g><path style="opacity:0.231" fill="#c5c7ce" d="M 187.5,298.5 C 187.56,297.957 187.893,297.624 188.5,297.5C 189.86,298.18 191.193,298.847 192.5,299.5C 192.44,300.043 192.107,300.376 191.5,300.5C 190.14,299.82 188.807,299.153 187.5,298.5 Z"/></g>
<g><path style="opacity:0.537" fill="#a8aaad" d="M 185.5,300.5 C 185.629,302.216 185.962,303.883 186.5,305.5C 184.403,304.121 184.07,302.455 185.5,300.5 Z"/></g>
<g><path style="opacity:0.588" fill="#72777c" d="M 201.5,311.5 C 201.815,307.629 201.482,303.962 200.5,300.5C 200.5,300.167 200.5,299.833 200.5,299.5C 201.117,299.389 201.617,299.056 202,298.5C 202.814,303.02 202.647,307.354 201.5,311.5 Z"/></g>
<g><path style="opacity:1" fill="#232a33" d="M 196.5,295.5 C 196.833,295.5 197.167,295.5 197.5,295.5C 197.088,297.973 198.088,299.306 200.5,299.5C 200.5,299.833 200.5,300.167 200.5,300.5C 198.001,303.169 195.668,306.002 193.5,309C 190.187,309.864 187.854,308.698 186.5,305.5C 185.962,303.883 185.629,302.216 185.5,300.5C 185.5,299.167 186.167,298.5 187.5,298.5C 188.807,299.153 190.14,299.82 191.5,300.5C 192.107,300.376 192.44,300.043 192.5,299.5C 193.5,297.833 194.833,296.5 196.5,295.5 Z"/></g>
<g><path style="opacity:1" fill="#393d42" d="M 276.5,305.5 C 276.5,306.833 276.5,308.167 276.5,309.5C 276.082,310.222 275.416,310.722 274.5,311C 256.167,311.667 237.833,311.667 219.5,311C 217.78,307.914 218.447,305.581 221.5,304C 237.5,303.333 253.5,303.333 269.5,304C 271.92,304.29 274.254,304.79 276.5,305.5 Z"/></g>
<g><path style="opacity:0.549" fill="#aaaaab" d="M 276.5,305.5 C 278.781,307.032 278.781,308.366 276.5,309.5C 276.5,308.167 276.5,306.833 276.5,305.5 Z"/></g>
<g><path style="opacity:0.182" fill="#bfc4c8" d="M 340.5,233.5 C 341.665,271.998 341.831,310.664 341,349.5C 340.768,350.737 340.268,351.737 339.5,352.5C 339.5,352.167 339.5,351.833 339.5,351.5C 340.479,317.864 340.813,284.198 340.5,250.5C 340.5,244.833 340.5,239.167 340.5,233.5 Z"/></g>
<g><path style="opacity:0.014" fill="#f8fafb" d="M 182.5,306.5 C 183.434,307.568 183.768,308.901 183.5,310.5C 185.735,310.205 187.735,310.539 189.5,311.5C 187.167,311.5 184.833,311.5 182.5,311.5C 182.5,309.833 182.5,308.167 182.5,306.5 Z"/></g>
<g><path style="opacity:0.159" fill="#babfc1" d="M 177.5,316.5 C 186.78,317.447 196.114,317.78 205.5,317.5C 196.676,318.657 187.676,318.824 178.5,318C 177.944,317.617 177.611,317.117 177.5,316.5 Z"/></g>
<g><path style="opacity:0.69" fill="#8c8f96" d="M 310.5,320.5 C 313.009,321.745 315.675,322.745 318.5,323.5C 318.376,324.107 318.043,324.44 317.5,324.5C 317.167,323.167 316.833,323.167 316.5,324.5C 313.853,324.071 311.853,322.738 310.5,320.5 Z"/></g>
<g><path style="opacity:0.145" fill="#babec4" d="M 305.5,322.5 C 304.449,323.222 303.782,324.222 303.5,325.5C 302.596,324.791 302.263,323.791 302.5,322.5C 303.5,322.5 304.5,322.5 305.5,322.5 Z"/></g>
<g><path style="opacity:1" fill="#5a6468" d="M 324.5,323.5 C 323.624,327.582 321.957,331.249 319.5,334.5C 319.5,332.5 319.5,330.5 319.5,328.5C 317.446,328.365 315.779,329.032 314.5,330.5C 314.704,328.315 315.37,326.315 316.5,324.5C 316.833,324.5 317.167,324.5 317.5,324.5C 318.163,327.423 319.83,328.09 322.5,326.5C 321.674,325.549 321.508,324.549 322,323.5C 322.77,324.598 323.603,324.598 324.5,323.5 Z"/></g>
<g><path style="opacity:1" fill="#64676b" d="M 297.5,328.5 C 298.473,328.987 299.473,329.487 300.5,330C 299.663,331.011 299.33,332.178 299.5,333.5C 298.463,332.07 297.796,330.403 297.5,328.5 Z"/></g>
<g><path style="opacity:0.365" fill="#afb4bc" d="M 172.5,336.5 C 171.532,338.607 171.198,340.941 171.5,343.5C 170.2,340.976 170.2,338.309 171.5,335.5C 172.107,335.624 172.44,335.957 172.5,336.5 Z"/></g>
<g><path style="opacity:1" fill="#1c2328" d="M 300.5,251.5 C 300.5,273.167 300.5,294.833 300.5,316.5C 301.791,316.737 302.791,316.404 303.5,315.5C 304.167,314.167 305.167,313.167 306.5,312.5C 306.08,314.094 305.414,315.594 304.5,317C 305.424,318.811 306.257,318.645 307,316.5C 308.032,318.027 309.199,319.36 310.5,320.5C 308.486,320.392 306.82,321.058 305.5,322.5C 304.5,322.5 303.5,322.5 302.5,322.5C 302.263,323.791 302.596,324.791 303.5,325.5C 305.341,327.849 306.674,330.515 307.5,333.5C 307.97,334.693 308.97,335.36 310.5,335.5C 312.03,335.36 313.03,334.693 313.5,333.5C 313.263,332.209 313.596,331.209 314.5,330.5C 315.779,329.032 317.446,328.365 319.5,328.5C 319.5,330.5 319.5,332.5 319.5,334.5C 318.533,335.806 317.199,336.473 315.5,336.5C 315.5,338.5 315.5,340.5 315.5,342.5C 314.453,345.596 313.12,348.596 311.5,351.5C 310.635,352.583 309.635,352.749 308.5,352C 304.832,346.164 301.832,339.997 299.5,333.5C 299.33,332.178 299.663,331.011 300.5,330C 299.473,329.487 298.473,328.987 297.5,328.5C 295.659,326.151 294.326,323.485 293.5,320.5C 293.19,317.287 293.523,314.287 294.5,311.5C 295.304,313.189 296.304,314.855 297.5,316.5C 298.192,315.975 298.692,315.308 299,314.5C 299.168,293.329 299.668,272.329 300.5,251.5 Z"/></g>
<g><path style="opacity:0.337" fill="#cacacd" d="M 307.5,333.5 C 309.5,334.833 311.5,334.833 313.5,333.5C 313.03,334.693 312.03,335.36 310.5,335.5C 308.97,335.36 307.97,334.693 307.5,333.5 Z"/></g>
<g><path style="opacity:0.157" fill="#b7babf" d="M 172.5,336.5 C 173.906,336.973 174.573,337.973 174.5,339.5C 173.094,339.027 172.427,338.027 172.5,336.5 Z"/></g>
<g><path style="opacity:1" fill="#545a5e" d="M 319.5,334.5 C 319.206,337.754 317.873,340.421 315.5,342.5C 315.5,340.5 315.5,338.5 315.5,336.5C 317.199,336.473 318.533,335.806 319.5,334.5 Z"/></g>
<g><path style="opacity:1" fill="#35383e" d="M 168.5,341.5 C 168.433,343.401 168.767,345.234 169.5,347C 168.87,348.31 167.87,349.144 166.5,349.5C 163.64,342.478 162.974,335.145 164.5,327.5C 165.833,327.5 167.167,327.5 168.5,327.5C 168.5,332.167 168.5,336.833 168.5,341.5 Z"/></g>
<g><path style="opacity:0.506" fill="#898c94" d="M 176.5,344.5 C 177.906,344.973 178.573,345.973 178.5,347.5C 177.094,347.027 176.427,346.027 176.5,344.5 Z"/></g>
<g><path style="opacity:1" fill="#272b33" d="M 172.5,336.5 C 172.427,338.027 173.094,339.027 174.5,339.5C 175.441,341.05 176.107,342.716 176.5,344.5C 176.427,346.027 177.094,347.027 178.5,347.5C 182.073,349.784 185.74,351.784 189.5,353.5C 185.967,354.715 182.301,354.715 178.5,353.5C 177.5,351.833 176.167,350.5 174.5,349.5C 173.833,349.167 173.167,348.833 172.5,348.5C 172.672,347.508 172.338,346.842 171.5,346.5C 171.5,345.5 171.5,344.5 171.5,343.5C 171.198,340.941 171.532,338.607 172.5,336.5 Z"/></g>
<g><path style="opacity:0.008" fill="#d5d6d8" d="M 155.5,345.5 C 156.924,347.515 157.59,349.848 157.5,352.5C 156.076,350.485 155.41,348.152 155.5,345.5 Z"/></g>
<g><path style="opacity:0.008" fill="#bec2c7" d="M 174.5,349.5 C 176.167,350.5 177.5,351.833 178.5,353.5C 177.833,353.5 177.167,353.5 176.5,353.5C 176.5,352.833 176.167,352.5 175.5,352.5C 175.5,351.833 175.167,351.5 174.5,351.5C 174.5,350.833 174.5,350.167 174.5,349.5 Z"/></g>
<g><path style="opacity:0.997" fill="#4c5058" d="M 168.5,341.5 C 169.313,343.261 170.313,344.928 171.5,346.5C 171.328,347.492 171.662,348.158 172.5,348.5C 172.427,350.027 173.094,351.027 174.5,351.5C 175.167,351.5 175.5,351.833 175.5,352.5C 176.167,352.5 176.5,352.833 176.5,353.5C 176.833,354.167 177.167,354.833 177.5,355.5C 173.057,353.934 172.057,354.934 174.5,358.5C 170.689,356.564 168.022,353.564 166.5,349.5C 167.87,349.144 168.87,348.31 169.5,347C 168.767,345.234 168.433,343.401 168.5,341.5 Z"/></g>
<g><path style="opacity:1" fill="#3e484c" d="M 333.5,349.5 C 334.703,351.395 335.869,353.395 337,355.5C 337.122,353.563 337.955,352.23 339.5,351.5C 339.5,351.833 339.5,352.167 339.5,352.5C 339.002,355.326 337.669,357.66 335.5,359.5C 336.109,356.122 334.776,354.122 331.5,353.5C 331.66,351.847 332.326,350.514 333.5,349.5 Z"/></g>
<g><path style="opacity:0.845" fill="#888b8e" d="M 178.5,353.5 C 182.301,354.715 185.967,354.715 189.5,353.5C 191.379,353.393 191.712,353.893 190.5,355C 187.025,356.118 183.359,356.285 179.5,355.5C 179.167,354.833 178.833,354.167 178.5,353.5 Z"/></g>
<g><path style="opacity:0.482" fill="#b0b5b9" d="M 165.5,353.5 C 167.833,355.167 169.833,357.167 171.5,359.5C 168.5,358.5 166.5,356.5 165.5,353.5 Z"/></g>
<g><path style="opacity:0.431" fill="#939ea2" d="M 331.5,353.5 C 331.573,355.027 330.906,356.027 329.5,356.5C 329.427,354.973 330.094,353.973 331.5,353.5 Z"/></g>
<g><path style="opacity:0.055" fill="#ccced0" d="M 182.5,357.5 C 189.2,357.17 195.866,357.503 202.5,358.5C 202.376,359.107 202.043,359.44 201.5,359.5C 195.167,358.833 188.833,358.167 182.5,357.5 Z"/></g>
<g><path style="opacity:0.863" fill="#7d8183" d="M 238.5,357.5 C 254.368,356.09 270.368,356.257 286.5,358C 287.712,359.107 287.379,359.607 285.5,359.5C 285.167,359.5 284.833,359.5 284.5,359.5C 281.695,358.681 278.695,358.181 275.5,358C 263.505,357.5 251.505,357.333 239.5,357.5C 239.167,357.5 238.833,357.5 238.5,357.5 Z"/></g>
<g><path style="opacity:0.89" fill="#8d9295" d="M 348.5,351.5 C 348.663,353.857 348.497,356.19 348,358.5C 347.617,359.056 347.117,359.389 346.5,359.5C 346.802,356.627 347.469,353.961 348.5,351.5 Z"/></g>
<g><path style="opacity:0.971" fill="#40424c" d="M 238.5,357.5 C 238.833,357.5 239.167,357.5 239.5,357.5C 238.449,358.222 237.782,359.222 237.5,360.5C 235.833,360.5 234.167,360.5 232.5,360.5C 230.058,360.646 229.391,359.813 230.5,358C 233.146,357.503 235.813,357.336 238.5,357.5 Z"/></g>
<g><path style="opacity:1" fill="#171a23" d="M 239.5,357.5 C 251.505,357.333 263.505,357.5 275.5,358C 278.695,358.181 281.695,358.681 284.5,359.5C 268.852,360.383 253.186,360.716 237.5,360.5C 237.782,359.222 238.449,358.222 239.5,357.5 Z"/></g>
<g><path style="opacity:0.318" fill="#adadb2" d="M 174.5,358.5 C 176.027,358.427 177.027,359.094 177.5,360.5C 175.973,360.573 174.973,359.906 174.5,358.5 Z"/></g>
<g><path style="opacity:0.986" fill="#1c1e22" d="M 177.5,355.5 C 178.167,355.5 178.833,355.5 179.5,355.5C 180.29,356.401 181.29,357.068 182.5,357.5C 188.833,358.167 195.167,358.833 201.5,359.5C 200.791,360.404 199.791,360.737 198.5,360.5C 191.486,361.636 184.486,361.636 177.5,360.5C 177.027,359.094 176.027,358.427 174.5,358.5C 172.057,354.934 173.057,353.934 177.5,355.5 Z"/></g>
<g><path style="opacity:0.471" fill="#b4b9bc" d="M 327.5,358.5 C 327.027,359.906 326.027,360.573 324.5,360.5C 324.973,359.094 325.973,358.427 327.5,358.5 Z"/></g>
<g><path style="opacity:1" fill="#41484e" d="M 335.5,359.5 C 333.767,363.565 330.767,366.232 326.5,367.5C 327.09,366.234 327.59,364.901 328,363.5C 328.718,364.451 329.551,364.617 330.5,364C 329.62,362.644 329.286,361.144 329.5,359.5C 331.611,358.62 333.611,358.62 335.5,359.5 Z"/></g>
<g><path style="opacity:0.882" fill="#767c82" d="M 149.5,356.5 C 150.458,358.302 151.125,360.302 151.5,362.5C 149.72,361.01 149.054,359.01 149.5,356.5 Z"/></g>
<g><path style="opacity:0.156" fill="#d8d9df" d="M 284.5,359.5 C 284.833,359.5 285.167,359.5 285.5,359.5C 283.369,360.314 281.036,360.814 278.5,361C 262.994,361.828 247.661,361.661 232.5,360.5C 234.167,360.5 235.833,360.5 237.5,360.5C 253.186,360.716 268.852,360.383 284.5,359.5 Z"/></g>
<g><path style="opacity:0.125" fill="#c1c3c9" d="M 177.5,361.5 C 177.5,361.167 177.5,360.833 177.5,360.5C 184.486,361.636 191.486,361.636 198.5,360.5C 191.717,362.711 184.717,363.044 177.5,361.5 Z"/></g>
<g><path style="opacity:0.275" fill="#b5bbc1" d="M 174.5,361.5 C 175.5,361.5 176.5,361.5 177.5,361.5C 178.167,362.167 178.833,362.833 179.5,363.5C 177.447,363.598 175.78,362.931 174.5,361.5 Z"/></g>
<g><path style="opacity:0.475" fill="#8d9295" d="M 320.5,362.5 C 319.391,363.29 318.058,363.79 316.5,364C 300.17,364.5 283.837,364.667 267.5,364.5C 237.995,364.831 208.662,364.498 179.5,363.5C 226.84,363.686 273.84,363.353 320.5,362.5 Z"/></g>
<g><path style="opacity:0.322" fill="#b8bcbe" d="M 151.5,362.5 C 152.906,362.973 153.573,363.973 153.5,365.5C 152.094,365.027 151.427,364.027 151.5,362.5 Z"/></g>
<g><path style="opacity:0.999" fill="#343a42" d="M 162.5,160.5 C 162.333,221.834 162.5,283.168 163,344.5C 163.739,347.546 164.572,350.546 165.5,353.5C 166.5,356.5 168.5,358.5 171.5,359.5C 172.71,359.932 173.71,360.599 174.5,361.5C 175.78,362.931 177.447,363.598 179.5,363.5C 208.662,364.498 237.995,364.831 267.5,364.5C 252.672,365.331 237.672,365.831 222.5,366C 221.376,366.249 220.376,366.749 219.5,367.5C 219.846,368.696 220.346,368.696 221,367.5C 227.932,368.15 234.766,368.817 241.5,369.5C 219.134,369.802 196.8,369.468 174.5,368.5C 174.574,364.839 173.574,364.172 171.5,366.5C 171.264,365.753 170.93,364.92 170.5,364C 168.82,364.771 167.153,364.605 165.5,363.5C 161.613,360.728 158.946,357.061 157.5,352.5C 157.59,349.848 156.924,347.515 155.5,345.5C 155.5,345.167 155.5,344.833 155.5,344.5C 155.5,336.167 155.5,327.833 155.5,319.5C 156.329,326.655 156.829,333.989 157,341.5C 159.257,343.957 160.257,346.624 160,349.5C 160.333,348.833 160.667,348.167 161,347.5C 161.5,308.835 161.667,270.168 161.5,231.5C 161.169,207.661 161.502,183.994 162.5,160.5 Z"/></g>
<g><path style="opacity:1" fill="#111821" d="M 331.5,353.5 C 334.776,354.122 336.109,356.122 335.5,359.5C 333.611,358.62 331.611,358.62 329.5,359.5C 329.286,361.144 329.62,362.644 330.5,364C 329.551,364.617 328.718,364.451 328,363.5C 327.59,364.901 327.09,366.234 326.5,367.5C 315.7,370.204 304.7,371.204 293.5,370.5C 276.341,369.503 259.008,369.17 241.5,369.5C 234.766,368.817 227.932,368.15 221,367.5C 220.346,368.696 219.846,368.696 219.5,367.5C 220.376,366.749 221.376,366.249 222.5,366C 237.672,365.831 252.672,365.331 267.5,364.5C 283.837,364.667 300.17,364.5 316.5,364C 318.058,363.79 319.391,363.29 320.5,362.5C 321.514,361.326 322.847,360.66 324.5,360.5C 326.027,360.573 327.027,359.906 327.5,358.5C 327.833,357.5 328.5,356.833 329.5,356.5C 330.906,356.027 331.573,355.027 331.5,353.5 Z"/></g>
<g><path style="opacity:0.18" fill="#c8cbcf" d="M 345.5,361.5 C 345.771,363.38 345.104,364.713 343.5,365.5C 343.66,363.847 344.326,362.514 345.5,361.5 Z"/></g>
<g><path style="opacity:0.29" fill="#bdbfc3" d="M 343.5,365.5 C 343.573,367.027 342.906,368.027 341.5,368.5C 341.427,366.973 342.094,365.973 343.5,365.5 Z"/></g>
<g><path style="opacity:0.431" fill="#b3b5b8" d="M 153.5,365.5 C 155.833,367.167 157.833,369.167 159.5,371.5C 156.5,370.5 154.5,368.5 153.5,365.5 Z"/></g>
<g><path style="opacity:0.843" fill="#3c3f46" d="M 165.5,363.5 C 167.153,364.605 168.82,364.771 170.5,364C 170.93,364.92 171.264,365.753 171.5,366.5C 173.574,364.172 174.574,364.839 174.5,368.5C 196.8,369.468 219.134,369.802 241.5,369.5C 259.008,369.17 276.341,369.503 293.5,370.5C 255.833,370.5 218.167,370.5 180.5,370.5C 174.571,370.034 169.571,367.701 165.5,363.5 Z"/></g>
<g><path style="opacity:0.017" fill="#f2f5f9" d="M 326.5,367.5 C 323.865,369.328 320.865,370.495 317.5,371C 271.665,371.832 225.998,371.665 180.5,370.5C 218.167,370.5 255.833,370.5 293.5,370.5C 304.7,371.204 315.7,370.204 326.5,367.5 Z"/></g>
<g><path style="opacity:0.671" fill="#979899" d="M 338.5,371.5 C 338.027,372.906 337.027,373.573 335.5,373.5C 335.973,372.094 336.973,371.427 338.5,371.5 Z"/></g>
<g><path style="opacity:0.545" fill="#afb1b2" d="M 150.5,373.5 C 152.404,373.738 153.738,374.738 154.5,376.5C 152.596,376.262 151.262,375.262 150.5,373.5 Z"/></g>
<g><path style="opacity:0.996" fill="#24282d" d="M 148.5,352.5 C 149.434,353.568 149.768,354.901 149.5,356.5C 149.054,359.01 149.72,361.01 151.5,362.5C 151.427,364.027 152.094,365.027 153.5,365.5C 154.5,368.5 156.5,370.5 159.5,371.5C 163.297,374.065 167.297,376.065 171.5,377.5C 169.396,377.201 167.396,377.534 165.5,378.5C 166.833,379.5 166.833,380.5 165.5,381.5C 167.184,382.15 168.517,383.15 169.5,384.5C 166.088,383.958 163.088,382.625 160.5,380.5C 160.027,379.094 159.027,378.427 157.5,378.5C 157.027,377.094 156.027,376.427 154.5,376.5C 153.738,374.738 152.404,373.738 150.5,373.5C 148.015,371.348 146.349,368.681 145.5,365.5C 150.042,366.493 150.709,364.993 147.5,361C 148.444,358.281 148.777,355.448 148.5,352.5 Z"/></g>
<g><path style="opacity:0.745" fill="#8a8d90" d="M 335.5,373.5 C 335.027,374.906 334.027,375.573 332.5,375.5C 332.973,374.094 333.973,373.427 335.5,373.5 Z"/></g>
<g><path style="opacity:0.871" fill="#898d91" d="M 331.5,375.5 C 328.679,377.712 325.345,378.712 321.5,378.5C 324.642,377.21 327.975,376.21 331.5,375.5 Z"/></g>
<g><path style="opacity:0.525" fill="#848790" d="M 154.5,376.5 C 156.027,376.427 157.027,377.094 157.5,378.5C 155.973,378.573 154.973,377.906 154.5,376.5 Z"/></g>
<g><path style="opacity:0.467" fill="#888a8d" d="M 157.5,378.5 C 159.027,378.427 160.027,379.094 160.5,380.5C 158.973,380.573 157.973,379.906 157.5,378.5 Z"/></g>
<g><path style="opacity:1" fill="#2e333a" d="M 348.5,351.5 C 348.833,351.5 349.167,351.5 349.5,351.5C 349.711,354.616 350.045,357.45 350.5,360C 351.167,360.667 351.833,360.667 352.5,360C 351.775,357.82 352.441,355.986 354.5,354.5C 354.5,355.5 354.5,356.5 354.5,357.5C 351.435,369.567 344.101,377.9 332.5,382.5C 330.447,382.402 328.78,383.069 327.5,384.5C 324.587,385.241 321.587,385.741 318.5,386C 271.5,386.667 224.5,386.667 177.5,386C 174.635,385.817 171.969,385.317 169.5,384.5C 168.517,383.15 167.184,382.15 165.5,381.5C 166.833,380.5 166.833,379.5 165.5,378.5C 167.396,377.534 169.396,377.201 171.5,377.5C 174.881,377.46 178.214,377.793 181.5,378.5C 191.084,379.473 200.75,379.806 210.5,379.5C 244.337,379.832 278.004,379.498 311.5,378.5C 314.668,377.556 318.001,377.556 321.5,378.5C 325.345,378.712 328.679,377.712 331.5,375.5C 331.833,375.5 332.167,375.5 332.5,375.5C 334.027,375.573 335.027,374.906 335.5,373.5C 337.027,373.573 338.027,372.906 338.5,371.5C 339.167,370.167 340.167,369.167 341.5,368.5C 342.906,368.027 343.573,367.027 343.5,365.5C 345.104,364.713 345.771,363.38 345.5,361.5C 345.328,360.508 345.662,359.842 346.5,359.5C 347.117,359.389 347.617,359.056 348,358.5C 348.497,356.19 348.663,353.857 348.5,351.5 Z"/></g>
<g><path style="opacity:0.46" fill="#7e8286" d="M 311.5,378.5 C 278.004,379.498 244.337,379.832 210.5,379.5C 210.5,379.167 210.5,378.833 210.5,378.5C 244.227,378.364 277.894,378.364 311.5,378.5 Z"/></g>
<g><path style="opacity:0.627" fill="#818488" d="M 181.5,378.5 C 190.842,377.527 200.508,377.527 210.5,378.5C 210.5,378.833 210.5,379.167 210.5,379.5C 200.75,379.806 191.084,379.473 181.5,378.5 Z"/></g>
<g><path style="opacity:1" fill="#0c141e" d="M 225.5,380.5 C 227.28,381.755 229.113,381.755 231,380.5C 231.945,380.905 232.612,381.572 233,382.5C 234.333,382.5 235.667,382.5 237,382.5C 237.333,381.833 237.667,381.167 238,380.5C 265.967,380.566 292.634,380.566 318,380.5C 318.5,381.667 319.333,382.5 320.5,383C 287.585,384.652 254.585,384.985 221.5,384C 222.591,382.45 223.924,381.283 225.5,380.5 Z"/></g>
<g><path style="opacity:0.071" fill="#cecfd2" d="M 332.5,382.5 C 331.22,383.931 329.553,384.598 327.5,384.5C 328.78,383.069 330.447,382.402 332.5,382.5 Z"/></g>
<g><path style="opacity:0.825" fill="#7c7f84" d="M 307.5,408.5 C 268.5,408.5 229.5,408.5 190.5,408.5C 200.12,406.978 209.953,406.311 220,406.5C 247.849,406.651 276.016,406.817 304.5,407C 305.737,407.232 306.737,407.732 307.5,408.5 Z"/></g>
<g><path style="opacity:0.992" fill="#414245" d="M 152.5,407.5 C 158.113,406.079 160.28,408.079 159,413.5C 155.865,414.799 152.699,414.799 149.5,413.5C 147.86,410.147 148.86,408.147 152.5,407.5 Z"/></g>
<g><path style="opacity:0.557" fill="#89898d" d="M 175.5,409.5 C 176.946,408.387 178.613,408.22 180.5,409C 181.791,410.292 181.791,411.458 180.5,412.5C 179.952,409.916 178.285,408.916 175.5,409.5 Z"/></g>
<g><path style="opacity:0.997" fill="#1d2127" d="M 190.5,408.5 C 229.5,408.5 268.5,408.5 307.5,408.5C 307.5,409.833 307.5,411.167 307.5,412.5C 306.942,413.79 305.942,414.623 304.5,415C 266.833,415.667 229.167,415.667 191.5,415C 186.803,413.183 186.469,411.017 190.5,408.5 Z"/></g>
<g><path style="opacity:0.997" fill="#0d0c10" d="M 175.5,409.5 C 178.285,408.916 179.952,409.916 180.5,412.5C 180.5,413.167 180.167,413.5 179.5,413.5C 176.5,413.833 175.167,412.5 175.5,409.5 Z"/></g>
<g><path style="opacity:0.553" fill="#a0a0a6" d="M 307.5,408.5 C 309.781,410.032 309.781,411.366 307.5,412.5C 307.5,411.167 307.5,409.833 307.5,408.5 Z"/></g>
<g><path style="opacity:0.996" fill="#454449" d="M 316.5,407.5 C 319.127,407.293 320.793,408.46 321.5,411C 318.753,415.483 316.086,415.483 313.5,411C 314.365,409.641 315.365,408.474 316.5,407.5 Z"/></g>
<g><path style="opacity:1" fill="#3b3b3d" d="M 344.5,409.5 C 344.567,410.959 344.234,412.292 343.5,413.5C 340.927,414.555 338.261,414.722 335.5,414C 332.434,410.002 333.601,407.836 339,407.5C 341.111,407.701 342.945,408.367 344.5,409.5 Z"/></g>
<g><path style="opacity:0.004" fill="#c5c5c6" d="M 344.5,409.5 C 345.124,409.917 345.457,410.584 345.5,411.5C 345.253,412.713 344.586,413.38 343.5,413.5C 344.234,412.292 344.567,410.959 344.5,409.5 Z"/></g>
<g><path style="opacity:0.29" fill="#a6a6aa" d="M 175.5,409.5 C 175.167,412.5 176.5,413.833 179.5,413.5C 176.69,415.115 174.69,414.282 173.5,411C 174.044,410.283 174.711,409.783 175.5,409.5 Z"/></g>
</svg>
