<?xml version="1.0" encoding="UTF-8"?>
<!DOCTYPE svg PUBLIC "-//W3C//DTD SVG 1.1//EN" "http://www.w3.org/Graphics/SVG/1.1/DTD/svg11.dtd">
<svg xmlns="http://www.w3.org/2000/svg" version="1.1" width="500px" height="500px" style="shape-rendering:geometricPrecision; text-rendering:geometricPrecision; image-rendering:optimizeQuality; fill-rule:evenodd; clip-rule:evenodd" xmlns:xlink="http://www.w3.org/1999/xlink">
<g><path style="opacity:0.979" fill="#131213" d="M 407.5,118.5 C 406.895,116.519 405.895,116.185 404.5,117.5C 402.621,117.607 402.288,117.107 403.5,116C 402.333,115.5 401.5,114.667 401,113.5C 400.282,114.451 399.449,114.617 398.5,114C 402.514,111.08 402.347,110.247 398,111.5C 397.833,111.167 397.667,110.833 397.5,110.5C 398.376,109.749 399.376,109.249 400.5,109C 398.671,107.462 397.171,107.962 396,110.5C 391.57,107.44 390.07,108.44 391.5,113.5C 389.926,111.898 389.259,109.898 389.5,107.5C 391.167,107.5 392.833,107.5 394.5,107.5C 394.334,102.489 394.501,97.4889 395,92.5C 398.667,85.8333 402.333,85.8333 406,92.5C 406.499,97.4889 406.666,102.489 406.5,107.5C 410.846,107.334 415.179,107.501 419.5,108C 423.566,111.745 423.233,115.078 418.5,118C 414.848,118.499 411.182,118.665 407.5,118.5 Z"/></g>
<g><path style="opacity:0.845" fill="#0a090a" d="M 335.5,112.5 C 335.33,111.178 335.663,110.011 336.5,109C 265.736,108.676 194.903,108.843 124,109.5C 123,108.833 122,108.167 121,107.5C 120.667,102.167 120.333,96.8333 120,91.5C 118.326,89.9907 116.66,89.3241 115,89.5C 113.97,91.3464 112.804,93.0131 111.5,94.5C 110.934,91.0005 112.601,88.6672 116.5,87.5C 118.753,88.2531 120.587,89.5864 122,91.5C 122.499,96.8229 122.666,102.156 122.5,107.5C 186.817,107.595 250.984,107.262 315,106.5C 321.833,106.667 328.667,106.833 335.5,107C 337.873,108.758 337.873,110.591 335.5,112.5 Z"/></g>
<g><path style="opacity:1" fill="#171617" d="M 335.5,112.5 C 335.34,114.153 334.674,115.486 333.5,116.5C 331.637,118.705 329.303,120.039 326.5,120.5C 326.688,118.897 326.188,117.563 325,116.5C 321.828,116.168 318.661,116.668 315.5,118C 316.167,118.333 316.833,118.667 317.5,119C 316.693,124.083 316.193,129.25 316,134.5C 314.89,136.037 313.39,136.703 311.5,136.5C 311.19,130.242 311.524,124.076 312.5,118C 311.234,117.691 310.067,117.191 309,116.5C 306.91,117.152 304.743,117.319 302.5,117C 301.833,126 301.167,135 300.5,144C 302.163,148.177 300.83,150.677 296.5,151.5C 295.732,140.199 295.232,128.866 295,117.5C 292.045,117.322 288.879,117.322 285.5,117.5C 285.667,130.504 285.5,143.504 285,156.5C 284.125,159.215 282.292,160.548 279.5,160.5C 279.667,146.163 279.5,131.829 279,117.5C 278.439,116.978 277.772,116.645 277,116.5C 273.872,117.204 270.706,117.704 267.5,118C 269.214,132.404 269.714,146.904 269,161.5C 267.148,163.23 267.314,164.396 269.5,165C 266.833,165.667 266.833,166.333 269.5,167C 268.864,170.79 268.197,174.623 267.5,178.5C 266.833,178.833 266.167,179.167 265.5,179.5C 264.808,174.952 264.141,170.452 263.5,166C 264.212,163.973 265.212,162.973 266.5,163C 266.389,161.278 265.889,161.112 265,162.5C 264.667,160.833 264.333,159.167 264,157.5C 263.667,144.167 263.333,130.833 263,117.5C 261.795,116.929 260.628,116.262 259.5,115.5C 260.506,114.604 260.506,113.938 259.5,113.5C 257.853,114.133 256.187,115.133 254.5,116.5C 252.999,114.261 251.666,114.261 250.5,116.5C 249.201,115.91 248.368,114.91 248,113.5C 246.445,115.146 244.779,115.479 243,114.5C 242.692,115.308 242.192,115.975 241.5,116.5C 240.205,115.902 238.872,115.402 237.5,115C 239.595,114.444 239.762,113.944 238,113.5C 235.556,114.647 233.223,115.981 231,117.5C 228.207,117.453 225.374,117.286 222.5,117C 221.515,126.417 221.182,135.917 221.5,145.5C 220.167,145.5 218.833,145.5 217.5,145.5C 216.18,136.667 216.18,127.833 217.5,119C 216.226,117.779 214.726,116.946 213,116.5C 210.945,117.692 208.945,117.692 207,116.5C 206.085,117.328 205.419,118.328 205,119.5C 204.828,123.871 204.328,128.204 203.5,132.5C 202.833,132.167 202.167,131.833 201.5,131.5C 200.672,127.204 200.172,122.871 200,118.5C 199.261,117.426 198.261,116.759 197,116.5C 194.566,117.322 192.066,117.656 189.5,117.5C 189.666,124.508 189.5,131.508 189,138.5C 187.981,139.687 186.814,140.687 185.5,141.5C 184.818,134.104 184.318,126.437 184,118.5C 183.333,117.833 182.667,117.167 182,116.5C 179.531,117.147 176.698,117.48 173.5,117.5C 173.667,129.838 173.5,142.171 173,154.5C 169.454,158.87 168.287,158.37 169.5,153C 168.896,141.529 168.062,130.029 167,118.5C 163.222,115.057 159.722,115.557 156.5,120C 156.258,122.072 156.591,124.239 157.5,126.5C 159.115,142.438 158.615,158.438 156,174.5C 152.12,179.803 149.62,179.47 148.5,173.5C 149.626,155.851 149.793,138.185 149,120.5C 144.822,118.601 140.322,117.935 135.5,118.5C 132.64,117.756 129.64,117.089 126.5,116.5C 124.808,117.201 123.142,116.867 121.5,115.5C 120.761,115.631 120.094,115.464 119.5,115C 120.833,114.333 120.833,113.667 119.5,113C 120.624,112.751 121.624,112.251 122.5,111.5C 121.067,111.325 119.4,110.658 117.5,109.5C 115.118,111.071 112.451,111.904 109.5,112C 110.308,112.308 110.975,112.808 111.5,113.5C 110.807,114.518 110.141,115.518 109.5,116.5C 109.167,117.167 108.833,117.833 108.5,118.5C 104.818,118.665 101.152,118.499 97.5,118C 93.5,114.667 93.5,111.333 97.5,108C 101.73,106.71 106.064,106.21 110.5,106.5C 110.183,102.298 110.517,98.2984 111.5,94.5C 112.804,93.0131 113.97,91.3464 115,89.5C 116.66,89.3241 118.326,89.9907 120,91.5C 120.333,96.8333 120.667,102.167 121,107.5C 122,108.167 123,108.833 124,109.5C 194.903,108.843 265.736,108.676 336.5,109C 335.663,110.011 335.33,111.178 335.5,112.5 Z"/></g>
<g><path style="opacity:0.994" fill="#121212" d="M 254.5,116.5 C 253.678,138.094 253.178,159.761 253,181.5C 252.617,182.056 252.117,182.389 251.5,182.5C 248.932,182.406 247.432,181.072 247,178.5C 246.5,158.503 246.333,138.503 246.5,118.5C 243.833,118.5 241.167,118.5 238.5,118.5C 238.5,133.167 238.5,147.833 238.5,162.5C 235.951,162.613 233.618,161.946 231.5,160.5C 230.501,146.516 230.167,132.516 230.5,118.5C 227.833,118.5 225.167,118.5 222.5,118.5C 222.666,128.172 222.5,137.839 222,147.5C 221.667,147.833 221.333,148.167 221,148.5C 219.855,147.364 218.688,146.364 217.5,145.5C 218.833,145.5 220.167,145.5 221.5,145.5C 221.182,135.917 221.515,126.417 222.5,117C 225.374,117.286 228.207,117.453 231,117.5C 233.223,115.981 235.556,114.647 238,113.5C 239.762,113.944 239.595,114.444 237.5,115C 238.872,115.402 240.205,115.902 241.5,116.5C 242.192,115.975 242.692,115.308 243,114.5C 244.779,115.479 246.445,115.146 248,113.5C 248.368,114.91 249.201,115.91 250.5,116.5C 251.666,114.261 252.999,114.261 254.5,116.5 Z"/></g>
<g><path style="opacity:0.561" fill="#090808" d="M 121.5,115.5 C 123.142,116.867 124.808,117.201 126.5,116.5C 129.64,117.089 132.64,117.756 135.5,118.5C 131.167,118.5 126.833,118.5 122.5,118.5C 122.333,181.501 122.5,244.501 123,307.5C 124.129,305.859 125.629,304.859 127.5,304.5C 126.507,306.799 124.841,308.466 122.5,309.5C 121.478,309.145 120.811,308.478 120.5,307.5C 121.064,243.632 121.397,179.632 121.5,115.5 Z"/></g>
<g><path style="opacity:0.786" fill="#0c0b0c" d="M 133.5,163.5 C 134.182,170.901 134.848,178.401 135.5,186C 134.346,186.914 134.513,187.747 136,188.5C 136.903,187.299 138.069,186.465 139.5,186C 139.477,165.375 139.477,144.542 139.5,123.5C 138.178,123.33 137.011,123.663 136,124.5C 135.667,135.833 135.333,147.167 135,158.5C 134.79,160.058 134.29,161.391 133.5,162.5C 133.333,149.496 133.5,136.496 134,123.5C 136.135,121.722 138.635,121.055 141.5,121.5C 141.809,143.533 141.143,165.533 139.5,187.5C 137.999,188.752 136.332,189.752 134.5,190.5C 132.965,181.492 132.631,172.492 133.5,163.5 Z"/></g>
<g><path style="opacity:0.999" fill="#1a191a" d="M 133.5,163.5 C 133.5,163.167 133.5,162.833 133.5,162.5C 134.29,161.391 134.79,160.058 135,158.5C 135.333,147.167 135.667,135.833 136,124.5C 137.011,123.663 138.178,123.33 139.5,123.5C 139.477,144.542 139.477,165.375 139.5,186C 138.069,186.465 136.903,187.299 136,188.5C 134.513,187.747 134.346,186.914 135.5,186C 134.848,178.401 134.182,170.901 133.5,163.5 Z"/></g>
<g><path style="opacity:0.246" fill="#0a0909" d="M 217.5,145.5 C 216.504,145.586 215.671,145.252 215,144.5C 214.5,135.84 214.334,127.173 214.5,118.5C 211.833,118.5 209.167,118.5 206.5,118.5C 206.5,123.833 206.5,129.167 206.5,134.5C 203.635,134.945 201.135,134.278 199,132.5C 198.501,127.845 198.334,123.179 198.5,118.5C 195.881,118.232 193.381,118.565 191,119.5C 190.667,126.5 190.333,133.5 190,140.5C 188.247,141.627 186.413,142.627 184.5,143.5C 183.808,142.975 183.308,142.308 183,141.5C 182.5,133.841 182.334,126.174 182.5,118.5C 179.833,118.5 177.167,118.5 174.5,118.5C 174.667,131.171 174.5,143.838 174,156.5C 172.084,158.209 169.918,159.543 167.5,160.5C 166.667,146.846 166.167,133.179 166,119.5C 163.619,118.565 161.119,118.232 158.5,118.5C 158.806,121.385 158.473,124.052 157.5,126.5C 156.591,124.239 156.258,122.072 156.5,120C 159.722,115.557 163.222,115.057 167,118.5C 168.062,130.029 168.896,141.529 169.5,153C 168.287,158.37 169.454,158.87 173,154.5C 173.5,142.171 173.667,129.838 173.5,117.5C 176.698,117.48 179.531,117.147 182,116.5C 182.667,117.167 183.333,117.833 184,118.5C 184.318,126.437 184.818,134.104 185.5,141.5C 186.814,140.687 187.981,139.687 189,138.5C 189.5,131.508 189.666,124.508 189.5,117.5C 192.066,117.656 194.566,117.322 197,116.5C 198.261,116.759 199.261,117.426 200,118.5C 200.172,122.871 200.672,127.204 201.5,131.5C 202.167,131.833 202.833,132.167 203.5,132.5C 204.328,128.204 204.828,123.871 205,119.5C 205.419,118.328 206.085,117.328 207,116.5C 208.945,117.692 210.945,117.692 213,116.5C 214.726,116.946 216.226,117.779 217.5,119C 216.18,127.833 216.18,136.667 217.5,145.5 Z"/></g>
<g><path style="opacity:0.126" fill="#080707" d="M 333.5,116.5 C 332.256,120.412 329.589,122.412 325.5,122.5C 325.5,121.167 325.5,119.833 325.5,118.5C 323.167,118.5 320.833,118.5 318.5,118.5C 318.666,123.511 318.499,128.511 318,133.5C 316.65,137.001 314.316,138.334 311,137.5C 310.5,131.175 310.334,124.842 310.5,118.5C 307.833,118.5 305.167,118.5 302.5,118.5C 302.667,129.172 302.5,139.839 302,150.5C 300.152,153.041 297.652,154.041 294.5,153.5C 294.5,141.833 294.5,130.167 294.5,118.5C 291.833,118.5 289.167,118.5 286.5,118.5C 286.667,132.171 286.5,145.837 286,159.5C 284.009,161.905 281.676,162.572 279,161.5C 278.5,147.171 278.333,132.837 278.5,118.5C 275.833,118.5 273.167,118.5 270.5,118.5C 270.667,138.169 270.5,157.836 270,177.5C 268.461,180.521 265.961,181.854 262.5,181.5C 262.5,160.5 262.5,139.5 262.5,118.5C 259.833,118.5 257.167,118.5 254.5,118.5C 254.5,140.167 254.5,161.833 254.5,183.5C 253.209,183.737 252.209,183.404 251.5,182.5C 252.117,182.389 252.617,182.056 253,181.5C 253.178,159.761 253.678,138.094 254.5,116.5C 256.187,115.133 257.853,114.133 259.5,113.5C 260.506,113.938 260.506,114.604 259.5,115.5C 260.628,116.262 261.795,116.929 263,117.5C 263.333,130.833 263.667,144.167 264,157.5C 264.333,159.167 264.667,160.833 265,162.5C 265.889,161.112 266.389,161.278 266.5,163C 265.212,162.973 264.212,163.973 263.5,166C 264.141,170.452 264.808,174.952 265.5,179.5C 266.167,179.167 266.833,178.833 267.5,178.5C 268.197,174.623 268.864,170.79 269.5,167C 266.833,166.333 266.833,165.667 269.5,165C 267.314,164.396 267.148,163.23 269,161.5C 269.714,146.904 269.214,132.404 267.5,118C 270.706,117.704 273.872,117.204 277,116.5C 277.772,116.645 278.439,116.978 279,117.5C 279.5,131.829 279.667,146.163 279.5,160.5C 282.292,160.548 284.125,159.215 285,156.5C 285.5,143.504 285.667,130.504 285.5,117.5C 288.879,117.322 292.045,117.322 295,117.5C 295.232,128.866 295.732,140.199 296.5,151.5C 300.83,150.677 302.163,148.177 300.5,144C 301.167,135 301.833,126 302.5,117C 304.743,117.319 306.91,117.152 309,116.5C 310.067,117.191 311.234,117.691 312.5,118C 311.524,124.076 311.19,130.242 311.5,136.5C 313.39,136.703 314.89,136.037 316,134.5C 316.193,129.25 316.693,124.083 317.5,119C 316.833,118.667 316.167,118.333 315.5,118C 318.661,116.668 321.828,116.168 325,116.5C 326.188,117.563 326.688,118.897 326.5,120.5C 329.303,120.039 331.637,118.705 333.5,116.5 Z"/></g>
<g><path style="opacity:0.739" fill="#090909" d="M 109.5,116.5 C 110.496,116.414 111.329,116.748 112,117.5C 112.667,203.5 112.667,289.5 112,375.5C 107.586,376.303 103.086,376.803 98.5,377C 95.6012,380.156 95.9345,382.822 99.5,385C 103.98,385.042 108.314,385.208 112.5,385.5C 112.923,387.781 112.256,389.448 110.5,390.5C 110.5,389.167 110.5,387.833 110.5,386.5C 106.154,386.666 101.821,386.499 97.5,386C 93.5,382.667 93.5,379.333 97.5,376C 101.821,375.501 106.154,375.334 110.5,375.5C 110.318,321.021 110.652,266.188 111.5,211C 111.204,179.828 110.204,148.995 108.5,118.5C 108.833,117.833 109.167,117.167 109.5,116.5 Z"/></g>
<g><path style="opacity:0.993" fill="#121212" d="M 155.5,197.5 C 150.697,200.469 146.697,204.303 143.5,209C 144.167,210 144.833,211 145.5,212C 144.177,212.816 143.511,213.983 143.5,215.5C 143.167,216.5 142.5,217.167 141.5,217.5C 140.624,217.369 139.957,217.702 139.5,218.5C 140.833,219.62 141.333,220.953 141,222.5C 139.883,222.335 138.716,222.002 137.5,221.5C 136.017,223.946 134.851,223.612 134,220.5C 133.022,216.1 133.522,211.933 135.5,208C 136.5,207.667 137.5,207.333 138.5,207C 137.587,205.586 137.587,204.086 138.5,202.5C 157.025,182.808 176.358,163.975 196.5,146C 199.964,145.183 203.298,145.517 206.5,147C 219.002,159.835 231.836,172.335 245,184.5C 246,186.167 247,187.833 248,189.5C 248.684,190.784 248.517,191.951 247.5,193C 244.723,193.051 242.057,193.218 239.5,193.5C 238.717,198.447 238.217,203.447 238,208.5C 236.245,211.294 233.745,212.96 230.5,213.5C 230.334,206.825 230.5,200.158 231,193.5C 231.093,190.993 231.926,188.826 233.5,187C 227.801,181.635 222.467,175.969 217.5,170C 211.988,165.154 206.488,160.32 201,155.5C 198.844,156.985 196.677,158.485 194.5,160C 181.809,172.976 168.809,185.476 155.5,197.5 Z"/></g>
<g><path style="opacity:0.082" fill="#060606" d="M 199.5,164.5 C 201.677,164.586 203.677,165.253 205.5,166.5C 206.5,188.156 206.833,209.823 206.5,231.5C 202.86,231.437 200.36,229.77 199,226.5C 198.226,205.813 198.392,185.147 199.5,164.5 Z"/></g>
<g><path style="opacity:0.999" fill="#171717" d="M 201.5,168.5 C 202.234,169.878 202.901,171.378 203.5,173C 201.099,173.805 201.266,174.638 204,175.5C 204.333,175.167 204.667,174.833 205,174.5C 205.667,191.833 205.667,209.167 205,226.5C 204.047,228.592 202.714,228.925 201,227.5C 200.224,207.514 200.391,187.847 201.5,168.5 Z"/></g>
<g><path style="opacity:0.196" fill="#080808" d="M 361.5,165.5 C 362.5,165.5 363.5,165.5 364.5,165.5C 364.667,186.169 364.5,206.836 364,227.5C 362.114,230.242 359.614,231.909 356.5,232.5C 356.333,211.831 356.5,191.164 357,170.5C 358.634,168.938 360.134,167.271 361.5,165.5 Z"/></g>
<g><path style="opacity:0.995" fill="#161616" d="M 358.5,169.5 C 359.833,169.5 361.167,169.5 362.5,169.5C 362.667,188.836 362.5,208.17 362,227.5C 360.89,229.037 359.39,229.703 357.5,229.5C 357.19,209.454 357.524,189.454 358.5,169.5 Z"/></g>
<g><path style="opacity:0.181" fill="#050505" d="M 214.5,177.5 C 217.505,177.253 220.005,178.253 222,180.5C 222.44,200.094 222.607,219.594 222.5,239C 221.618,244.18 219.118,245.013 215,241.5C 214.5,220.169 214.333,198.836 214.5,177.5 Z"/></g>
<g><path style="opacity:0.998" fill="#161616" d="M 217.5,179.5 C 218.973,180.072 220.307,180.905 221.5,182C 221.332,201.627 220.999,221.46 220.5,241.5C 219.178,241.67 218.011,241.337 217,240.5C 216.18,220.094 216.346,199.76 217.5,179.5 Z"/></g>
<g><path style="opacity:0.672" fill="#070707" d="M 379.5,212.5 C 378.561,215.241 376.727,217.241 374,218.5C 373.667,218.167 373.333,217.833 373,217.5C 372.333,196.833 372.333,176.167 373,155.5C 375.185,153.46 377.685,152.126 380.5,151.5C 380.83,172.007 380.497,192.34 379.5,212.5 Z"/></g>
<g><path style="opacity:0.999" fill="#191819" d="M 379.5,212.5 C 377.606,213.048 375.94,214.048 374.5,215.5C 373.334,195.842 373.167,176.175 374,156.5C 375.688,154.152 377.522,153.985 379.5,156C 378.207,174.617 378.207,193.45 379.5,212.5 Z"/></g>
<g><path style="opacity:0.999" fill="#131212" d="M 188.5,172.5 C 189.756,172.461 190.756,172.961 191.5,174C 191.002,188.023 190.335,202.19 189.5,216.5C 187.587,215.627 185.753,214.627 184,213.5C 183.333,201.167 183.333,188.833 184,176.5C 185.992,175.672 187.492,174.339 188.5,172.5 Z"/></g>
<g><path style="opacity:0.998" fill="#0e0e0e" d="M 173.5,187.5 C 175.436,191.715 176.103,196.381 175.5,201.5C 168.329,201.493 166.162,198.159 169,191.5C 170.397,189.93 171.897,188.596 173.5,187.5 Z"/></g>
<g><path style="opacity:0.999" fill="#101010" d="M 237.5,247.5 C 234.536,245.038 231.703,242.371 229,239.5C 227.543,236.634 227.21,233.634 228,230.5C 239.863,218.971 251.363,207.138 262.5,195C 267.5,194.667 272.5,194.333 277.5,194C 280.446,193.194 283.112,191.861 285.5,190C 275.499,181.325 276.499,173.991 288.5,168C 296.095,167.885 303.095,165.885 309.5,162C 311.935,156.296 314.769,150.796 318,145.5C 329.167,133.667 340.333,121.833 351.5,110C 365.089,102.358 376.256,104.858 385,117.5C 387.409,124.484 386.742,131.151 383,137.5C 366.301,154.493 348.301,169.826 329,183.5C 324.495,190.839 321.828,198.839 321,207.5C 316.355,213.794 311.188,214.127 305.5,208.5C 302.583,210.334 301.25,213 301.5,216.5C 302.352,220.371 303.352,224.205 304.5,228C 304.369,230.253 303.869,232.419 303,234.5C 292.86,245.306 282.36,255.806 271.5,266C 268.726,268.471 265.56,270.305 262,271.5C 254.004,263.337 245.837,255.337 237.5,247.5 Z M 257.5,210.5 C 258.552,210.351 259.552,210.517 260.5,211C 270.011,219.678 279.344,228.512 288.5,237.5C 287.277,238.614 285.944,238.781 284.5,238C 276.268,229.098 267.434,220.931 258,213.5C 257.517,212.552 257.351,211.552 257.5,210.5 Z M 265.5,202.5 C 276.515,210.37 286.848,219.203 296.5,229C 293.648,230.963 290.981,230.63 288.5,228C 280.416,220.315 272.416,212.649 264.5,205C 265.252,204.329 265.586,203.496 265.5,202.5 Z M 289.5,194.5 C 292.812,197.146 295.812,200.146 298.5,203.5C 295.533,206.896 294.033,210.896 294,215.5C 289.425,210.254 284.258,205.754 278.5,202C 283.393,201.27 287.06,198.77 289.5,194.5 Z M 361.5,114.5 C 375.386,114.289 379.886,120.623 375,133.5C 358.863,149.478 341.696,164.145 323.5,177.5C 317.959,184.949 314.459,193.283 313,202.5C 309.483,199.283 306.316,195.783 303.5,192C 297.8,188.146 292.467,183.812 287.5,179C 288.551,177.615 289.884,176.615 291.5,176C 298.448,175.344 305.114,173.677 311.5,171C 317.038,165.434 321.205,158.934 324,151.5C 334.5,140.333 345,129.167 355.5,118C 357.432,116.541 359.432,115.375 361.5,114.5 Z M 362.5,127.5 C 365.293,127.74 365.793,128.74 364,130.5C 362.961,129.756 362.461,128.756 362.5,127.5 Z M 237.5,233.5 C 241.138,229.526 244.805,225.526 248.5,221.5C 249.482,220.859 250.482,220.193 251.5,219.5C 252.521,220.002 252.688,220.668 252,221.5C 247.833,225.667 243.667,229.833 239.5,234C 238.563,234.692 237.897,234.525 237.5,233.5 Z M 247.5,244.5 C 248.063,241.705 249.396,239.372 251.5,237.5C 254.5,235.332 257,232.666 259,229.5C 259.5,230 260,230.5 260.5,231C 256.578,234.251 253.412,238.084 251,242.5C 250.184,243.823 249.017,244.489 247.5,244.5 Z M 268.5,233.5 C 268.5,234.167 268.833,234.5 269.5,234.5C 264.039,238.802 259.372,243.969 255.5,250C 252.909,250.301 252.075,249.134 253,246.5C 257.721,242.047 261.721,237.047 265,231.5C 265.816,232.823 266.983,233.489 268.5,233.5 Z M 280.5,244.5 C 276.188,249.479 271.521,254.146 266.5,258.5C 264.626,260.095 263.793,259.761 264,257.5C 269.022,253.978 273.189,249.645 276.5,244.5C 277.7,243.708 279.033,243.708 280.5,244.5 Z M 270.5,236.5 C 271.962,237.458 273.295,238.624 274.5,240C 269.742,244.367 265.575,249.2 262,254.5C 259.667,255.833 258.667,255.167 259,252.5C 263.852,247.827 267.686,242.494 270.5,236.5 Z M 253.5,229.5 C 251.833,230.5 250.5,231.833 249.5,233.5C 247.704,234.793 246.037,236.293 244.5,238C 243.668,238.688 243.002,238.521 242.5,237.5C 247.157,232.675 251.657,227.675 256,222.5C 256.833,223.333 257.667,224.167 258.5,225C 256.937,226.736 255.27,228.236 253.5,229.5 Z"/></g>
<g><path style="opacity:0.941" fill="#0b0a0b" d="M 362.5,119.5 C 368.036,120.035 371.369,123.035 372.5,128.5C 369.066,137.996 363.566,139.663 356,133.5C 353.646,126.725 355.813,122.059 362.5,119.5 Z M 362.5,127.5 C 362.461,128.756 362.961,129.756 364,130.5C 365.793,128.74 365.293,127.74 362.5,127.5 Z"/></g>
<g><path style="opacity:0.818" fill="#090808" d="M 325.5,218.5 C 326.249,233.014 327.083,247.681 328,262.5C 331.719,260.967 332.552,258.801 330.5,256C 331.396,239.757 331.563,223.591 331,207.5C 330,206.167 329,206.167 328,207.5C 327.747,211.025 326.913,214.359 325.5,217.5C 324.652,210.373 326.652,204.04 331.5,198.5C 333.215,219.138 333.715,239.805 333,260.5C 331.515,263.748 329.182,264.748 326,263.5C 325.5,248.504 325.333,233.504 325.5,218.5 Z"/></g>
<g><path style="opacity:0.991" fill="#161516" d="M 404.5,117.5 C 404.5,160.833 404.5,204.167 404.5,247.5C 402.402,246.086 401.402,246.752 401.5,249.5C 399.876,249.64 398.71,248.973 398,247.5C 397.768,248.737 397.268,249.737 396.5,250.5C 396.5,249.5 396.5,248.5 396.5,247.5C 395.5,247.5 394.5,247.5 393.5,247.5C 393.101,251.806 391.434,255.64 388.5,259C 380.675,279.069 368.342,297.069 351.5,313C 351.728,313.399 352.062,313.565 352.5,313.5C 350.825,316.61 348.325,318.943 345,320.5C 343.341,319.183 342.174,317.517 341.5,315.5C 349.853,306.315 358.02,296.981 366,287.5C 374.732,271.038 383.732,254.704 393,238.5C 394.058,234.42 394.558,230.253 394.5,226C 394.63,222.316 394.13,218.816 393,215.5C 376.67,237.839 358.837,259.005 339.5,279C 331.788,285.714 323.788,292.047 315.5,298C 310.526,301.321 305.193,303.821 299.5,305.5C 289.374,307.981 278.874,310.314 268,312.5C 266.941,312.37 266.108,311.87 265.5,311C 265.962,309.278 266.128,307.445 266,305.5C 268.68,305.985 271.347,306.318 274,306.5C 278.843,305.926 283.51,304.926 288,303.5C 289.226,303.645 290.393,303.978 291.5,304.5C 292.855,302.154 294.521,300.154 296.5,298.5C 313.474,289.744 328.641,278.411 342,264.5C 352.707,252.795 363.041,240.795 373,228.5C 379.26,224.244 384.927,219.244 390,213.5C 393.836,208.485 395.336,202.818 394.5,196.5C 392.833,196.5 391.167,196.5 389.5,196.5C 388.771,178.837 388.604,161.17 389,143.5C 389.004,140.148 390.504,137.815 393.5,136.5C 393.833,133.5 394.167,130.5 394.5,127.5C 394.439,122.537 393.439,117.87 391.5,113.5C 390.07,108.44 391.57,107.44 396,110.5C 397.171,107.962 398.671,107.462 400.5,109C 399.376,109.249 398.376,109.749 397.5,110.5C 397.667,110.833 397.833,111.167 398,111.5C 402.347,110.247 402.514,111.08 398.5,114C 399.449,114.617 400.282,114.451 401,113.5C 401.5,114.667 402.333,115.5 403.5,116C 402.288,117.107 402.621,117.607 404.5,117.5 Z"/></g>
<g><path style="opacity:1" fill="#2b292a" d="M 390.5,156.5 C 392.175,168.701 393.175,181.201 393.5,194C 392.552,194.483 391.552,194.649 390.5,194.5C 390.5,181.833 390.5,169.167 390.5,156.5 Z"/></g>
<g><path style="opacity:1" fill="#1a191a" d="M 121.5,115.5 C 121.397,179.632 121.064,243.632 120.5,307.5C 119.379,309.089 119.546,310.756 121,312.5C 121.535,310.729 122.369,310.396 123.5,311.5C 122.264,313.311 122.264,315.144 123.5,317C 122.833,318.333 122.167,319.667 121.5,321C 121.57,321.765 121.903,322.265 122.5,322.5C 122.334,327.511 122.501,332.511 123,337.5C 127.805,331.849 133.305,327.182 139.5,323.5C 141.807,323.014 143.973,323.014 146,323.5C 149.358,319.766 153.524,317.432 158.5,316.5C 159.647,316.818 160.481,317.484 161,318.5C 161.483,317.552 161.649,316.552 161.5,315.5C 163.144,315.714 164.644,315.38 166,314.5C 172.419,315.313 178.919,315.813 185.5,316C 183.875,316.853 183.542,317.853 184.5,319C 180.5,319.667 180.5,320.333 184.5,321C 179.316,321.174 174.316,321.674 169.5,322.5C 160.179,322.662 151.512,325.162 143.5,330C 136.636,335.698 130.303,341.865 124.5,348.5C 122.926,348.937 121.759,349.937 121,351.5C 120.817,359.745 120.317,367.912 119.5,376C 211.664,377.563 303.664,377.729 395.5,376.5C 396.164,338.333 396.83,300.167 397.5,262C 396.54,258.27 396.207,254.437 396.5,250.5C 397.268,249.737 397.768,248.737 398,247.5C 398.71,248.973 399.876,249.64 401.5,249.5C 401.402,246.752 402.402,246.086 404.5,247.5C 404.459,290.652 404.459,333.652 404.5,376.5C 409.179,376.334 413.845,376.501 418.5,377C 421.169,380.349 420.503,383.015 416.5,385C 412.909,385.789 409.409,385.622 406,384.5C 403.266,385.362 403.099,386.195 405.5,387C 405.028,391.25 404.528,395.75 404,400.5C 402.713,403.145 400.547,404.145 397.5,403.5C 396.034,402.653 395.2,401.32 395,399.5C 395.108,394.72 394.275,390.386 392.5,386.5C 378.431,385.825 364.265,385.159 350,384.5C 320.057,385.811 290.39,385.811 261,384.5C 253.068,385.152 245.235,385.819 237.5,386.5C 237.167,386.5 236.833,386.5 236.5,386.5C 235.828,385.733 234.995,385.066 234,384.5C 197.61,385.816 160.943,385.816 124,384.5C 122.391,385.147 120.891,385.98 119.5,387C 120.766,392.469 120.766,397.969 119.5,403.5C 117.55,405.952 115.384,405.952 113,403.5C 111.101,399.379 110.268,395.046 110.5,390.5C 112.256,389.448 112.923,387.781 112.5,385.5C 108.314,385.208 103.98,385.042 99.5,385C 95.9345,382.822 95.6012,380.156 98.5,377C 103.086,376.803 107.586,376.303 112,375.5C 112.667,289.5 112.667,203.5 112,117.5C 111.329,116.748 110.496,116.414 109.5,116.5C 110.141,115.518 110.807,114.518 111.5,113.5C 110.975,112.808 110.308,112.308 109.5,112C 112.451,111.904 115.118,111.071 117.5,109.5C 119.4,110.658 121.067,111.325 122.5,111.5C 121.624,112.251 120.624,112.751 119.5,113C 120.833,113.667 120.833,114.333 119.5,115C 120.094,115.464 120.761,115.631 121.5,115.5 Z M 247.5,309.5 C 250.076,309.722 250.91,311.055 250,313.5C 248.446,316.102 246.28,317.269 243.5,317C 242.549,316.282 242.383,315.449 243,314.5C 244.707,312.963 246.207,311.296 247.5,309.5 Z"/></g>
<g><path style="opacity:1" fill="#171617" d="M 237.5,233.5 C 236.761,233.369 236.094,233.536 235.5,234C 236.716,235.74 238.382,236.74 240.5,237C 240.167,237.333 239.833,237.667 239.5,238C 240.662,238.827 241.829,239.66 243,240.5C 244.944,239.561 246.611,238.227 248,236.5C 248.333,236.833 248.667,237.167 249,237.5C 250.334,236.122 250.501,234.789 249.5,233.5C 250.5,231.833 251.833,230.5 253.5,229.5C 254.552,229.351 255.552,229.517 256.5,230C 253.834,231.833 252.168,234.333 251.5,237.5C 249.396,239.372 248.063,241.705 247.5,244.5C 247.821,246.048 248.821,246.715 250.5,246.5C 250.351,247.552 250.517,248.552 251,249.5C 254.85,253.35 258.683,257.183 262.5,261C 263.448,261.483 264.448,261.649 265.5,261.5C 265.196,262.15 264.863,262.817 264.5,263.5C 266.725,266.069 266.058,268.069 262.5,269.5C 256.916,264.583 251.583,259.25 246.5,253.5C 243.464,251.448 240.464,249.448 237.5,247.5C 235.959,243.785 233.459,240.785 230,238.5C 229.578,236.645 229.078,234.811 228.5,233C 232.009,227.664 236.676,223.497 242.5,220.5C 242.833,220.833 243.167,221.167 243.5,221.5C 242.761,225.912 240.428,229.246 236.5,231.5C 236.863,232.183 237.196,232.85 237.5,233.5 Z"/></g>
<g><path style="opacity:1" fill="#191718" d="M 325.5,218.5 C 325.5,218.167 325.5,217.833 325.5,217.5C 326.913,214.359 327.747,211.025 328,207.5C 329,206.167 330,206.167 331,207.5C 331.563,223.591 331.396,239.757 330.5,256C 332.552,258.801 331.719,260.967 328,262.5C 327.083,247.681 326.249,233.014 325.5,218.5 Z"/></g>
<g><path style="opacity:0.086" fill="#0b0a0a" d="M 346.5,178.5 C 347.832,189.146 348.499,200.146 348.5,211.5C 348.333,222.5 348.167,233.5 348,244.5C 346.429,246.923 344.263,248.256 341.5,248.5C 340.55,226.6 340.383,204.6 341,182.5C 343.167,181.512 345,180.179 346.5,178.5 Z"/></g>
<g><path style="opacity:1" fill="#171616" d="M 342.5,182.5 C 343.833,182.5 345.167,182.5 346.5,182.5C 346.321,199.344 346.655,216.177 347.5,233C 347.333,236.167 347.167,239.333 347,242.5C 345.663,246.63 343.829,247.13 341.5,244C 342.493,223.576 342.827,203.076 342.5,182.5 Z"/></g>
<g><path style="opacity:0.278" fill="#070709" d="M 268.5,233.5 C 266.983,233.489 265.816,232.823 265,231.5C 261.721,237.047 257.721,242.047 253,246.5C 252.075,249.134 252.909,250.301 255.5,250C 259.372,243.969 264.039,238.802 269.5,234.5C 274.139,237.559 277.806,240.893 280.5,244.5C 279.033,243.708 277.7,243.708 276.5,244.5C 273.189,249.645 269.022,253.978 264,257.5C 263.793,259.761 264.626,260.095 266.5,258.5C 266.443,259.609 266.11,260.609 265.5,261.5C 264.448,261.649 263.448,261.483 262.5,261C 258.683,257.183 254.85,253.35 251,249.5C 250.517,248.552 250.351,247.552 250.5,246.5C 248.821,246.715 247.821,246.048 247.5,244.5C 249.017,244.489 250.184,243.823 251,242.5C 253.412,238.084 256.578,234.251 260.5,231C 260,230.5 259.5,230 259,229.5C 257,232.666 254.5,235.332 251.5,237.5C 252.168,234.333 253.834,231.833 256.5,230C 255.552,229.517 254.552,229.351 253.5,229.5C 255.27,228.236 256.937,226.736 258.5,225C 257.667,224.167 256.833,223.333 256,222.5C 251.657,227.675 247.157,232.675 242.5,237.5C 243.002,238.521 243.668,238.688 244.5,238C 246.037,236.293 247.704,234.793 249.5,233.5C 250.501,234.789 250.334,236.122 249,237.5C 248.667,237.167 248.333,236.833 248,236.5C 246.611,238.227 244.944,239.561 243,240.5C 241.829,239.66 240.662,238.827 239.5,238C 239.833,237.667 240.167,237.333 240.5,237C 238.382,236.74 236.716,235.74 235.5,234C 236.094,233.536 236.761,233.369 237.5,233.5C 237.897,234.525 238.563,234.692 239.5,234C 243.667,229.833 247.833,225.667 252,221.5C 252.688,220.668 252.521,220.002 251.5,219.5C 250.482,220.193 249.482,220.859 248.5,221.5C 247.475,221.103 247.308,220.437 248,219.5C 249.101,217.606 250.434,216.939 252,217.5C 256.539,220.19 259.706,223.857 261.5,228.5C 263.199,228.34 264.866,228.506 266.5,229C 266.167,229.333 265.833,229.667 265.5,230C 266.71,231.039 267.71,232.206 268.5,233.5 Z M 270.5,236.5 C 267.686,242.494 263.852,247.827 259,252.5C 258.667,255.167 259.667,255.833 262,254.5C 265.575,249.2 269.742,244.367 274.5,240C 273.295,238.624 271.962,237.458 270.5,236.5 Z M 253.5,229.5 C 251.833,230.5 250.5,231.833 249.5,233.5C 247.704,234.793 246.037,236.293 244.5,238C 243.668,238.688 243.002,238.521 242.5,237.5C 247.157,232.675 251.657,227.675 256,222.5C 256.833,223.333 257.667,224.167 258.5,225C 256.937,226.736 255.27,228.236 253.5,229.5 Z"/></g>
<g><path style="opacity:1" fill="#121112" d="M 161.5,208.5 C 163.857,208.337 166.19,208.503 168.5,209C 198.071,235.578 227.237,262.411 256,289.5C 259.447,294.761 258.947,299.594 254.5,304C 261.558,311.289 260.891,317.956 252.5,324C 247.011,327.183 241.844,326.683 237,322.5C 231.154,325.498 225.654,324.998 220.5,321C 206.661,308.327 193.327,295.161 180.5,281.5C 166.691,267.438 152.691,253.604 138.5,240C 138.833,239.667 139.167,239.333 139.5,239C 138.106,238.044 137.439,236.711 137.5,235C 137.891,231.823 139.057,228.99 141,226.5C 144.802,224.327 148.635,222.827 152.5,222C 152.833,221.667 153.167,221.333 153.5,221C 152.328,220.581 151.328,219.915 150.5,219C 151.249,217.266 151.749,215.433 152,213.5C 153,213.833 154,214.167 155,214.5C 157.373,212.6 159.54,210.6 161.5,208.5 Z M 247.5,295.5 C 245.901,295.232 244.568,295.566 243.5,296.5C 239.105,298.751 235.438,301.918 232.5,306C 231.167,306.667 229.833,306.667 228.5,306C 214.933,295.438 202.266,283.771 190.5,271C 189.906,270.536 189.239,270.369 188.5,270.5C 179.134,260.134 169.134,250.467 158.5,241.5C 158.167,241.5 157.833,241.5 157.5,241.5C 157.5,240.833 157.5,240.167 157.5,239.5C 153.846,237.669 150.513,235.336 147.5,232.5C 151.296,228.202 155.296,224.036 159.5,220C 161.695,218.627 164.029,218.294 166.5,219C 193.396,244.732 220.396,270.232 247.5,295.5 Z M 247.5,309.5 C 246.207,311.296 244.707,312.963 243,314.5C 242.383,315.449 242.549,316.282 243.5,317C 246.28,317.269 248.446,316.102 250,313.5C 250.91,311.055 250.076,309.722 247.5,309.5 Z"/></g>
<g><path style="opacity:0.196" fill="#787575" d="M 147.5,232.5 C 150.513,235.336 153.846,237.669 157.5,239.5C 157.5,240.167 157.5,240.833 157.5,241.5C 154.194,239.511 150.861,237.511 147.5,235.5C 146.584,235.543 145.917,235.876 145.5,236.5C 144.527,234.708 145.194,233.375 147.5,232.5 Z"/></g>
<g><path style="opacity:0.593" fill="#030305" d="M 157.5,239.5 C 154.361,235.747 154.861,232.747 159,230.5C 163.438,231.878 164.605,234.711 162.5,239C 161.584,239.374 160.75,239.874 160,240.5C 159.329,239.748 158.496,239.414 157.5,239.5 Z"/></g>
<g><path style="opacity:0.689" fill="#0a0a0a" d="M 231.5,252.5 C 237.535,252.191 239.869,254.857 238.5,260.5C 232.851,261.172 230.517,258.505 231.5,252.5 Z"/></g>
<g><path style="opacity:0.817" fill="#0a0a0a" d="M 315.5,218.5 C 316.117,218.611 316.617,218.944 317,219.5C 317.85,237.831 318.183,256.165 318,274.5C 315.809,277.482 313.476,277.815 311,275.5C 310.826,258.26 310.326,241.093 309.5,224C 310.923,221.469 312.923,219.635 315.5,218.5 Z"/></g>
<g><path style="opacity:1" fill="#191818" d="M 312.5,221.5 C 313.873,221.343 315.207,221.51 316.5,222C 316.007,239.096 315.84,256.262 316,273.5C 315.311,274.357 314.478,275.023 313.5,275.5C 312.975,268.522 312.308,261.356 311.5,254C 311.343,243.429 311.677,232.595 312.5,221.5 Z"/></g>
<g><path style="opacity:0.998" fill="#151515" d="M 134.5,252.5 C 137.292,252.452 139.125,253.785 140,256.5C 141.502,266.183 141.669,275.849 140.5,285.5C 138.49,287.171 136.157,287.838 133.5,287.5C 133.538,277.348 133.205,267.348 132.5,257.5C 133.174,255.805 133.841,254.138 134.5,252.5 Z"/></g>
<g><path style="opacity:0.296" fill="#a9a9a9" d="M 158.5,241.5 C 169.134,250.467 179.134,260.134 188.5,270.5C 178.909,262.582 169.575,254.249 160.5,245.5C 159.295,244.423 158.628,243.09 158.5,241.5 Z"/></g>
<g><path style="opacity:0.407" fill="#050505" d="M 155.5,197.5 C 153.038,200.464 150.371,203.297 147.5,206C 150.759,207.211 153.592,209.044 156,211.5C 157.583,210.029 159.417,209.029 161.5,208.5C 159.54,210.6 157.373,212.6 155,214.5C 154,214.167 153,213.833 152,213.5C 151.749,215.433 151.249,217.266 150.5,219C 151.328,219.915 152.328,220.581 153.5,221C 153.167,221.333 152.833,221.667 152.5,222C 148.635,222.827 144.802,224.327 141,226.5C 139.057,228.99 137.891,231.823 137.5,235C 137.439,236.711 138.106,238.044 139.5,239C 139.167,239.333 138.833,239.667 138.5,240C 152.691,253.604 166.691,267.438 180.5,281.5C 165.233,268.736 150.733,255.069 137,240.5C 134.625,235.928 135.125,231.762 138.5,228C 132.78,223.116 130.947,216.95 133,209.5C 134.697,206.98 136.53,204.647 138.5,202.5C 137.587,204.086 137.587,205.586 138.5,207C 137.5,207.333 136.5,207.667 135.5,208C 133.522,211.933 133.022,216.1 134,220.5C 134.851,223.612 136.017,223.946 137.5,221.5C 138.716,222.002 139.883,222.335 141,222.5C 141.333,220.953 140.833,219.62 139.5,218.5C 139.957,217.702 140.624,217.369 141.5,217.5C 142.031,219.544 143.198,221.211 145,222.5C 146.141,220.391 147.641,218.558 149.5,217C 147.912,214.521 145.912,214.021 143.5,215.5C 143.511,213.983 144.177,212.816 145.5,212C 144.833,211 144.167,210 143.5,209C 146.697,204.303 150.697,200.469 155.5,197.5 Z M 141.5,217.5 C 142.5,217.167 143.167,216.5 143.5,215.5C 145.912,214.021 147.912,214.521 149.5,217C 147.641,218.558 146.141,220.391 145,222.5C 143.198,221.211 142.031,219.544 141.5,217.5 Z"/></g>
<g><path style="opacity:0.933" fill="#111111" d="M 150.5,264.5 C 155.677,266.346 158.01,270.013 157.5,275.5C 158.067,281.433 155.567,283.766 150,282.5C 149.212,276.418 149.379,270.418 150.5,264.5 Z"/></g>
<g><path style="opacity:0.992" fill="#131313" d="M 284.5,260.5 C 285.828,265.288 286.495,270.454 286.5,276C 286.333,281.167 286.167,286.333 286,291.5C 280.962,296.093 278.462,294.926 278.5,288C 279.744,281.827 279.744,275.66 278.5,269.5C 278.944,265.402 280.944,262.402 284.5,260.5 Z"/></g>
<g><path style="opacity:0.329" fill="#0d0d0d" d="M 247.5,267.5 C 253.34,268.651 255.34,271.984 253.5,277.5C 248.073,276.306 246.073,272.973 247.5,267.5 Z"/></g>
<g><path style="opacity:1" fill="#131313" d="M 266.5,275.5 C 267.833,275.5 269.167,275.5 270.5,275.5C 270.5,281.5 270.5,287.5 270.5,293.5C 267.495,293.747 264.995,292.747 263,290.5C 262.333,286.5 262.333,282.5 263,278.5C 263.985,277.186 265.152,276.186 266.5,275.5 Z"/></g>
<g><path style="opacity:0.897" fill="#080808" d="M 299.5,247.5 C 300.5,247.5 301.5,247.5 302.5,247.5C 302.832,260.517 302.499,273.517 301.5,286.5C 300.059,287.304 298.559,287.971 297,288.5C 296.055,288.095 295.388,287.428 295,286.5C 294.966,276.353 294.799,266.52 294.5,257C 294.228,252.706 295.895,249.54 299.5,247.5 Z"/></g>
<g><path style="opacity:0.996" fill="#171717" d="M 298.5,251.5 C 299.074,252.528 299.407,253.528 299.5,254.5C 300.192,253.975 300.692,253.308 301,252.5C 301.434,262.341 301.601,272.008 301.5,281.5C 299.361,283.056 297.861,284.722 297,286.5C 296.333,275.5 296.333,264.5 297,253.5C 297.717,252.956 298.217,252.289 298.5,251.5 Z"/></g>
<g><path style="opacity:0.992" fill="#131212" d="M 122.5,322.5 C 121.903,322.265 121.57,321.765 121.5,321C 122.167,319.667 122.833,318.333 123.5,317C 122.264,315.144 122.264,313.311 123.5,311.5C 122.369,310.396 121.535,310.729 121,312.5C 119.546,310.756 119.379,309.089 120.5,307.5C 120.811,308.478 121.478,309.145 122.5,309.5C 124.841,308.466 126.507,306.799 127.5,304.5C 132.219,299.643 137.886,296.143 144.5,294C 157.958,288.271 171.624,287.437 185.5,291.5C 187.086,293.67 188.42,296.004 189.5,298.5C 187.833,298.833 186.167,299.167 184.5,299.5C 166.466,295.481 149.8,298.648 134.5,309C 129.898,313.094 125.898,317.594 122.5,322.5 Z"/></g>
<g><path style="opacity:0.589" fill="#080708" d="M 407.5,118.5 C 406.761,118.369 406.094,118.536 405.5,119C 405.687,203.756 405.687,288.59 405.5,373.5C 405.709,374.086 406.043,374.586 406.5,375C 410.833,375.333 415.167,375.667 419.5,376C 422.201,379.534 421.867,382.867 418.5,386C 414.514,386.499 410.514,386.666 406.5,386.5C 406.897,391.959 406.397,397.292 405,402.5C 402.621,405.665 400.121,405.999 397.5,403.5C 400.547,404.145 402.713,403.145 404,400.5C 404.528,395.75 405.028,391.25 405.5,387C 403.099,386.195 403.266,385.362 406,384.5C 409.409,385.622 412.909,385.789 416.5,385C 420.503,383.015 421.169,380.349 418.5,377C 413.845,376.501 409.179,376.334 404.5,376.5C 404.459,333.652 404.459,290.652 404.5,247.5C 404.5,204.167 404.5,160.833 404.5,117.5C 405.895,116.185 406.895,116.519 407.5,118.5 Z"/></g>
<g><path style="opacity:0.063" fill="#565555" d="M 243.5,296.5 C 244.568,295.566 245.901,295.232 247.5,295.5C 247.737,296.791 247.404,297.791 246.5,298.5C 246.027,297.094 245.027,296.427 243.5,296.5 Z"/></g>
<g><path style="opacity:1" fill="#c1c0c0" d="M 157.5,241.5 C 157.833,241.5 158.167,241.5 158.5,241.5C 158.628,243.09 159.295,244.423 160.5,245.5C 169.575,254.249 178.909,262.582 188.5,270.5C 189.239,270.369 189.906,270.536 190.5,271C 202.266,283.771 214.933,295.438 228.5,306C 229.833,306.667 231.167,306.667 232.5,306C 235.438,301.918 239.105,298.751 243.5,296.5C 245.027,296.427 246.027,297.094 246.5,298.5C 243.833,301.5 241.167,304.5 238.5,307.5C 236.857,307.48 235.524,308.147 234.5,309.5C 233.914,309.291 233.414,308.957 233,308.5C 231.841,311.493 229.675,313.16 226.5,313.5C 199.171,288.171 172.171,262.504 145.5,236.5C 145.917,235.876 146.584,235.543 147.5,235.5C 150.861,237.511 154.194,239.511 157.5,241.5 Z"/></g>
<g><path style="opacity:1" fill="#161515" d="M 376.5,298.5 C 382.113,297.079 384.28,299.079 383,304.5C 380.968,309.365 377.468,312.698 372.5,314.5C 370.283,313.783 368.949,312.283 368.5,310C 370.982,306.021 373.649,302.188 376.5,298.5 Z"/></g>
<g><path style="opacity:0.529" fill="#8f8d8e" d="M 238.5,307.5 C 235.405,312.059 231.405,314.059 226.5,313.5C 229.675,313.16 231.841,311.493 233,308.5C 233.414,308.957 233.914,309.291 234.5,309.5C 235.524,308.147 236.857,307.48 238.5,307.5 Z"/></g>
<g><path style="opacity:0.928" fill="#0a0a0a" d="M 296.5,298.5 C 294.521,300.154 292.855,302.154 291.5,304.5C 290.393,303.978 289.226,303.645 288,303.5C 283.51,304.926 278.843,305.926 274,306.5C 271.347,306.318 268.68,305.985 266,305.5C 266.128,307.445 265.962,309.278 265.5,311C 266.108,311.87 266.941,312.37 268,312.5C 278.874,310.314 289.374,307.981 299.5,305.5C 288.625,310.896 277.125,313.229 265,312.5C 264.713,310.109 264.213,307.776 263.5,305.5C 269.838,304.692 276.171,303.859 282.5,303C 287.095,301.198 291.762,299.698 296.5,298.5 Z"/></g>
<g><path style="opacity:1" fill="#0d0b0c" d="M 359.5,316.5 C 367.113,318.211 368.113,321.711 362.5,327C 358.594,329.364 355.928,328.364 354.5,324C 355.589,321.084 357.256,318.584 359.5,316.5 Z"/></g>
<g><path style="opacity:0.989" fill="#131213" d="M 241.5,338.5 C 249.295,337.891 256.629,337.891 263.5,338.5C 266.49,338.377 269.323,337.71 272,336.5C 278.956,337.003 279.123,335.503 272.5,332C 262.36,331.797 251.86,332.297 241,333.5C 237.022,331.943 232.855,331.11 228.5,331C 217.281,326.442 206.281,322.275 195.5,318.5C 195.94,319.953 195.274,321.119 193.5,322C 196.929,324.723 201.263,326.39 206.5,327C 209.272,328.057 211.605,329.557 213.5,331.5C 205.548,328.905 197.548,326.405 189.5,324C 182.888,322.79 176.222,322.29 169.5,322.5C 174.316,321.674 179.316,321.174 184.5,321C 180.5,320.333 180.5,319.667 184.5,319C 183.542,317.853 183.875,316.853 185.5,316C 178.919,315.813 172.419,315.313 166,314.5C 164.644,315.38 163.144,315.714 161.5,315.5C 161.649,316.552 161.483,317.552 161,318.5C 160.481,317.484 159.647,316.818 158.5,316.5C 153.524,317.432 149.358,319.766 146,323.5C 143.973,323.014 141.807,323.014 139.5,323.5C 149.362,316.237 160.529,312.904 173,313.5C 181.023,313.371 188.856,314.538 196.5,317C 208.178,321.337 219.844,325.67 231.5,330C 271.976,335.723 307.309,325.056 337.5,298C 343.7,290.97 350.033,284.137 356.5,277.5C 359.404,270.598 364.07,265.265 370.5,261.5C 371.833,262.167 372.833,263.167 373.5,264.5C 372.812,268.209 371.312,271.543 369,274.5C 353.996,294.841 335.83,311.674 314.5,325C 291.421,337.452 267.088,341.952 241.5,338.5 Z"/></g>
<g><path style="opacity:0.997" fill="#1b1a1a" d="M 356.5,277.5 C 360.199,274.455 363.199,270.788 365.5,266.5C 367.289,264.967 369.289,263.967 371.5,263.5C 371.174,266.311 370.341,268.978 369,271.5C 361.667,280.167 354.333,288.833 347,297.5C 344.457,296.124 344.291,294.957 346.5,294C 346.043,293.586 345.709,293.086 345.5,292.5C 348.47,288.03 351.97,284.03 356,280.5C 356.483,279.552 356.649,278.552 356.5,277.5 Z"/></g>
<g><path style="opacity:0.999" fill="#191919" d="M 241.5,338.5 C 231.602,338.026 222.269,335.692 213.5,331.5C 211.605,329.557 209.272,328.057 206.5,327C 201.263,326.39 196.929,324.723 193.5,322C 195.274,321.119 195.94,319.953 195.5,318.5C 206.281,322.275 217.281,326.442 228.5,331C 232.855,331.11 237.022,331.943 241,333.5C 251.86,332.297 262.36,331.797 272.5,332C 279.123,335.503 278.956,337.003 272,336.5C 269.323,337.71 266.49,338.377 263.5,338.5C 256.629,337.891 249.295,337.891 241.5,338.5 Z"/></g>
<g><path style="opacity:0.972" fill="#0b0b0b" d="M 373.5,330.5 C 381.877,330.192 383.544,333.358 378.5,340C 370.03,340.531 368.364,337.364 373.5,330.5 Z"/></g>
<g><path style="opacity:0.73" fill="#111111" d="M 334.5,320.5 C 339.17,321.513 340.337,324.18 338,328.5C 334.03,333.475 329.197,337.309 323.5,340C 320.949,344.939 316.949,347.272 311.5,347C 309.813,345.087 309.313,342.92 310,340.5C 313.671,337.58 317.837,336.246 322.5,336.5C 322.337,334.143 322.503,331.81 323,329.5C 327.175,326.842 331.008,323.842 334.5,320.5 Z"/></g>
<g><path style="opacity:0.637" fill="#0a0808" d="M 396.5,250.5 C 396.207,254.437 396.54,258.27 397.5,262C 396.83,300.167 396.164,338.333 395.5,376.5C 379.991,376.83 364.658,376.496 349.5,375.5C 364.5,375.5 379.5,375.5 394.5,375.5C 394.667,334.832 394.5,294.165 394,253.5C 386.513,269.82 377.513,285.153 367,299.5C 362.298,304.37 357.465,309.037 352.5,313.5C 352.062,313.565 351.728,313.399 351.5,313C 368.342,297.069 380.675,279.069 388.5,259C 391.434,255.64 393.101,251.806 393.5,247.5C 394.5,247.5 395.5,247.5 396.5,247.5C 396.5,248.5 396.5,249.5 396.5,250.5 Z"/></g>
<g><path style="opacity:0.996" fill="#171616" d="M 201.5,337.5 C 200.883,337.611 200.383,337.944 200,338.5C 195.725,335.635 191.225,335.135 186.5,337C 189.544,337.359 189.878,338.026 187.5,339C 188.167,339.667 188.833,340.333 189.5,341C 199.384,343.475 208.718,346.975 217.5,351.5C 207.366,347.771 197.033,344.604 186.5,342C 173.817,339.606 162.15,341.939 151.5,349C 144.427,355.402 138.094,362.402 132.5,370C 128.023,370.165 126.523,367.998 128,363.5C 145.589,335.027 170.089,326.36 201.5,337.5 Z"/></g>
<g><path style="opacity:1" fill="#1e1e1e" d="M 201.5,337.5 C 205.462,340.148 209.796,342.315 214.5,344C 217.334,344.045 219.834,344.879 222,346.5C 222.333,346.167 222.667,345.833 223,345.5C 226.935,347.476 230.935,349.142 235,350.5C 235.333,350.167 235.667,349.833 236,349.5C 247.811,350.858 259.645,352.025 271.5,353C 272.833,354 272.833,355 271.5,356C 269.402,356.014 267.569,355.847 266,355.5C 265.667,356.167 265.333,356.833 265,357.5C 252.528,356.727 240.028,355.727 227.5,354.5C 223.838,354.277 220.505,353.277 217.5,351.5C 208.718,346.975 199.384,343.475 189.5,341C 188.833,340.333 188.167,339.667 187.5,339C 189.878,338.026 189.544,337.359 186.5,337C 191.225,335.135 195.725,335.635 200,338.5C 200.383,337.944 200.883,337.611 201.5,337.5 Z"/></g>
<g><path style="opacity:1" fill="#151515" d="M 201.5,337.5 C 213.958,341.949 226.624,345.782 239.5,349C 251.221,349.466 262.887,350.299 274.5,351.5C 282.937,349.443 291.27,346.943 299.5,344C 305.5,343.667 306.833,346 303.5,351C 295.006,356.045 286.006,358.045 276.5,357C 275.167,351 273.833,351 272.5,357C 261.19,358.728 249.857,358.728 238.5,357C 234.57,356.758 230.903,355.925 227.5,354.5C 240.028,355.727 252.528,356.727 265,357.5C 265.333,356.833 265.667,356.167 266,355.5C 267.569,355.847 269.402,356.014 271.5,356C 272.833,355 272.833,354 271.5,353C 259.645,352.025 247.811,350.858 236,349.5C 235.667,349.833 235.333,350.167 235,350.5C 230.935,349.142 226.935,347.476 223,345.5C 222.667,345.833 222.333,346.167 222,346.5C 219.834,344.879 217.334,344.045 214.5,344C 209.796,342.315 205.462,340.148 201.5,337.5 Z"/></g>
<g><path style="opacity:1" fill="#141314" d="M 343.5,348.5 C 349.372,350.342 350.872,354.009 348,359.5C 342.2,363.072 338.367,361.572 336.5,355C 337.473,351.188 339.806,349.021 343.5,348.5 Z"/></g>
<g><path style="opacity:1" fill="#0e0d0d" d="M 373.5,347.5 C 378.021,347.687 380.688,350.02 381.5,354.5C 376.833,362.5 372.167,362.5 367.5,354.5C 368.833,351.507 370.833,349.173 373.5,347.5 Z"/></g>
<g><path style="opacity:1" fill="#141213" d="M 187.5,350.5 C 193.89,350.383 196.39,353.383 195,359.5C 189.613,365.153 185.447,364.32 182.5,357C 183.283,354.062 184.95,351.896 187.5,350.5 Z"/></g>
<g><path style="opacity:0.412" fill="#131212" d="M 164.5,352.5 C 167.187,352.336 169.854,352.503 172.5,353C 174.515,354.555 174.848,356.389 173.5,358.5C 166.874,360.093 160.874,362.926 155.5,367C 152.534,367.895 149.867,367.395 147.5,365.5C 148.128,363.742 149.128,362.242 150.5,361C 155.097,357.877 159.763,355.043 164.5,352.5 Z"/></g>
<g><path style="opacity:0.763" fill="#131213" d="M 124.5,348.5 C 124.013,349.473 123.513,350.473 123,351.5C 122.5,359.493 122.334,367.493 122.5,375.5C 198.167,375.5 273.833,375.5 349.5,375.5C 364.658,376.496 379.991,376.83 395.5,376.5C 303.664,377.729 211.664,377.563 119.5,376C 120.317,367.912 120.817,359.745 121,351.5C 121.759,349.937 122.926,348.937 124.5,348.5 Z"/></g>
<g><path style="opacity:0.6" fill="#0d0d0f" d="M 236.5,386.5 C 198.511,387.821 160.511,387.821 122.5,386.5C 122.666,391.179 122.499,395.845 122,400.5C 121.623,401.942 120.79,402.942 119.5,403.5C 120.766,397.969 120.766,392.469 119.5,387C 120.891,385.98 122.391,385.147 124,384.5C 160.943,385.816 197.61,385.816 234,384.5C 234.995,385.066 235.828,385.733 236.5,386.5 Z"/></g>
<g><path style="opacity:0.66" fill="#0f0f11" d="M 392.5,386.5 C 340.831,387.644 289.164,387.644 237.5,386.5C 245.235,385.819 253.068,385.152 261,384.5C 290.39,385.811 320.057,385.811 350,384.5C 364.265,385.159 378.431,385.825 392.5,386.5 Z"/></g>
</svg>
