<?xml version="1.0" encoding="UTF-8"?>
<!DOCTYPE svg PUBLIC "-//W3C//DTD SVG 1.1//EN" "http://www.w3.org/Graphics/SVG/1.1/DTD/svg11.dtd">
<svg xmlns="http://www.w3.org/2000/svg" version="1.1" width="500px" height="500px" style="shape-rendering:geometricPrecision; text-rendering:geometricPrecision; image-rendering:optimizeQuality; fill-rule:evenodd; clip-rule:evenodd" xmlns:xlink="http://www.w3.org/1999/xlink">
<g><path style="opacity:0.492" fill="#010101" d="M 228.5,96.5 C 238.333,99.2676 248.666,101.434 259.5,103C 261.066,103.608 262.4,104.442 263.5,105.5C 243.99,101.784 224.656,97.7842 205.5,93.5C 206.915,93.906 208.081,93.2393 209,91.5C 211.871,91.701 214.537,93.0344 217,95.5C 217.561,94.9781 218.228,94.6448 219,94.5C 222.171,95.2223 225.338,95.8889 228.5,96.5 Z"/></g>
<g><path style="opacity:0.479" fill="#020202" d="M 225.5,90.5 C 258.702,97.1389 291.702,104.139 324.5,111.5C 313.132,109.593 301.132,107.593 288.5,105.5C 280.216,103.986 272.216,101.986 264.5,99.5C 263.558,99.6082 262.725,99.9415 262,100.5C 250.732,96.8365 239.899,94.1699 229.5,92.5C 228.005,92.0113 226.671,91.3446 225.5,90.5 Z"/></g>
<g><path style="opacity:0.999" fill="#0c0c0c" d="M 229.5,92.5 C 239.899,94.1699 250.732,96.8365 262,100.5C 262.725,99.9415 263.558,99.6082 264.5,99.5C 272.216,101.986 280.216,103.986 288.5,105.5C 288.201,106.76 288.201,107.927 288.5,109C 290.367,109.711 291.867,109.211 293,107.5C 293.617,108.449 293.451,109.282 292.5,110C 297.312,111.328 302.145,112.495 307,113.5C 307.333,113.167 307.667,112.833 308,112.5C 310.247,114.155 312.58,114.488 315,113.5C 316.491,115.004 318.324,115.837 320.5,116C 319.874,116.75 319.374,117.584 319,118.5C 315.408,118.721 311.575,118.054 307.5,116.5C 309.199,116.66 310.866,116.494 312.5,116C 296.029,112.94 279.695,109.44 263.5,105.5C 262.4,104.442 261.066,103.608 259.5,103C 248.666,101.434 238.333,99.2676 228.5,96.5C 228.833,95.1667 229.167,93.8333 229.5,92.5 Z"/></g>
<g><path style="opacity:0.978" fill="#131314" d="M 173.5,121.5 C 170.751,122.489 168.751,121.489 167.5,118.5C 168.822,118.67 169.989,118.337 171,117.5C 171.346,114.424 172.012,111.424 173,108.5C 173.75,107.874 174.584,107.374 175.5,107C 174.663,105.989 174.33,104.822 174.5,103.5C 175.496,103.586 176.329,103.252 177,102.5C 176.981,104.107 176.815,105.774 176.5,107.5C 182.004,107.094 185.004,104.094 185.5,98.5C 186.725,97.063 187.725,95.3964 188.5,93.5C 186.009,92.4593 186.009,91.6259 188.5,91C 187.833,90.6667 187.167,90.3333 186.5,90C 189.181,86.9464 188.348,85.1131 184,84.5C 182.961,85.2438 182.461,86.2438 182.5,87.5C 181.903,87.7352 181.57,88.2352 181.5,89C 182.518,90.9346 183.352,92.7679 184,94.5C 182.307,93.8155 180.807,92.8155 179.5,91.5C 179.331,92.3966 178.998,93.3966 178.5,94.5C 174.283,92.5423 173.617,89.8756 176.5,86.5C 178.917,83.7708 181.917,81.7708 185.5,80.5C 188.675,83.0055 191.009,86.1722 192.5,90C 192.455,93.5316 192.455,97.0316 192.5,100.5C 192.977,101.478 193.643,102.311 194.5,103C 194.167,103.333 193.833,103.667 193.5,104C 194.791,106.272 195.457,108.439 195.5,110.5C 193.922,111.298 192.256,111.798 190.5,112C 192.595,112.556 192.762,113.056 191,113.5C 188.667,111.833 186.333,110.167 184,108.5C 181.216,110.28 178.716,112.447 176.5,115C 177.433,117.848 178.933,118.014 181,115.5C 181.324,117.569 182.158,117.902 183.5,116.5C 184.478,116.977 185.311,117.643 186,118.5C 188.247,115.973 190.747,115.473 193.5,117C 192.167,118 192.167,119 193.5,120C 188.249,120.804 183.082,120.637 178,119.5C 176.378,120.099 174.878,120.766 173.5,121.5 Z M 182.5,87.5 C 183.858,86.3744 185.192,86.3744 186.5,87.5C 185.127,90.1402 183.794,90.1402 182.5,87.5 Z"/></g>
<g><path style="opacity:0.33" fill="#030303" d="M 174.5,103.5 C 174.33,104.822 174.663,105.989 175.5,107C 174.584,107.374 173.75,107.874 173,108.5C 172.012,111.424 171.346,114.424 171,117.5C 169.989,118.337 168.822,118.67 167.5,118.5C 161.833,117.833 156.167,117.167 150.5,116.5C 156.833,116.5 163.167,116.5 169.5,116.5C 171.333,109.843 172.833,103.176 174,96.5C 164.24,102.629 154.74,109.129 145.5,116C 146.793,116.49 148.127,116.657 149.5,116.5C 148.432,117.434 147.099,117.768 145.5,117.5C 142.431,118.927 141.431,118.094 142.5,115C 149.167,111 155.833,107 162.5,103C 166.682,100.074 170.682,96.9075 174.5,93.5C 175.72,93.8869 176.387,94.7202 176.5,96C 176.461,98.3918 175.794,100.892 174.5,103.5 Z M 150.5,116.5 C 150.167,116.5 149.833,116.5 149.5,116.5C 148.127,116.657 146.793,116.49 145.5,116C 154.74,109.129 164.24,102.629 174,96.5C 172.833,103.176 171.333,109.843 169.5,116.5C 163.167,116.5 156.833,116.5 150.5,116.5 Z"/></g>
<g><path style="opacity:0.999" fill="#09090a" d="M 225.5,90.5 C 226.671,91.3446 228.005,92.0113 229.5,92.5C 229.167,93.8333 228.833,95.1667 228.5,96.5C 225.338,95.8889 222.171,95.2223 219,94.5C 218.228,94.6448 217.561,94.9781 217,95.5C 214.537,93.0344 211.871,91.701 209,91.5C 208.081,93.2393 206.915,93.906 205.5,93.5C 201.552,93.3145 197.719,92.6478 194,91.5C 195.294,99.81 196.794,108.143 198.5,116.5C 233.5,116.5 268.5,116.5 303.5,116.5C 302.469,117.249 301.302,117.915 300,118.5C 297.068,118.477 294.235,118.477 291.5,118.5C 272.809,117.831 254.142,117.831 235.5,118.5C 226.093,117.054 216.76,117.221 207.5,119C 205.384,120.171 204.718,121.671 205.5,123.5C 209.3,122.22 213.133,122.22 217,123.5C 219.899,123.023 222.566,122.023 225,120.5C 229.451,122.319 229.284,123.986 224.5,125.5C 223.266,128.407 221.266,130.741 218.5,132.5C 214.889,130.777 211.722,128.444 209,125.5C 208.493,126.996 208.993,128.163 210.5,129C 209.72,130.073 209.887,131.24 211,132.5C 213.861,132.092 214.028,132.925 211.5,135C 208.957,135.14 206.623,135.806 204.5,137C 205.167,137.667 205.833,138.333 206.5,139C 211.155,139.499 215.821,139.666 220.5,139.5C 238.069,140.824 255.736,140.824 273.5,139.5C 273.869,141.441 274.536,143.275 275.5,145C 275.167,146 274.833,147 274.5,148C 275.701,148.903 276.535,150.069 277,151.5C 277.374,150.584 277.874,149.75 278.5,149C 277.754,146.907 277.421,144.907 277.5,143C 278.211,141.745 279.044,140.579 280,139.5C 281.749,140.299 283.082,139.632 284,137.5C 285.518,137.057 286.685,137.724 287.5,139.5C 288.314,141.766 288.814,144.1 289,146.5C 289.71,145.027 290.876,144.36 292.5,144.5C 292.5,142.833 292.5,141.167 292.5,139.5C 297.986,140.018 303.319,140.685 308.5,141.5C 303.833,141.5 299.167,141.5 294.5,141.5C 294.714,143.144 294.38,144.644 293.5,146C 295.917,148.479 296.917,151.479 296.5,155C 297.051,159.447 295.384,162.781 291.5,165C 292.435,167.381 292.768,169.881 292.5,172.5C 291.414,172.38 290.747,171.713 290.5,170.5C 292.058,167.298 291.391,165.631 288.5,165.5C 290.184,163.649 292.017,161.982 294,160.5C 294.68,158.024 293.847,156.191 291.5,155C 295.107,155.592 295.274,154.759 292,152.5C 290.793,158.862 286.959,161.362 280.5,160C 278.056,159.196 276.222,157.696 275,155.5C 273.745,156.211 272.579,157.044 271.5,158C 272.337,159.011 272.67,160.178 272.5,161.5C 270.967,159.366 270.3,156.866 270.5,154C 271.415,149.898 272.082,145.731 272.5,141.5C 248.833,141.5 225.167,141.5 201.5,141.5C 201.5,145.833 201.5,150.167 201.5,154.5C 200.352,150.019 200.185,145.352 201,140.5C 204.742,140.045 205.242,138.712 202.5,136.5C 201.914,136.709 201.414,137.043 201,137.5C 199.535,134.647 197.869,131.981 196,129.5C 196.005,131.917 195.172,134.251 193.5,136.5C 192.178,136.33 191.011,136.663 190,137.5C 189.536,136.906 189.369,136.239 189.5,135.5C 190.5,135.5 191.5,135.5 192.5,135.5C 192.5,131.167 192.5,126.833 192.5,122.5C 187.167,122.5 181.833,122.5 176.5,122.5C 175.903,127.294 176.57,131.627 178.5,135.5C 177.48,136.954 176.313,137.287 175,136.5C 174.764,134.236 174.264,132.069 173.5,130C 174.394,127.932 175.06,125.765 175.5,123.5C 175.253,122.287 174.586,121.62 173.5,121.5C 174.878,120.766 176.378,120.099 178,119.5C 183.082,120.637 188.249,120.804 193.5,120C 192.167,119 192.167,118 193.5,117C 190.747,115.473 188.247,115.973 186,118.5C 185.311,117.643 184.478,116.977 183.5,116.5C 182.158,117.902 181.324,117.569 181,115.5C 178.933,118.014 177.433,117.848 176.5,115C 178.716,112.447 181.216,110.28 184,108.5C 186.333,110.167 188.667,111.833 191,113.5C 192.762,113.056 192.595,112.556 190.5,112C 192.256,111.798 193.922,111.298 195.5,110.5C 195.457,108.439 194.791,106.272 193.5,104C 193.833,103.667 194.167,103.333 194.5,103C 193.643,102.311 192.977,101.478 192.5,100.5C 192.455,97.0316 192.455,93.5316 192.5,90C 191.009,86.1722 188.675,83.0055 185.5,80.5C 181.917,81.7708 178.917,83.7708 176.5,86.5C 180.836,78.1121 186.503,77.2787 193.5,84C 204.361,85.861 215.027,88.0277 225.5,90.5 Z M 182.5,110.5 C 185.084,110.569 187.084,111.735 188.5,114C 185.5,114.667 182.5,114.667 179.5,114C 180.71,112.961 181.71,111.794 182.5,110.5 Z M 189.5,135.5 C 185.622,135.305 181.956,135.305 178.5,135.5C 176.57,131.627 175.903,127.294 176.5,122.5C 181.833,122.5 187.167,122.5 192.5,122.5C 192.5,126.833 192.5,131.167 192.5,135.5C 191.5,135.5 190.5,135.5 189.5,135.5 Z M 224.5,125.5 C 222.519,127.144 220.519,128.81 218.5,130.5C 215.696,128.862 213.029,127.029 210.5,125C 215.22,124.779 219.887,124.279 224.5,123.5C 225.463,123.97 225.463,124.637 224.5,125.5 Z M 200.5,126.5 C 204.161,127.648 207.161,129.814 209.5,133C 206.574,133.218 203.74,133.718 201,134.5C 200.503,131.854 200.336,129.187 200.5,126.5 Z M 280.5,141.5 C 282.924,141.192 285.257,141.526 287.5,142.5C 286.333,142.833 285.167,143.167 284,143.5C 282.319,143.392 281.152,142.725 280.5,141.5 Z M 279.5,151.5 C 282.187,151.336 284.854,151.503 287.5,152C 289.145,157.359 287.145,159.693 281.5,159C 278.554,157.047 277.887,154.547 279.5,151.5 Z"/></g>
<g><path style="opacity:0.989" fill="#111111" d="M 288.5,105.5 C 301.132,107.593 313.132,109.593 324.5,111.5C 329.107,113.205 333.607,115.205 338,117.5C 342.62,117.151 347.12,117.151 351.5,117.5C 351.511,119.017 352.177,120.184 353.5,121C 352.906,121.464 352.239,121.631 351.5,121.5C 345.635,121.973 339.635,122.639 333.5,123.5C 329.622,123.719 325.956,124.719 322.5,126.5C 322.264,125.753 321.93,124.92 321.5,124C 322.167,123.667 322.833,123.333 323.5,123C 319.582,121.28 315.582,121.113 311.5,122.5C 309.68,122.351 308.18,121.684 307,120.5C 305.282,121.85 303.448,123.017 301.5,124C 303.041,125.371 304.375,126.871 305.5,128.5C 304.167,129.833 304.167,131.167 305.5,132.5C 303.5,131.5 301.5,130.5 299.5,129.5C 299.001,126.611 297.501,125.944 295,127.5C 294.333,124.833 293.667,124.833 293,127.5C 290.457,126.124 290.291,124.957 292.5,124C 291.244,123.583 290.577,122.75 290.5,121.5C 290.918,120.778 291.584,120.278 292.5,120C 291.944,119.617 291.611,119.117 291.5,118.5C 294.235,118.477 297.068,118.477 300,118.5C 301.302,117.915 302.469,117.249 303.5,116.5C 304.833,116.5 306.167,116.5 307.5,116.5C 311.575,118.054 315.408,118.721 319,118.5C 319.374,117.584 319.874,116.75 320.5,116C 318.324,115.837 316.491,115.004 315,113.5C 312.58,114.488 310.247,114.155 308,112.5C 307.667,112.833 307.333,113.167 307,113.5C 302.145,112.495 297.312,111.328 292.5,110C 293.451,109.282 293.617,108.449 293,107.5C 291.867,109.211 290.367,109.711 288.5,109C 288.201,107.927 288.201,106.76 288.5,105.5 Z"/></g>
<g><path style="opacity:0.999" fill="#0e0e0e" d="M 185.5,98.5 C 185.004,104.094 182.004,107.094 176.5,107.5C 176.815,105.774 176.981,104.107 177,102.5C 176.329,103.252 175.496,103.586 174.5,103.5C 175.794,100.892 176.461,98.3918 176.5,96C 176.387,94.7202 175.72,93.8869 174.5,93.5C 170.682,96.9075 166.682,100.074 162.5,103C 155.833,107 149.167,111 142.5,115C 141.431,118.094 142.431,118.927 145.5,117.5C 145.714,119.144 145.38,120.644 144.5,122C 145.094,122.464 145.761,122.631 146.5,122.5C 145.132,123.306 143.799,124.306 142.5,125.5C 141.482,124.807 140.482,124.141 139.5,123.5C 138.129,120.19 136.796,120.023 135.5,123C 136.167,123.333 136.833,123.667 137.5,124C 135.083,125.144 134.416,126.81 135.5,129C 134.906,129.464 134.239,129.631 133.5,129.5C 133.5,127.833 133.5,126.167 133.5,124.5C 126.833,124.5 120.167,124.5 113.5,124.5C 113.5,126.833 113.5,129.167 113.5,131.5C 111.682,129.433 109.349,128.1 106.5,127.5C 106.5,124.5 106.5,121.5 106.5,118.5C 115.884,118.816 125.218,118.316 134.5,117C 138.031,114.597 141.031,111.763 143.5,108.5C 154.32,100.922 165.32,93.5882 176.5,86.5C 173.617,89.8756 174.283,92.5423 178.5,94.5C 178.998,93.3966 179.331,92.3966 179.5,91.5C 180.807,92.8155 182.307,93.8155 184,94.5C 183.352,92.7679 182.518,90.9346 181.5,89C 181.57,88.2352 181.903,87.7352 182.5,87.5C 182.461,86.2438 182.961,85.2438 184,84.5C 188.348,85.1131 189.181,86.9464 186.5,90C 187.167,90.3333 187.833,90.6667 188.5,91C 186.009,91.6259 186.009,92.4593 188.5,93.5C 187.725,95.3964 186.725,97.063 185.5,98.5 Z M 185.5,98.5 C 184.133,99.8526 183.133,99.5193 182.5,97.5C 184.052,96.2021 185.052,96.5354 185.5,98.5 Z M 182.5,87.5 C 183.794,90.1402 185.127,90.1402 186.5,87.5C 185.192,86.3744 183.858,86.3744 182.5,87.5 Z"/></g>
<g><path style="opacity:0.221" fill="#040404" d="M 324.5,111.5 C 331.745,113.301 339.078,114.801 346.5,116C 358.829,116.5 371.162,116.667 383.5,116.5C 383.5,124.833 383.5,133.167 383.5,141.5C 378.679,142.597 374.013,142.597 369.5,141.5C 371.415,141.784 373.081,141.451 374.5,140.5C 377.489,140.005 380.156,139.505 382.5,139C 381.615,132.529 381.281,125.696 381.5,118.5C 371.681,117.506 361.681,117.173 351.5,117.5C 347.12,117.151 342.62,117.151 338,117.5C 333.607,115.205 329.107,113.205 324.5,111.5 Z"/></g>
<g><path style="opacity:1" fill="#151515" d="M 381.5,118.5 C 381.281,125.696 381.615,132.529 382.5,139C 380.156,139.505 377.489,140.005 374.5,140.5C 373.761,140.631 373.094,140.464 372.5,140C 374.167,139.667 375.833,139.333 377.5,139C 376.584,138.626 375.75,138.126 375,137.5C 373.612,138.554 372.112,138.72 370.5,138C 372.976,136.57 375.142,134.737 377,132.5C 377.667,129.5 377.667,126.5 377,123.5C 376,122.167 375,122.167 374,123.5C 372.562,122.1 371.729,120.433 371.5,118.5C 374.833,118.5 378.167,118.5 381.5,118.5 Z"/></g>
<g><path style="opacity:0.392" fill="#030302" d="M 231.5,126.5 C 229.706,128.797 227.706,130.963 225.5,133C 229.833,133.667 234.167,133.667 238.5,133C 236.627,131.296 234.96,129.463 233.5,127.5C 233.833,127.5 234.167,127.5 234.5,127.5C 236.546,129.279 238.713,130.946 241,132.5C 241.239,133.788 240.739,134.788 239.5,135.5C 234.179,135.18 229.012,134.846 224,134.5C 225.196,130.798 227.696,128.131 231.5,126.5 Z"/></g>
<g><path style="opacity:1" fill="#050507" d="M 290.5,121.5 C 290.577,122.75 291.244,123.583 292.5,124C 290.291,124.957 290.457,126.124 293,127.5C 293.667,124.833 294.333,124.833 295,127.5C 297.501,125.944 299.001,126.611 299.5,129.5C 301.5,130.5 303.5,131.5 305.5,132.5C 306.78,134.106 306.28,135.106 304,135.5C 298.78,134.425 293.78,135.092 289,137.5C 288.395,135.519 287.395,135.185 286,136.5C 284.164,134.038 284.997,132.538 288.5,132C 287.833,131.667 287.167,131.333 286.5,131C 286.854,129.374 286.854,127.541 286.5,125.5C 287.756,125.539 288.756,125.039 289.5,124C 284.167,123.333 278.833,123.333 273.5,124C 273.167,124.333 272.833,124.667 272.5,125C 274.114,127.127 276.114,128.627 278.5,129.5C 275.857,130.979 273.357,130.646 271,128.5C 271.24,130.467 272.073,132.3 273.5,134C 273.43,134.765 273.097,135.265 272.5,135.5C 269.941,135.802 267.607,135.468 265.5,134.5C 267.527,134.662 269.527,134.495 271.5,134C 268.952,131.115 266.118,128.615 263,126.5C 260.498,128.342 258.332,130.508 256.5,133C 259.365,133.183 262.031,133.683 264.5,134.5C 261.569,135.332 258.402,135.666 255,135.5C 252.619,133.285 253.453,131.452 257.5,130C 255.924,129.56 254.59,128.727 253.5,127.5C 251.627,129.721 249.293,131.054 246.5,131.5C 243.825,131.469 242.491,130.136 242.5,127.5C 240.567,127.271 238.9,126.438 237.5,125C 238.167,124.667 238.833,124.333 239.5,124C 245.331,123.682 251.165,122.515 257,120.5C 257.833,121.333 258.667,122.167 259.5,123C 258.055,124.71 257.222,126.544 257,128.5C 260.785,124.549 264.785,122.883 269,123.5C 271.151,123.235 272.818,122.235 274,120.5C 274.333,121.167 274.667,121.833 275,122.5C 278.073,122.938 281.073,122.271 284,120.5C 286.041,121.423 288.208,121.756 290.5,121.5 Z M 265.5,134.5 C 265.167,134.5 264.833,134.5 264.5,134.5C 262.031,133.683 259.365,133.183 256.5,133C 258.332,130.508 260.498,128.342 263,126.5C 266.118,128.615 268.952,131.115 271.5,134C 269.527,134.495 267.527,134.662 265.5,134.5 Z M 286.5,125.5 C 285.508,125.328 284.842,125.662 284.5,126.5C 282.716,126.893 281.05,127.559 279.5,128.5C 278.833,128.5 278.5,128.833 278.5,129.5C 276.114,128.627 274.114,127.127 272.5,125C 272.833,124.667 273.167,124.333 273.5,124C 278.833,123.333 284.167,123.333 289.5,124C 288.756,125.039 287.756,125.539 286.5,125.5 Z M 299.5,129.5 C 300.29,130.794 301.29,131.961 302.5,133C 298.145,133.634 293.812,133.967 289.5,134C 291.705,131.46 294.205,129.293 297,127.5C 297.708,128.381 298.542,129.047 299.5,129.5 Z M 242.5,127.5 C 242.047,126.542 241.381,125.708 240.5,125C 245.513,124.331 250.513,123.997 255.5,124C 252.656,126.181 249.822,128.347 247,130.5C 245.357,129.685 243.857,128.685 242.5,127.5 Z"/></g>
<g><path style="opacity:0.508" fill="#2b2d2f" d="M 284.5,126.5 C 285.833,127.5 285.833,128.5 284.5,129.5C 281.629,128.014 280.295,129.014 280.5,132.5C 279.566,131.432 279.232,130.099 279.5,128.5C 281.05,127.559 282.716,126.893 284.5,126.5 Z"/></g>
<g><path style="opacity:0.996" fill="#111111" d="M 235.5,118.5 C 235.611,119.117 235.944,119.617 236.5,120C 234.5,120.667 232.5,121.333 230.5,122C 232.167,122.333 233.833,122.667 235.5,123C 233.956,123.29 232.623,123.956 231.5,125C 232.942,125.377 233.942,126.21 234.5,127.5C 234.167,127.5 233.833,127.5 233.5,127.5C 232.833,127.167 232.167,126.833 231.5,126.5C 227.696,128.131 225.196,130.798 224,134.5C 229.012,134.846 234.179,135.18 239.5,135.5C 240.978,135.238 242.311,135.571 243.5,136.5C 242.092,137.243 240.759,138.077 239.5,139C 233.175,139.5 226.842,139.666 220.5,139.5C 215.821,139.666 211.155,139.499 206.5,139C 205.833,138.333 205.167,137.667 204.5,137C 206.623,135.806 208.957,135.14 211.5,135C 214.028,132.925 213.861,132.092 211,132.5C 209.887,131.24 209.72,130.073 210.5,129C 208.993,128.163 208.493,126.996 209,125.5C 211.722,128.444 214.889,130.777 218.5,132.5C 221.266,130.741 223.266,128.407 224.5,125.5C 229.284,123.986 229.451,122.319 225,120.5C 222.566,122.023 219.899,123.023 217,123.5C 213.133,122.22 209.3,122.22 205.5,123.5C 204.718,121.671 205.384,120.171 207.5,119C 216.76,117.221 226.093,117.054 235.5,118.5 Z"/></g>
<g><path style="opacity:0.998" fill="#0d0d0d" d="M 351.5,117.5 C 361.681,117.173 371.681,117.506 381.5,118.5C 378.167,118.5 374.833,118.5 371.5,118.5C 371.729,120.433 372.562,122.1 374,123.5C 375,122.167 376,122.167 377,123.5C 377.667,126.5 377.667,129.5 377,132.5C 375.142,134.737 372.976,136.57 370.5,138C 372.112,138.72 373.612,138.554 375,137.5C 375.75,138.126 376.584,138.626 377.5,139C 375.833,139.333 374.167,139.667 372.5,140C 373.094,140.464 373.761,140.631 374.5,140.5C 373.081,141.451 371.415,141.784 369.5,141.5C 349.833,141.5 330.167,141.5 310.5,141.5C 310.369,140.761 310.536,140.094 311,139.5C 317.488,140.847 323.988,140.681 330.5,139C 331.167,138.333 331.833,137.667 332.5,137C 327.536,136.088 322.536,135.588 317.5,135.5C 318.505,128.416 316.338,127.75 311,133.5C 309.296,131.627 307.463,129.96 305.5,128.5C 304.375,126.871 303.041,125.371 301.5,124C 303.448,123.017 305.282,121.85 307,120.5C 308.18,121.684 309.68,122.351 311.5,122.5C 315.582,121.113 319.582,121.28 323.5,123C 322.833,123.333 322.167,123.667 321.5,124C 321.93,124.92 322.264,125.753 322.5,126.5C 325.956,124.719 329.622,123.719 333.5,123.5C 335.582,125.769 337.582,128.269 339.5,131C 342.34,131.949 344.84,133.449 347,135.5C 354.017,135.307 360.85,135.307 367.5,135.5C 368.521,134.998 368.688,134.332 368,133.5C 366.413,133.658 364.913,132.991 363.5,131.5C 361.5,130.167 359.833,128.5 358.5,126.5C 357.116,125.199 355.616,125.199 354,126.5C 353.215,124.751 352.382,123.084 351.5,121.5C 352.239,121.631 352.906,121.464 353.5,121C 352.177,120.184 351.511,119.017 351.5,117.5 Z M 358.5,126.5 C 359.833,128.5 361.5,130.167 363.5,131.5C 363.611,132.117 363.944,132.617 364.5,133C 350.052,136.964 348.052,134.797 358.5,126.5 Z M 325.5,126.5 C 328.563,128.051 331.229,130.218 333.5,133C 328.953,134.545 324.287,134.879 319.5,134C 321.334,131.337 323.334,128.837 325.5,126.5 Z M 367.5,125.5 C 369.948,124.527 372.615,124.194 375.5,124.5C 375.663,126.857 375.497,129.19 375,131.5C 372.561,129.371 370.061,127.371 367.5,125.5 Z M 335.5,124.5 C 340.015,123.188 344.682,123.188 349.5,124.5C 347.753,127.251 345.42,129.251 342.5,130.5C 340.184,128.604 337.85,126.604 335.5,124.5 Z M 314.5,123.5 C 315.873,123.343 317.207,123.51 318.5,124C 316,126.5 313.5,129 311,131.5C 308.833,129.333 306.667,127.167 304.5,125C 308.025,124.821 311.359,124.321 314.5,123.5 Z"/></g>
<g><path style="opacity:1" fill="#050506" d="M 351.5,121.5 C 352.382,123.084 353.215,124.751 354,126.5C 355.616,125.199 357.116,125.199 358.5,126.5C 348.052,134.797 350.052,136.964 364.5,133C 363.944,132.617 363.611,132.117 363.5,131.5C 364.913,132.991 366.413,133.658 368,133.5C 368.688,134.332 368.521,134.998 367.5,135.5C 360.85,135.307 354.017,135.307 347,135.5C 344.84,133.449 342.34,131.949 339.5,131C 337.582,128.269 335.582,125.769 333.5,123.5C 339.635,122.639 345.635,121.973 351.5,121.5 Z M 335.5,124.5 C 337.85,126.604 340.184,128.604 342.5,130.5C 345.42,129.251 347.753,127.251 349.5,124.5C 344.682,123.188 340.015,123.188 335.5,124.5 Z"/></g>
<g><path style="opacity:0.98" fill="#101010" d="M 149.5,116.5 C 149.833,116.5 150.167,116.5 150.5,116.5C 156.167,117.167 161.833,117.833 167.5,118.5C 168.751,121.489 170.751,122.489 173.5,121.5C 174.586,121.62 175.253,122.287 175.5,123.5C 175.06,125.765 174.394,127.932 173.5,130C 174.264,132.069 174.764,134.236 175,136.5C 176.313,137.287 177.48,136.954 178.5,135.5C 181.956,135.305 185.622,135.305 189.5,135.5C 189.369,136.239 189.536,136.906 190,137.5C 191.011,136.663 192.178,136.33 193.5,136.5C 192.235,137.479 190.901,138.479 189.5,139.5C 188.808,138.975 188.308,138.308 188,137.5C 187.667,137.833 187.333,138.167 187,138.5C 186.161,137.376 184.994,136.709 183.5,136.5C 180.944,137.524 178.277,138.358 175.5,139C 174.216,140.297 174.383,141.464 176,142.5C 178.481,140.686 181.315,140.02 184.5,140.5C 183.391,141.29 182.058,141.79 180.5,142C 182.461,143.906 182.794,145.739 181.5,147.5C 178.864,146.029 176.364,144.363 174,142.5C 173.536,143.094 173.369,143.761 173.5,144.5C 172.694,145.997 172.028,147.664 171.5,149.5C 171.664,152.516 171.997,155.516 172.5,158.5C 172.611,159.117 172.944,159.617 173.5,160C 171.84,161.264 170.173,161.764 168.5,161.5C 168.714,159.856 168.38,158.356 167.5,157C 168.47,153.152 169.136,149.486 169.5,146C 168.944,143.763 167.944,141.763 166.5,140C 161.296,140.044 155.63,139.877 149.5,139.5C 145.244,139.572 141.244,140.239 137.5,141.5C 137.389,140.883 137.056,140.383 136.5,140C 133.076,139.253 129.743,139.42 126.5,140.5C 125.531,139.691 124.698,138.691 124,137.5C 123.211,141.091 123.378,144.591 124.5,148C 123.667,148.833 122.833,149.667 122,150.5C 121.23,146.325 120.063,142.991 118.5,140.5C 118.167,140.5 117.833,140.5 117.5,140.5C 116.292,139.218 114.958,139.218 113.5,140.5C 113.047,142.565 112.047,144.232 110.5,145.5C 109.818,144.757 109.151,144.091 108.5,143.5C 109.161,141.113 108.661,138.78 107,136.5C 106.502,133.518 106.335,130.518 106.5,127.5C 109.349,128.1 111.682,129.433 113.5,131.5C 114.374,132.525 115.541,133.192 117,133.5C 122.122,132.323 126.955,132.323 131.5,133.5C 133.002,132.917 134.335,132.084 135.5,131C 134.906,130.536 134.239,130.369 133.5,130.5C 133.5,130.167 133.5,129.833 133.5,129.5C 134.239,129.631 134.906,129.464 135.5,129C 134.416,126.81 135.083,125.144 137.5,124C 136.833,123.667 136.167,123.333 135.5,123C 136.796,120.023 138.129,120.19 139.5,123.5C 139.624,126.707 139.291,130.041 138.5,133.5C 138.868,134.91 139.701,135.91 141,136.5C 145.179,135.346 149.346,133.512 153.5,131C 152.167,130.333 152.167,129.667 153.5,129C 155.664,128.086 157.664,126.919 159.5,125.5C 160.5,126 161.5,126.5 162.5,127C 161.167,129.667 159.167,131.667 156.5,133C 157.333,134.5 158.5,135.667 160,136.5C 163.076,135.712 166.242,135.212 169.5,135C 169.833,132 170.167,129 170.5,126C 169.78,123.878 168.613,123.378 167,124.5C 164.904,123.285 165.071,122.451 167.5,122C 166.181,120.372 164.848,120.539 163.5,122.5C 161.177,121.169 159.177,121.502 157.5,123.5C 156.833,123.5 156.167,123.5 155.5,123.5C 154.531,122.691 153.698,121.691 153,120.5C 151.603,123.559 149.437,124.225 146.5,122.5C 145.761,122.631 145.094,122.464 144.5,122C 145.38,120.644 145.714,119.144 145.5,117.5C 147.099,117.768 148.432,117.434 149.5,116.5 Z M 140.5,126.5 C 142.812,128.146 144.812,130.146 146.5,132.5C 144.604,133.466 142.604,133.799 140.5,133.5C 140.5,131.167 140.5,128.833 140.5,126.5 Z M 167.5,125.5 C 168.473,127.948 168.806,130.615 168.5,133.5C 165.482,133.665 162.482,133.498 159.5,133C 162.062,130.267 164.729,127.767 167.5,125.5 Z M 155.5,123.5 C 156.167,123.5 156.833,123.5 157.5,123.5C 158.239,123.369 158.906,123.536 159.5,124C 156.166,125.331 153.166,127.165 150.5,129.5C 149.307,127.473 147.64,125.973 145.5,125C 149.025,124.821 152.359,124.321 155.5,123.5 Z M 126.5,140.5 C 128.265,141.461 130.265,141.795 132.5,141.5C 132.5,144.167 132.5,146.833 132.5,149.5C 130.167,149.5 127.833,149.5 125.5,149.5C 125.19,146.287 125.523,143.287 126.5,140.5 Z"/></g>
<g><path style="opacity:0.373" fill="#010201" d="M 133.5,130.5 C 134.239,130.369 134.906,130.536 135.5,131C 134.335,132.084 133.002,132.917 131.5,133.5C 126.955,132.323 122.122,132.323 117,133.5C 115.541,133.192 114.374,132.525 113.5,131.5C 120.354,131.824 127.021,131.491 133.5,130.5 Z"/></g>
<g><path style="opacity:0.501" fill="#050506" d="M 155.5,123.5 C 152.359,124.321 149.025,124.821 145.5,125C 147.64,125.973 149.307,127.473 150.5,129.5C 153.166,127.165 156.166,125.331 159.5,124C 158.906,123.536 158.239,123.369 157.5,123.5C 159.177,121.502 161.177,121.169 163.5,122.5C 164.848,120.539 166.181,120.372 167.5,122C 165.071,122.451 164.904,123.285 167,124.5C 168.613,123.378 169.78,123.878 170.5,126C 170.167,129 169.833,132 169.5,135C 166.242,135.212 163.076,135.712 160,136.5C 158.5,135.667 157.333,134.5 156.5,133C 159.167,131.667 161.167,129.667 162.5,127C 161.5,126.5 160.5,126 159.5,125.5C 157.664,126.919 155.664,128.086 153.5,129C 152.167,129.667 152.167,130.333 153.5,131C 149.346,133.512 145.179,135.346 141,136.5C 139.701,135.91 138.868,134.91 138.5,133.5C 139.291,130.041 139.624,126.707 139.5,123.5C 140.482,124.141 141.482,124.807 142.5,125.5C 143.799,124.306 145.132,123.306 146.5,122.5C 149.437,124.225 151.603,123.559 153,120.5C 153.698,121.691 154.531,122.691 155.5,123.5 Z M 140.5,126.5 C 140.5,128.833 140.5,131.167 140.5,133.5C 142.604,133.799 144.604,133.466 146.5,132.5C 144.812,130.146 142.812,128.146 140.5,126.5 Z M 167.5,125.5 C 164.729,127.767 162.062,130.267 159.5,133C 162.482,133.498 165.482,133.665 168.5,133.5C 168.806,130.615 168.473,127.948 167.5,125.5 Z M 155.5,123.5 C 156.167,123.5 156.833,123.5 157.5,123.5C 158.239,123.369 158.906,123.536 159.5,124C 156.166,125.331 153.166,127.165 150.5,129.5C 149.307,127.473 147.64,125.973 145.5,125C 149.025,124.821 152.359,124.321 155.5,123.5 Z"/></g>
<g><path style="opacity:0.999" fill="#101112" d="M 291.5,118.5 C 291.611,119.117 291.944,119.617 292.5,120C 291.584,120.278 290.918,120.778 290.5,121.5C 288.208,121.756 286.041,121.423 284,120.5C 281.073,122.271 278.073,122.938 275,122.5C 274.667,121.833 274.333,121.167 274,120.5C 272.818,122.235 271.151,123.235 269,123.5C 264.785,122.883 260.785,124.549 257,128.5C 257.222,126.544 258.055,124.71 259.5,123C 258.667,122.167 257.833,121.333 257,120.5C 251.165,122.515 245.331,123.682 239.5,124C 238.833,124.333 238.167,124.667 237.5,125C 238.9,126.438 240.567,127.271 242.5,127.5C 242.491,130.136 243.825,131.469 246.5,131.5C 249.293,131.054 251.627,129.721 253.5,127.5C 254.59,128.727 255.924,129.56 257.5,130C 253.453,131.452 252.619,133.285 255,135.5C 258.402,135.666 261.569,135.332 264.5,134.5C 264.833,134.5 265.167,134.5 265.5,134.5C 267.607,135.468 269.941,135.802 272.5,135.5C 271.529,136.962 271.862,138.295 273.5,139.5C 255.736,140.824 238.069,140.824 220.5,139.5C 226.842,139.666 233.175,139.5 239.5,139C 240.759,138.077 242.092,137.243 243.5,136.5C 242.311,135.571 240.978,135.238 239.5,135.5C 240.739,134.788 241.239,133.788 241,132.5C 238.713,130.946 236.546,129.279 234.5,127.5C 233.942,126.21 232.942,125.377 231.5,125C 232.623,123.956 233.956,123.29 235.5,123C 233.833,122.667 232.167,122.333 230.5,122C 232.5,121.333 234.5,120.667 236.5,120C 235.944,119.617 235.611,119.117 235.5,118.5C 254.142,117.831 272.809,117.831 291.5,118.5 Z M 242.5,127.5 C 243.857,128.685 245.357,129.685 247,130.5C 249.822,128.347 252.656,126.181 255.5,124C 250.513,123.997 245.513,124.331 240.5,125C 241.381,125.708 242.047,126.542 242.5,127.5 Z"/></g>
<g><path style="opacity:1" fill="#0a0a0a" d="M 126.5,140.5 C 129.743,139.42 133.076,139.253 136.5,140C 137.056,140.383 137.389,140.883 137.5,141.5C 138.137,145.67 138.803,149.836 139.5,154C 138.646,155.022 137.646,155.855 136.5,156.5C 127.97,155.847 119.47,155.18 111,154.5C 110.586,154.957 110.086,155.291 109.5,155.5C 108.509,151.555 108.176,147.555 108.5,143.5C 109.151,144.091 109.818,144.757 110.5,145.5C 112.047,144.232 113.047,142.565 113.5,140.5C 114.958,139.218 116.292,139.218 117.5,140.5C 116.504,140.414 115.671,140.748 115,141.5C 114.503,144.146 114.336,146.813 114.5,149.5C 115.833,149.5 117.167,149.5 118.5,149.5C 118.5,146.5 118.5,143.5 118.5,140.5C 120.063,142.991 121.23,146.325 122,150.5C 122.833,149.667 123.667,148.833 124.5,148C 123.378,144.591 123.211,141.091 124,137.5C 124.698,138.691 125.531,139.691 126.5,140.5 Z M 126.5,140.5 C 125.523,143.287 125.19,146.287 125.5,149.5C 127.833,149.5 130.167,149.5 132.5,149.5C 132.5,146.833 132.5,144.167 132.5,141.5C 130.265,141.795 128.265,141.461 126.5,140.5 Z M 117.5,140.5 C 117.833,140.5 118.167,140.5 118.5,140.5C 118.5,143.5 118.5,146.5 118.5,149.5C 117.167,149.5 115.833,149.5 114.5,149.5C 114.336,146.813 114.503,144.146 115,141.5C 115.671,140.748 116.504,140.414 117.5,140.5 Z"/></g>
<g><path style="opacity:0.988" fill="#111213" d="M 284.5,126.5 C 284.842,125.662 285.508,125.328 286.5,125.5C 286.854,127.541 286.854,129.374 286.5,131C 287.167,131.333 287.833,131.667 288.5,132C 284.997,132.538 284.164,134.038 286,136.5C 287.395,135.185 288.395,135.519 289,137.5C 293.78,135.092 298.78,134.425 304,135.5C 306.28,135.106 306.78,134.106 305.5,132.5C 304.167,131.167 304.167,129.833 305.5,128.5C 307.463,129.96 309.296,131.627 311,133.5C 316.338,127.75 318.505,128.416 317.5,135.5C 322.536,135.588 327.536,136.088 332.5,137C 331.833,137.667 331.167,138.333 330.5,139C 323.988,140.681 317.488,140.847 311,139.5C 310.536,140.094 310.369,140.761 310.5,141.5C 310.062,142.506 309.396,142.506 308.5,141.5C 303.319,140.685 297.986,140.018 292.5,139.5C 292.5,141.167 292.5,142.833 292.5,144.5C 290.876,144.36 289.71,145.027 289,146.5C 288.814,144.1 288.314,141.766 287.5,139.5C 286.685,137.724 285.518,137.057 284,137.5C 283.082,139.632 281.749,140.299 280,139.5C 279.044,140.579 278.211,141.745 277.5,143C 277.421,144.907 277.754,146.907 278.5,149C 277.874,149.75 277.374,150.584 277,151.5C 276.535,150.069 275.701,148.903 274.5,148C 274.833,147 275.167,146 275.5,145C 274.536,143.275 273.869,141.441 273.5,139.5C 271.862,138.295 271.529,136.962 272.5,135.5C 273.097,135.265 273.43,134.765 273.5,134C 272.073,132.3 271.24,130.467 271,128.5C 273.357,130.646 275.857,130.979 278.5,129.5C 278.5,128.833 278.833,128.5 279.5,128.5C 279.232,130.099 279.566,131.432 280.5,132.5C 282.973,132.912 284.306,131.912 284.5,129.5C 285.833,128.5 285.833,127.5 284.5,126.5 Z M 280.5,141.5 C 281.152,142.725 282.319,143.392 284,143.5C 285.167,143.167 286.333,142.833 287.5,142.5C 285.257,141.526 282.924,141.192 280.5,141.5 Z"/></g>
<g><path style="opacity:0.696" fill="#414244" d="M 284.5,129.5 C 284.306,131.912 282.973,132.912 280.5,132.5C 280.295,129.014 281.629,128.014 284.5,129.5 Z"/></g>
<g><path style="opacity:1" fill="#070707" d="M 186.5,143.5 C 187.605,145.153 187.771,146.82 187,148.5C 189.445,147.023 191.612,145.19 193.5,143C 194.449,142.383 195.282,142.549 196,143.5C 195.907,147.149 195.74,151.149 195.5,155.5C 193.097,155.607 191.264,154.607 190,152.5C 189.075,153.047 188.242,153.713 187.5,154.5C 191.151,156.502 193.818,159.002 195.5,162C 194.359,162.741 194.359,163.575 195.5,164.5C 195.043,165.298 194.376,165.631 193.5,165.5C 191.652,160.976 188.652,157.31 184.5,154.5C 181.516,156.984 178.682,159.65 176,162.5C 175.7,164.066 176.2,165.399 177.5,166.5C 176.883,166.611 176.383,166.944 176,167.5C 174.699,165.635 174.365,163.635 175,161.5C 178.167,158.333 181.333,155.167 184.5,152C 183.584,151.626 182.75,151.126 182,150.5C 178.031,152.31 174.864,154.976 172.5,158.5C 171.997,155.516 171.664,152.516 171.5,149.5C 172.028,147.664 172.694,145.997 173.5,144.5C 173.369,143.761 173.536,143.094 174,142.5C 176.364,144.363 178.864,146.029 181.5,147.5C 182.794,145.739 182.461,143.906 180.5,142C 182.058,141.79 183.391,141.29 184.5,140.5C 184.435,140.062 184.601,139.728 185,139.5C 186,140.167 187,140.833 188,141.5C 188.528,142.816 188.028,143.483 186.5,143.5 Z M 193.5,144.5 C 194.641,147.64 194.808,150.973 194,154.5C 192.122,152.957 190.622,151.124 189.5,149C 191.041,147.629 192.375,146.129 193.5,144.5 Z M 173.5,144.5 C 175.886,145.373 177.886,146.873 179.5,149C 177.667,150.833 175.833,152.667 174,154.5C 173.502,151.183 173.335,147.85 173.5,144.5 Z M 186.5,143.5 C 185.352,144.895 184.352,144.728 183.5,143C 184.749,142.26 185.749,142.427 186.5,143.5 Z"/></g>
<g><path style="opacity:0.504" fill="#020203" d="M 143.5,108.5 C 141.031,111.763 138.031,114.597 134.5,117C 125.218,118.316 115.884,118.816 106.5,118.5C 106.5,121.5 106.5,124.5 106.5,127.5C 106.335,130.518 106.502,133.518 107,136.5C 108.661,138.78 109.161,141.113 108.5,143.5C 108.176,147.555 108.509,151.555 109.5,155.5C 110.086,155.291 110.586,154.957 111,154.5C 119.47,155.18 127.97,155.847 136.5,156.5C 137.646,155.855 138.646,155.022 139.5,154C 138.803,149.836 138.137,145.67 137.5,141.5C 141.244,140.239 145.244,139.572 149.5,139.5C 155.63,139.877 161.296,140.044 166.5,140C 167.944,141.763 168.944,143.763 169.5,146C 169.136,149.486 168.47,153.152 167.5,157C 168.38,158.356 168.714,159.856 168.5,161.5C 168.753,182.349 168.753,203.349 168.5,224.5C 168.5,229.5 168.5,234.5 168.5,239.5C 168.55,262.325 168.55,284.992 168.5,307.5C 167.833,307.5 167.167,307.5 166.5,307.5C 166.173,252.97 166.506,198.47 167.5,144C 167.355,143.228 167.022,142.561 166.5,142C 157.84,141.5 149.173,141.334 140.5,141.5C 140.5,146.833 140.5,152.167 140.5,157.5C 128.672,157.977 117.005,157.477 105.5,156C 106.143,153.254 106.476,150.421 106.5,147.5C 104.672,137.613 104.172,127.613 105,117.5C 114.089,116.681 123.256,116.181 132.5,116C 135.849,112.995 139.516,110.495 143.5,108.5 Z M 126.5,140.5 C 125.523,143.287 125.19,146.287 125.5,149.5C 127.833,149.5 130.167,149.5 132.5,149.5C 132.5,146.833 132.5,144.167 132.5,141.5C 130.265,141.795 128.265,141.461 126.5,140.5 Z M 117.5,140.5 C 117.833,140.5 118.167,140.5 118.5,140.5C 118.5,143.5 118.5,146.5 118.5,149.5C 117.167,149.5 115.833,149.5 114.5,149.5C 114.336,146.813 114.503,144.146 115,141.5C 115.671,140.748 116.504,140.414 117.5,140.5 Z"/></g>
<g><path style="opacity:0.938" fill="#080808" d="M 365.5,152.5 C 367.722,152.178 369.556,152.845 371,154.5C 371.301,157.507 371.135,160.507 370.5,163.5C 368.533,163.739 366.699,163.406 365,162.5C 364.253,159.076 364.42,155.743 365.5,152.5 Z"/></g>
<g><path style="opacity:0.523" fill="#040404" d="M 128.5,168.5 C 132.923,167.425 134.923,169.092 134.5,173.5C 134.449,175.1 134.116,176.6 133.5,178C 131.527,178.495 129.527,178.662 127.5,178.5C 127.342,175.098 127.676,171.764 128.5,168.5 Z"/></g>
<g><path style="opacity:0.482" fill="#030303" d="M 193.5,165.5 C 191.091,167.902 189.091,170.569 187.5,173.5C 186.399,174.8 185.066,175.3 183.5,175C 180.436,172.793 178.436,169.959 177.5,166.5C 180.055,168.606 182.388,170.94 184.5,173.5C 186.894,170.103 189.894,167.437 193.5,165.5 Z"/></g>
<g><path style="opacity:0.419" fill="#040505" d="M 194.5,169.5 C 195.222,169.918 195.722,170.584 196,171.5C 196.667,176.5 196.667,181.5 196,186.5C 195.667,186.833 195.333,187.167 195,187.5C 193.173,186.341 191.507,185.008 190,183.5C 189.722,184.416 189.222,185.082 188.5,185.5C 187.491,182.473 187.491,179.473 188.5,176.5C 191.026,174.582 193.026,172.249 194.5,169.5 Z M 193.5,173.5 C 194.643,176.976 194.81,180.642 194,184.5C 192.108,182.946 190.608,181.112 189.5,179C 190.65,177.019 191.984,175.186 193.5,173.5 Z"/></g>
<g><path style="opacity:0.353" fill="#010102" d="M 272.5,161.5 C 277.326,162.754 278.326,165.254 275.5,169C 275.585,170.107 275.919,171.107 276.5,172C 270.909,175.586 265.909,179.92 261.5,185C 258.778,187.358 255.778,189.191 252.5,190.5C 259.77,184.404 266.937,178.07 274,171.5C 273.31,169.344 273.477,167.177 274.5,165C 274.022,163.697 273.355,162.531 272.5,161.5 Z"/></g>
<g><path style="opacity:0.842" fill="#070707" d="M 366.5,168.5 C 368.912,168.244 370.579,169.244 371.5,171.5C 370.787,173.776 370.287,176.109 370,178.5C 368.293,179.138 366.46,179.138 364.5,178.5C 364.06,174.821 364.727,171.488 366.5,168.5 Z"/></g>
<g><path style="opacity:0.999" fill="#131415" d="M 201.5,154.5 C 201.5,154.833 201.5,155.167 201.5,155.5C 200.503,173.993 200.17,192.659 200.5,211.5C 199.477,209.325 198.81,207.325 198.5,205.5C 197.833,209.647 197.166,213.647 196.5,217.5C 197.028,218.721 197.695,219.887 198.5,221C 198.526,228.008 197.859,235.174 196.5,242.5C 196.665,238.818 196.499,235.152 196,231.5C 195.586,231.043 195.086,230.709 194.5,230.5C 191.091,233.849 187.757,237.182 184.5,240.5C 184.833,238.5 185.167,236.5 185.5,234.5C 187.698,234.591 188.031,233.925 186.5,232.5C 189.257,231.138 191.924,229.638 194.5,228C 193.833,227.667 193.167,227.333 192.5,227C 193.574,226.261 194.241,225.261 194.5,224C 191.871,218.533 187.871,214.699 182.5,212.5C 180.226,211.048 178.726,211.715 178,214.5C 177.601,214.272 177.435,213.938 177.5,213.5C 177.5,212.833 177.5,212.167 177.5,211.5C 177.5,210.833 177.833,210.5 178.5,210.5C 179.995,210.585 180.995,209.919 181.5,208.5C 180.747,206.247 179.414,204.413 177.5,203C 179.301,202.683 179.634,202.016 178.5,201C 180.482,201.594 182.316,202.76 184,204.5C 185.417,203.922 186.25,202.922 186.5,201.5C 187.08,199.251 188.413,197.585 190.5,196.5C 192.196,196.315 193.529,195.481 194.5,194C 192.669,191.01 190.669,188.177 188.5,185.5C 189.222,185.082 189.722,184.416 190,183.5C 191.507,185.008 193.173,186.341 195,187.5C 195.333,187.167 195.667,186.833 196,186.5C 196.667,181.5 196.667,176.5 196,171.5C 195.722,170.584 195.222,169.918 194.5,169.5C 193.448,169.351 192.448,169.517 191.5,170C 190.696,171.771 189.529,173.271 188,174.5C 187.601,174.272 187.435,173.938 187.5,173.5C 189.091,170.569 191.091,167.902 193.5,165.5C 194.376,165.631 195.043,165.298 195.5,164.5C 194.359,163.575 194.359,162.741 195.5,162C 193.818,159.002 191.151,156.502 187.5,154.5C 188.242,153.713 189.075,153.047 190,152.5C 191.264,154.607 193.097,155.607 195.5,155.5C 195.74,151.149 195.907,147.149 196,143.5C 195.282,142.549 194.449,142.383 193.5,143C 191.612,145.19 189.445,147.023 187,148.5C 187.771,146.82 187.605,145.153 186.5,143.5C 188.028,143.483 188.528,142.816 188,141.5C 187,140.833 186,140.167 185,139.5C 184.601,139.728 184.435,140.062 184.5,140.5C 181.315,140.02 178.481,140.686 176,142.5C 174.383,141.464 174.216,140.297 175.5,139C 178.277,138.358 180.944,137.524 183.5,136.5C 184.994,136.709 186.161,137.376 187,138.5C 187.333,138.167 187.667,137.833 188,137.5C 188.308,138.308 188.808,138.975 189.5,139.5C 190.901,138.479 192.235,137.479 193.5,136.5C 195.172,134.251 196.005,131.917 196,129.5C 197.869,131.981 199.535,134.647 201,137.5C 201.414,137.043 201.914,136.709 202.5,136.5C 205.242,138.712 204.742,140.045 201,140.5C 200.185,145.352 200.352,150.019 201.5,154.5 Z M 188.5,208.5 C 190.127,206.37 191.96,204.37 194,202.5C 194.667,206.5 194.667,210.5 194,214.5C 192.669,212.004 190.836,210.004 188.5,208.5 Z"/></g>
<g><path style="opacity:0.988" fill="#070707" d="M 128.5,184.5 C 130.467,184.261 132.301,184.594 134,185.5C 134.777,188.429 134.61,191.263 133.5,194C 131.559,194.743 129.726,194.576 128,193.5C 127.264,190.408 127.431,187.408 128.5,184.5 Z"/></g>
<g><path style="opacity:0.984" fill="#070707" d="M 365.5,184.5 C 371.204,184.146 373.037,186.813 371,192.5C 369.33,194.698 367.33,195.032 365,193.5C 364.264,190.408 364.431,187.408 365.5,184.5 Z"/></g>
<g><path style="opacity:0.993" fill="#101010" d="M 292.5,172.5 C 295.473,174.147 298.14,176.147 300.5,178.5C 303.15,182.811 306.817,186.144 311.5,188.5C 314.681,191.937 318.014,194.437 321.5,196C 325.167,199 328.833,202 332.5,205C 336.152,205.499 339.818,205.665 343.5,205.5C 342.737,206.268 341.737,206.768 340.5,207C 343.833,208.333 347.167,209.667 350.5,211C 349.906,211.464 349.239,211.631 348.5,211.5C 347.833,211.5 347.167,211.5 346.5,211.5C 341.5,211.5 336.5,211.5 331.5,211.5C 330.359,210.661 329.026,209.994 327.5,209.5C 319.981,210.19 311.981,210.523 303.5,210.5C 303.196,209.85 302.863,209.183 302.5,208.5C 298.541,207.673 294.541,207.173 290.5,207C 291.737,206.768 292.737,206.268 293.5,205.5C 303.172,205.666 312.839,205.5 322.5,205C 324.301,204.683 324.634,204.016 323.5,203C 321.545,202.047 319.878,200.713 318.5,199C 316.975,197.991 315.308,197.491 313.5,197.5C 311.761,194.589 309.428,192.089 306.5,190C 299.683,185.506 293.183,180.673 287,175.5C 285.237,175.975 283.57,176.642 282,177.5C 280.846,176.257 279.512,175.257 278,174.5C 275.349,177.48 272.349,180.147 269,182.5C 268.536,183.094 268.369,183.761 268.5,184.5C 262.562,188.301 256.395,192.634 250,197.5C 249.626,196.584 249.126,195.75 248.5,195C 250.184,193.791 251.517,192.291 252.5,190.5C 255.778,189.191 258.778,187.358 261.5,185C 265.909,179.92 270.909,175.586 276.5,172C 275.919,171.107 275.585,170.107 275.5,169C 278.326,165.254 277.326,162.754 272.5,161.5C 272.67,160.178 272.337,159.011 271.5,158C 272.579,157.044 273.745,156.211 275,155.5C 276.222,157.696 278.056,159.196 280.5,160C 286.959,161.362 290.793,158.862 292,152.5C 295.274,154.759 295.107,155.592 291.5,155C 293.847,156.191 294.68,158.024 294,160.5C 292.017,161.982 290.184,163.649 288.5,165.5C 291.391,165.631 292.058,167.298 290.5,170.5C 290.747,171.713 291.414,172.38 292.5,172.5 Z M 281.5,167.5 C 282.978,167.238 284.311,167.571 285.5,168.5C 284.833,168.833 284.167,169.167 283.5,169.5C 282.287,169.253 281.62,168.586 281.5,167.5 Z"/></g>
<g><path style="opacity:0.997" fill="#050506" d="M 313.5,197.5 C 304.852,191.191 296.185,184.858 287.5,178.5C 287.164,183.388 286.998,188.722 287,194.5C 284.925,196.648 282.592,196.982 280,195.5C 279.956,189.327 279.289,183.327 278,177.5C 274.961,180.044 271.794,182.377 268.5,184.5C 268.369,183.761 268.536,183.094 269,182.5C 272.349,180.147 275.349,177.48 278,174.5C 279.512,175.257 280.846,176.257 282,177.5C 283.57,176.642 285.237,175.975 287,175.5C 293.183,180.673 299.683,185.506 306.5,190C 309.428,192.089 311.761,194.589 313.5,197.5 Z"/></g>
<g><path style="opacity:0.414" fill="#020203" d="M 313.5,197.5 C 315.308,197.491 316.975,197.991 318.5,199C 319.878,200.713 321.545,202.047 323.5,203C 324.634,204.016 324.301,204.683 322.5,205C 312.839,205.5 303.172,205.666 293.5,205.5C 280.257,204.963 267.09,204.963 254,205.5C 253.283,204.956 252.783,204.289 252.5,203.5C 275.169,203.667 297.836,203.5 320.5,203C 317.98,201.303 315.647,199.47 313.5,197.5 Z"/></g>
<g><path style="opacity:0.515" fill="#030303" d="M 128.5,199.5 C 130.467,199.261 132.301,199.594 134,200.5C 134.777,203.429 134.61,206.263 133.5,209C 131.559,209.743 129.726,209.576 128,208.5C 127.264,205.408 127.431,202.408 128.5,199.5 Z"/></g>
<g><path style="opacity:1" fill="#070709" d="M 188.5,185.5 C 190.669,188.177 192.669,191.01 194.5,194C 193.529,195.481 192.196,196.315 190.5,196.5C 191.141,195.518 191.807,194.518 192.5,193.5C 190.058,190.271 187.392,187.271 184.5,184.5C 181.349,187.15 178.349,189.984 175.5,193C 177.795,196.297 180.462,199.297 183.5,202C 184.577,202.47 185.577,202.303 186.5,201.5C 186.25,202.922 185.417,203.922 184,204.5C 182.316,202.76 180.482,201.594 178.5,201C 179.634,202.016 179.301,202.683 177.5,203C 179.414,204.413 180.747,206.247 181.5,208.5C 180.995,209.919 179.995,210.585 178.5,210.5C 179.623,206.876 178.29,204.209 174.5,202.5C 173.341,206.122 173.175,209.789 174,213.5C 175.113,212.695 176.279,212.028 177.5,211.5C 177.5,212.167 177.5,212.833 177.5,213.5C 176.115,214.614 174.615,215.614 173,216.5C 172.667,216.167 172.333,215.833 172,215.5C 170.667,211.379 170.334,207.046 171,202.5C 170.5,202 170,201.5 169.5,201C 170.162,199.668 171.328,198.502 173,197.5C 172.812,193.768 174.312,190.934 177.5,189C 177.167,188.667 176.833,188.333 176.5,188C 179.592,186.576 182.426,184.743 185,182.5C 186.599,183.071 187.766,184.071 188.5,185.5 Z"/></g>
<g><path style="opacity:1" fill="#060709" d="M 268.5,184.5 C 266.706,186.797 264.706,188.963 262.5,191C 257.167,195 251.833,199 246.5,203C 248.134,203.494 249.801,203.66 251.5,203.5C 249.052,204.473 246.385,204.806 243.5,204.5C 243.36,202.876 244.027,201.71 245.5,201C 242.002,200.388 239.002,201.388 236.5,204C 236.833,204.333 237.167,204.667 237.5,205C 232.845,205.499 228.179,205.666 223.5,205.5C 220.833,204.833 218.167,204.167 215.5,203.5C 222.175,203.666 228.842,203.5 235.5,203C 240.87,198.326 246.537,194.16 252.5,190.5C 251.517,192.291 250.184,193.791 248.5,195C 249.126,195.75 249.626,196.584 250,197.5C 256.395,192.634 262.562,188.301 268.5,184.5 Z"/></g>
<g><path style="opacity:0.425" fill="#050505" d="M 365.5,199.5 C 368.617,198.927 370.617,200.094 371.5,203C 370.886,204.537 370.886,205.87 371.5,207C 369.788,209.519 367.621,210.019 365,208.5C 364.264,205.408 364.431,202.408 365.5,199.5 Z"/></g>
<g><path style="opacity:0.334" fill="#030304" d="M 196.5,217.5 C 192.435,215.767 189.768,212.767 188.5,208.5C 187.475,208.103 187.308,207.437 188,206.5C 190.684,203.748 193.35,201.081 196,198.5C 196.309,199.766 196.809,200.933 197.5,202C 196.191,207.218 195.857,212.385 196.5,217.5 Z M 188.5,208.5 C 190.836,210.004 192.669,212.004 194,214.5C 194.667,210.5 194.667,206.5 194,202.5C 191.96,204.37 190.127,206.37 188.5,208.5 Z"/></g>
<g><path style="opacity:0.999" fill="#101013" d="M 251.5,203.5 C 251.833,203.5 252.167,203.5 252.5,203.5C 252.783,204.289 253.283,204.956 254,205.5C 267.09,204.963 280.257,204.963 293.5,205.5C 292.737,206.268 291.737,206.768 290.5,207C 294.541,207.173 298.541,207.673 302.5,208.5C 302.863,209.183 303.196,209.85 303.5,210.5C 276.825,210.802 250.159,210.469 223.5,209.5C 223.5,208.167 223.5,206.833 223.5,205.5C 228.179,205.666 232.845,205.499 237.5,205C 237.167,204.667 236.833,204.333 236.5,204C 239.002,201.388 242.002,200.388 245.5,201C 244.027,201.71 243.36,202.876 243.5,204.5C 246.385,204.806 249.052,204.473 251.5,203.5 Z"/></g>
<g><path style="opacity:1" fill="#141416" d="M 177.5,166.5 C 178.436,169.959 180.436,172.793 183.5,175C 185.066,175.3 186.399,174.8 187.5,173.5C 187.435,173.938 187.601,174.272 188,174.5C 189.529,173.271 190.696,171.771 191.5,170C 192.448,169.517 193.448,169.351 194.5,169.5C 193.026,172.249 191.026,174.582 188.5,176.5C 187.491,179.473 187.491,182.473 188.5,185.5C 187.766,184.071 186.599,183.071 185,182.5C 182.426,184.743 179.592,186.576 176.5,188C 176.833,188.333 177.167,188.667 177.5,189C 174.312,190.934 172.812,193.768 173,197.5C 171.328,198.502 170.162,199.668 169.5,201C 170,201.5 170.5,202 171,202.5C 170.334,207.046 170.667,211.379 172,215.5C 172.333,215.833 172.667,216.167 173,216.5C 174.615,215.614 176.115,214.614 177.5,213.5C 177.435,213.938 177.601,214.272 178,214.5C 178.726,211.715 180.226,211.048 182.5,212.5C 179.149,214.854 176.482,217.854 174.5,221.5C 172.017,223.311 172.017,225.145 174.5,227C 173.034,227.635 171.7,228.469 170.5,229.5C 169.83,227.709 169.163,226.042 168.5,224.5C 168.753,203.349 168.753,182.349 168.5,161.5C 170.173,161.764 171.84,161.264 173.5,160C 172.944,159.617 172.611,159.117 172.5,158.5C 174.864,154.976 178.031,152.31 182,150.5C 182.75,151.126 183.584,151.626 184.5,152C 181.333,155.167 178.167,158.333 175,161.5C 174.365,163.635 174.699,165.635 176,167.5C 176.383,166.944 176.883,166.611 177.5,166.5 Z M 173.5,173.5 C 175.63,175.127 177.63,176.96 179.5,179C 177.667,180.833 175.833,182.667 174,184.5C 173.501,180.848 173.335,177.182 173.5,173.5 Z"/></g>
<g><path style="opacity:0.838" fill="#08080a" d="M 172.5,171.5 C 176.529,172.69 179.529,175.19 181.5,179C 179.321,182.344 176.654,185.177 173.5,187.5C 172.3,186.469 170.966,185.635 169.5,185C 172.474,183.494 172.807,181.828 170.5,180C 171.143,177.483 171.809,174.649 172.5,171.5 Z M 173.5,173.5 C 173.335,177.182 173.501,180.848 174,184.5C 175.833,182.667 177.667,180.833 179.5,179C 177.63,176.96 175.63,175.127 173.5,173.5 Z"/></g>
<g><path style="opacity:0.367" fill="#040405" d="M 182.5,212.5 C 187.871,214.699 191.871,218.533 194.5,224C 194.241,225.261 193.574,226.261 192.5,227C 193.167,227.333 193.833,227.667 194.5,228C 191.924,229.638 189.257,231.138 186.5,232.5C 188.031,233.925 187.698,234.591 185.5,234.5C 184.883,234.611 184.383,234.944 184,235.5C 178.186,232.537 175.019,227.87 174.5,221.5C 176.482,217.854 179.149,214.854 182.5,212.5 Z M 186.5,232.5 C 185.577,233.303 184.577,233.47 183.5,233C 180.269,230.273 177.603,227.106 175.5,223.5C 177.771,219.726 180.604,216.393 184,213.5C 187.536,216.701 190.703,220.201 193.5,224C 190.553,226.436 188.22,229.269 186.5,232.5 Z"/></g>
<g><path style="opacity:0.342" fill="#040404" d="M 366.5,214.5 C 371.308,216.073 372.641,219.24 370.5,224C 366.098,225.569 364.098,224.069 364.5,219.5C 364.724,217.545 365.391,215.879 366.5,214.5 Z"/></g>
<g><path style="opacity:0.948" fill="#070707" d="M 129.5,214.5 C 131.39,214.297 132.89,214.963 134,216.5C 134.777,219.429 134.61,222.263 133.5,225C 131.559,225.743 129.726,225.576 128,224.5C 127.037,220.851 127.537,217.518 129.5,214.5 Z"/></g>
<g><path style="opacity:0.998" fill="#0d0d0d" d="M 174.5,221.5 C 175.019,227.87 178.186,232.537 184,235.5C 184.383,234.944 184.883,234.611 185.5,234.5C 185.167,236.5 184.833,238.5 184.5,240.5C 183.761,240.631 183.094,240.464 182.5,240C 183.451,239.282 183.617,238.449 183,237.5C 180.81,241.083 177.643,244.416 173.5,247.5C 172.914,247.291 172.414,246.957 172,246.5C 171.667,244.167 171.333,241.833 171,239.5C 170.23,238.402 169.397,238.402 168.5,239.5C 168.5,234.5 168.5,229.5 168.5,224.5C 169.163,226.042 169.83,227.709 170.5,229.5C 171.7,228.469 173.034,227.635 174.5,227C 172.017,225.145 172.017,223.311 174.5,221.5 Z M 173.5,233.5 C 176.089,234.419 178.089,236.086 179.5,238.5C 177.851,240.65 176.018,242.65 174,244.5C 173.501,240.848 173.335,237.182 173.5,233.5 Z"/></g>
<g><path style="opacity:0.358" fill="#030304" d="M 300.5,178.5 C 311.317,186.415 321.983,194.582 332.5,203C 340.159,203.5 347.826,203.666 355.5,203.5C 354.643,212.063 354.309,220.563 354.5,229C 306.834,229.5 259.168,229.667 211.5,229.5C 211.184,220.601 211.517,211.935 212.5,203.5C 212.952,208.272 213.619,213.272 214.5,218.5C 213.632,221.468 213.299,224.301 213.5,227C 244.738,227.171 275.905,227.671 307,228.5C 322.231,227.578 337.731,227.245 353.5,227.5C 352.632,220.056 352.299,212.39 352.5,204.5C 349.579,205.407 346.579,205.74 343.5,205.5C 339.818,205.665 336.152,205.499 332.5,205C 328.833,202 325.167,199 321.5,196C 318.014,194.437 314.681,191.937 311.5,188.5C 306.817,186.144 303.15,182.811 300.5,178.5 Z M 331.5,211.5 C 336.5,211.5 341.5,211.5 346.5,211.5C 346.5,214.833 346.5,218.167 346.5,221.5C 304.5,221.5 262.5,221.5 220.5,221.5C 220.5,218.167 220.5,214.833 220.5,211.5C 257.601,211.696 294.601,211.696 331.5,211.5 Z"/></g>
<g><path style="opacity:1" fill="#101012" d="M 212.5,203.5 C 213.5,203.5 214.5,203.5 215.5,203.5C 218.167,204.167 220.833,204.833 223.5,205.5C 223.5,206.833 223.5,208.167 223.5,209.5C 222.064,209.755 220.564,210.088 219,210.5C 220.066,213.851 219.566,217.017 217.5,220C 218.833,220.667 219.833,221.667 220.5,223C 232.176,223.636 243.842,223.469 255.5,222.5C 285.848,224.135 315.848,224.302 345.5,223C 346.672,222.581 347.672,221.915 348.5,221C 348.405,217.809 348.405,214.643 348.5,211.5C 349.239,211.631 349.906,211.464 350.5,211C 347.167,209.667 343.833,208.333 340.5,207C 341.737,206.768 342.737,206.268 343.5,205.5C 346.579,205.74 349.579,205.407 352.5,204.5C 352.299,212.39 352.632,220.056 353.5,227.5C 337.731,227.245 322.231,227.578 307,228.5C 275.905,227.671 244.738,227.171 213.5,227C 213.299,224.301 213.632,221.468 214.5,218.5C 213.619,213.272 212.952,208.272 212.5,203.5 Z M 331.5,211.5 C 336.5,211.5 341.5,211.5 346.5,211.5C 346.5,214.833 346.5,218.167 346.5,221.5C 304.5,221.5 262.5,221.5 220.5,221.5C 220.5,218.167 220.5,214.833 220.5,211.5C 257.601,211.696 294.601,211.696 331.5,211.5 Z"/></g>
<g><path style="opacity:0.632" fill="#08080a" d="M 223.5,209.5 C 250.159,210.469 276.825,210.802 303.5,210.5C 311.981,210.523 319.981,210.19 327.5,209.5C 329.026,209.994 330.359,210.661 331.5,211.5C 294.601,211.696 257.601,211.696 220.5,211.5C 220.5,214.833 220.5,218.167 220.5,221.5C 262.5,221.5 304.5,221.5 346.5,221.5C 346.5,218.167 346.5,214.833 346.5,211.5C 347.167,211.5 347.833,211.5 348.5,211.5C 348.405,214.643 348.405,217.809 348.5,221C 347.672,221.915 346.672,222.581 345.5,223C 315.848,224.302 285.848,224.135 255.5,222.5C 243.842,223.469 232.176,223.636 220.5,223C 219.833,221.667 218.833,220.667 217.5,220C 219.566,217.017 220.066,213.851 219,210.5C 220.564,210.088 222.064,209.755 223.5,209.5 Z M 331.5,211.5 C 336.5,211.5 341.5,211.5 346.5,211.5C 346.5,214.833 346.5,218.167 346.5,221.5C 304.5,221.5 262.5,221.5 220.5,221.5C 220.5,218.167 220.5,214.833 220.5,211.5C 257.601,211.696 294.601,211.696 331.5,211.5 Z"/></g>
<g><path style="opacity:0.548" fill="#040404" d="M 128.5,230.5 C 130.467,230.261 132.301,230.594 134,231.5C 134.784,234.76 134.617,237.927 133.5,241C 131.559,241.743 129.726,241.576 128,240.5C 127.457,237.132 127.624,233.799 128.5,230.5 Z"/></g>
<g><path style="opacity:0.994" fill="#070707" d="M 365.5,230.5 C 371.156,230.867 372.989,233.867 371,239.5C 369.33,241.698 367.33,242.032 365,240.5C 364.253,237.076 364.42,233.743 365.5,230.5 Z"/></g>
<g><path style="opacity:0.841" fill="#070708" d="M 307.5,234.5 C 313.299,234.213 319.299,234.213 325.5,234.5C 325.5,246.5 325.5,258.5 325.5,270.5C 324.802,267.103 324.135,263.603 323.5,260C 323.833,259 324.167,258 324.5,257C 323.687,250.581 323.187,244.081 323,237.5C 320.531,236.853 317.698,236.52 314.5,236.5C 314.404,240.311 313.738,240.311 312.5,236.5C 311.15,235.05 309.484,234.383 307.5,234.5 Z"/></g>
<g><path style="opacity:0.658" fill="#060608" d="M 201.5,155.5 C 202.551,199.89 202.551,244.223 201.5,288.5C 200.804,284.769 200.138,280.935 199.5,277C 200.214,275.657 199.88,274.324 198.5,273C 199.167,272 199.833,271 200.5,270C 199.853,252.003 199.853,232.503 200.5,211.5C 200.17,192.659 200.503,173.993 201.5,155.5 Z"/></g>
<g><path style="opacity:0.493" fill="#030303" d="M 129.5,246.5 C 131.39,246.297 132.89,246.963 134,248.5C 134.498,251.482 134.665,254.482 134.5,257.5C 132.208,257.756 130.041,257.423 128,256.5C 127.037,252.851 127.537,249.518 129.5,246.5 Z"/></g>
<g><path style="opacity:1" fill="#070707" d="M 365.5,246.5 C 367.722,246.178 369.556,246.845 371,248.5C 371.667,251.167 371.667,253.833 371,256.5C 369.33,258.698 367.33,259.032 365,257.5C 364.245,253.745 364.411,250.078 365.5,246.5 Z"/></g>
<g><path style="opacity:0.994" fill="#08080a" d="M 196.5,242.5 C 196.966,244.201 196.966,245.701 196.5,247C 195.833,247.167 195.167,247.333 194.5,247.5C 192.997,246.477 191.497,245.477 190,244.5C 189.5,244.833 189,245.167 188.5,245.5C 189.592,248.094 191.259,250.261 193.5,252C 192.944,252.383 192.611,252.883 192.5,253.5C 193.376,253.369 194.043,253.702 194.5,254.5C 193.006,256.574 191.673,258.74 190.5,261C 191,261.5 191.5,262 192,262.5C 193.333,261.167 194.667,261.167 196,262.5C 196.499,267.489 196.666,272.489 196.5,277.5C 195.448,277.649 194.448,277.483 193.5,277C 191.461,274.626 189.128,272.626 186.5,271C 185.305,269.61 185.305,268.11 186.5,266.5C 182.228,269.221 178.061,272.887 174,277.5C 173.333,276.167 172.667,276.167 172,277.5C 171.837,275.324 171.004,273.491 169.5,272C 171.658,270.688 171.991,269.022 170.5,267C 172.433,262.485 173.6,257.652 174,252.5C 178.046,248.956 181.546,244.956 184.5,240.5C 187.757,237.182 191.091,233.849 194.5,230.5C 195.086,230.709 195.586,231.043 196,231.5C 196.499,235.152 196.665,238.818 196.5,242.5 Z M 192.5,253.5 C 190.653,257.828 187.819,261.495 184,264.5C 181.354,261.02 178.521,257.686 175.5,254.5C 177.771,250.726 180.604,247.393 184,244.5C 187.066,247.396 189.899,250.396 192.5,253.5 Z M 193.5,233.5 C 194.645,237.311 194.812,241.311 194,245.5C 192.542,243.04 190.709,240.873 188.5,239C 190.373,237.296 192.04,235.463 193.5,233.5 Z M 173.5,263.5 C 175.812,265.146 177.812,267.146 179.5,269.5C 178.167,271.5 176.5,273.167 174.5,274.5C 173.511,270.893 173.177,267.226 173.5,263.5 Z M 193.5,263.5 C 194.645,267.311 194.812,271.311 194,275.5C 192.167,273.667 190.333,271.833 188.5,270C 190.79,268.223 192.457,266.056 193.5,263.5 Z"/></g>
<g><path style="opacity:0.994" fill="#121213" d="M 307.5,234.5 C 309.484,234.383 311.15,235.05 312.5,236.5C 313.738,240.311 314.404,240.311 314.5,236.5C 317.698,236.52 320.531,236.853 323,237.5C 323.187,244.081 323.687,250.581 324.5,257C 324.167,258 323.833,259 323.5,260C 324.135,263.603 324.802,267.103 325.5,270.5C 325.5,270.833 325.5,271.167 325.5,271.5C 323.43,272.226 321.763,272.892 320.5,273.5C 322.991,274.541 322.991,275.374 320.5,276C 321.672,276.419 322.672,277.085 323.5,278C 323.609,286.963 323.442,296.129 323,305.5C 321.413,305.342 319.913,306.009 318.5,307.5C 319.833,306.167 319.833,304.833 318.5,303.5C 319.331,291.007 319.831,278.34 320,265.5C 321.628,264.181 321.461,262.848 319.5,261.5C 319.227,254.531 319.227,247.531 319.5,240.5C 316.518,240.104 313.851,240.771 311.5,242.5C 310.961,262.076 310.961,282.409 311.5,303.5C 310.167,303.5 308.833,303.5 307.5,303.5C 307.989,280.395 307.989,257.395 307.5,234.5 Z"/></g>
<g><path style="opacity:0.426" fill="#040407" d="M 211.5,264.5 C 210.71,263.391 210.21,262.058 210,260.5C 208.989,259.663 207.822,259.33 206.5,259.5C 206.5,263.833 206.5,268.167 206.5,272.5C 205.833,276.167 205.167,279.833 204.5,283.5C 204.334,275.16 204.5,266.827 205,258.5C 207.041,257.577 209.208,257.244 211.5,257.5C 211.5,259.833 211.5,262.167 211.5,264.5 Z"/></g>
<g><path style="opacity:0.324" fill="#040405" d="M 160.5,306.5 C 159.761,306.631 159.094,306.464 158.5,306C 159.478,299.59 159.811,293.09 159.5,286.5C 159.81,283.287 159.477,280.287 158.5,277.5C 159.116,274.759 159.116,271.759 158.5,268.5C 155.571,263.562 154.404,263.562 155,268.5C 153.249,269.174 151.583,269.507 150,269.5C 148.943,267.781 148.11,265.947 147.5,264C 146.207,263.51 144.873,263.343 143.5,263.5C 143.226,268.263 143.559,272.93 144.5,277.5C 143.487,283.155 143.487,288.655 144.5,294C 143.427,295.313 142.76,296.813 142.5,298.5C 143.529,300.803 143.529,303.136 142.5,305.5C 141.339,291.673 141.173,277.673 142,263.5C 144.064,262.409 146.231,262.242 148.5,263C 149.38,264.356 149.714,265.856 149.5,267.5C 150.822,267.33 151.989,267.663 153,268.5C 152.629,262.86 154.963,261.193 160,263.5C 160.5,277.829 160.667,292.163 160.5,306.5 Z"/></g>
<g><path style="opacity:0.962" fill="#060606" d="M 365.5,263.5 C 367.722,263.178 369.556,263.845 371,265.5C 371.784,268.76 371.617,271.927 370.5,275C 368.299,275.825 366.466,275.325 365,273.5C 364.253,270.076 364.42,266.743 365.5,263.5 Z"/></g>
<g><path style="opacity:1" fill="#18181b" d="M 211.5,264.5 C 212.708,265.234 214.041,265.567 215.5,265.5C 217.516,264.514 218.849,262.847 219.5,260.5C 220.086,260.709 220.586,261.043 221,261.5C 221.495,263.473 221.662,265.473 221.5,267.5C 219.516,267.383 217.85,268.05 216.5,269.5C 216.846,270.696 217.346,270.696 218,269.5C 218.853,271.948 218.353,272.614 216.5,271.5C 214.473,271.338 212.473,271.505 210.5,272C 210.167,273 209.833,274 209.5,275C 210.094,275.464 210.761,275.631 211.5,275.5C 211.5,275.833 211.5,276.167 211.5,276.5C 208.251,278.763 207.918,281.097 210.5,283.5C 209.975,284.192 209.308,284.692 208.5,285C 207.911,286.873 208.578,288.54 210.5,290C 209.874,290.75 209.374,291.584 209,292.5C 207.837,290.715 207.17,288.715 207,286.5C 206.501,281.845 206.334,277.179 206.5,272.5C 206.5,268.167 206.5,263.833 206.5,259.5C 207.822,259.33 208.989,259.663 210,260.5C 210.21,262.058 210.71,263.391 211.5,264.5 Z"/></g>
<g><path style="opacity:0.992" fill="#070707" d="M 128.5,263.5 C 130.722,263.178 132.556,263.845 134,265.5C 134.784,268.76 134.617,271.927 133.5,275C 131.559,275.743 129.726,275.576 128,274.5C 127.245,270.745 127.411,267.078 128.5,263.5 Z"/></g>
<g><path style="opacity:0.988" fill="#151517" d="M 158.5,277.5 C 157.609,278.11 156.609,278.443 155.5,278.5C 154.977,276.043 154.144,273.709 153,271.5C 151.266,272.249 149.433,272.749 147.5,273C 147.833,273.333 148.167,273.667 148.5,274C 147.619,274.708 146.953,275.542 146.5,276.5C 145.833,276.833 145.167,277.167 144.5,277.5C 143.559,272.93 143.226,268.263 143.5,263.5C 144.873,263.343 146.207,263.51 147.5,264C 148.11,265.947 148.943,267.781 150,269.5C 151.583,269.507 153.249,269.174 155,268.5C 154.404,263.562 155.571,263.562 158.5,268.5C 159.116,271.759 159.116,274.759 158.5,277.5 Z"/></g>
<g><path style="opacity:1" fill="#171719" d="M 284.5,287.5 C 284.5,286.167 284.5,284.833 284.5,283.5C 285.267,282.828 285.934,281.995 286.5,281C 285.167,278.333 285.167,275.667 286.5,273C 283.722,271.608 280.722,271.108 277.5,271.5C 277.756,273.792 277.423,275.959 276.5,278C 277.631,284.201 278.298,290.034 278.5,295.5C 276.033,297.591 274.7,299.925 274.5,302.5C 273.515,300.231 273.182,297.731 273.5,295C 275.355,293.2 276.022,291.2 275.5,289C 274.833,283 274.167,277 273.5,271C 274.167,269.667 275.167,268.667 276.5,268C 274.258,266.993 274.592,266.159 277.5,265.5C 278.356,268.513 280.189,269.18 283,267.5C 284,268.167 285,268.833 286,269.5C 286.495,267.527 286.662,265.527 286.5,263.5C 287.5,263.5 288.5,263.5 289.5,263.5C 289.667,277.504 289.5,291.504 289,305.5C 285.303,306.643 284.803,305.81 287.5,303C 286.833,302.667 286.167,302.333 285.5,302C 287.158,301.275 287.658,300.108 287,298.5C 286.667,299.167 286.333,299.833 286,300.5C 285.565,296.712 285.731,293.212 286.5,290C 285.934,289.005 285.267,288.172 284.5,287.5 Z"/></g>
<g><path style="opacity:0.998" fill="#161618" d="M 200.5,211.5 C 199.853,232.503 199.853,252.003 200.5,270C 199.833,271 199.167,272 198.5,273C 199.88,274.324 200.214,275.657 199.5,277C 200.138,280.935 200.804,284.769 201.5,288.5C 201.5,288.833 201.5,289.167 201.5,289.5C 200.636,290.688 199.636,291.855 198.5,293C 199.833,294.333 199.833,295.667 198.5,297C 201.355,299.336 201.022,301.169 197.5,302.5C 196.675,298.878 196.175,295.211 196,291.5C 195.617,292.056 195.117,292.389 194.5,292.5C 193.833,291.167 193.167,291.167 192.5,292.5C 189.402,292.587 189.068,292.087 191.5,291C 190.906,290.536 190.239,290.369 189.5,290.5C 190.925,289.078 191.925,287.411 192.5,285.5C 194.552,284.947 194.885,283.947 193.5,282.5C 194.047,280.515 195.047,278.849 196.5,277.5C 196.666,272.489 196.499,267.489 196,262.5C 194.667,261.167 193.333,261.167 192,262.5C 191.5,262 191,261.5 190.5,261C 191.673,258.74 193.006,256.574 194.5,254.5C 194.043,253.702 193.376,253.369 192.5,253.5C 192.611,252.883 192.944,252.383 193.5,252C 191.259,250.261 189.592,248.094 188.5,245.5C 189,245.167 189.5,244.833 190,244.5C 191.497,245.477 192.997,246.477 194.5,247.5C 195.167,247.333 195.833,247.167 196.5,247C 196.966,245.701 196.966,244.201 196.5,242.5C 197.859,235.174 198.526,228.008 198.5,221C 197.695,219.887 197.028,218.721 196.5,217.5C 197.166,213.647 197.833,209.647 198.5,205.5C 198.81,207.325 199.477,209.325 200.5,211.5 Z"/></g>
<g><path style="opacity:1" fill="#141415" d="M 184.5,240.5 C 181.546,244.956 178.046,248.956 174,252.5C 173.6,257.652 172.433,262.485 170.5,267C 171.991,269.022 171.658,270.688 169.5,272C 171.004,273.491 171.837,275.324 172,277.5C 172.667,276.167 173.333,276.167 174,277.5C 178.061,272.887 182.228,269.221 186.5,266.5C 185.305,268.11 185.305,269.61 186.5,271C 189.128,272.626 191.461,274.626 193.5,277C 194.448,277.483 195.448,277.649 196.5,277.5C 195.047,278.849 194.047,280.515 193.5,282.5C 191.234,278.564 188.234,275.231 184.5,272.5C 180.532,275.421 177.365,278.421 175,281.5C 174.333,283.167 174.333,284.833 175,286.5C 176.878,288.043 178.378,289.876 179.5,292C 181.286,292.785 182.786,293.951 184,295.5C 185.704,293.627 187.537,291.96 189.5,290.5C 190.239,290.369 190.906,290.536 191.5,291C 189.068,292.087 189.402,292.587 192.5,292.5C 190.929,295.231 188.595,297.065 185.5,298C 188.279,300.779 191.446,303.946 195,307.5C 195.923,306.241 196.757,304.908 197.5,303.5C 198.642,305.378 199.642,307.212 200.5,309C 201.899,309.595 203.232,309.428 204.5,308.5C 205.5,308.833 206.167,309.5 206.5,310.5C 203.495,312.196 199.828,312.863 195.5,312.5C 195.53,311.503 195.03,310.836 194,310.5C 192.578,311.205 191.245,311.539 190,311.5C 189.805,309.793 189.805,308.126 190,306.5C 188.933,305.809 187.766,305.309 186.5,305C 185.853,303.391 185.02,301.891 184,300.5C 179.962,302.03 179.462,301.196 182.5,298C 179.705,296.207 177.205,294.04 175,291.5C 174.601,291.728 174.435,292.062 174.5,292.5C 173.518,295.962 173.185,299.629 173.5,303.5C 172.957,303.56 172.624,303.893 172.5,304.5C 175.679,305.184 178.179,306.851 180,309.5C 183.025,308.209 183.359,308.876 181,311.5C 180.667,311.167 180.333,310.833 180,310.5C 177.879,312.457 175.379,312.957 172.5,312C 173.34,310.334 172.84,310.167 171,311.5C 170.383,310.551 170.549,309.718 171.5,309C 170.498,307.844 169.498,307.344 168.5,307.5C 168.55,284.992 168.55,262.325 168.5,239.5C 169.397,238.402 170.23,238.402 171,239.5C 171.333,241.833 171.667,244.167 172,246.5C 172.414,246.957 172.914,247.291 173.5,247.5C 177.643,244.416 180.81,241.083 183,237.5C 183.617,238.449 183.451,239.282 182.5,240C 183.094,240.464 183.761,240.631 184.5,240.5 Z M 174.5,292.5 C 176.144,294.481 177.81,296.481 179.5,298.5C 178.069,300.938 176.069,302.604 173.5,303.5C 173.185,299.629 173.518,295.962 174.5,292.5 Z M 183.5,303.5 C 187.894,307.252 187.227,308.252 181.5,306.5C 182.193,305.482 182.859,304.482 183.5,303.5 Z"/></g>
<g><path style="opacity:0.473" fill="#040404" d="M 128.5,281.5 C 130.467,281.261 132.301,281.594 134,282.5C 134.499,286.152 134.665,289.818 134.5,293.5C 132.208,293.756 130.041,293.423 128,292.5C 127.245,288.745 127.411,285.078 128.5,281.5 Z"/></g>
<g><path style="opacity:0.228" fill="#030205" d="M 155.5,278.5 C 154.185,287.068 154.185,295.735 155.5,304.5C 154.226,305.189 154.226,306.023 155.5,307C 154.906,307.464 154.239,307.631 153.5,307.5C 153.667,296.162 153.5,284.828 153,273.5C 151.989,274.337 150.822,274.67 149.5,274.5C 149.5,277.167 149.5,279.833 149.5,282.5C 148.503,282.53 147.836,282.03 147.5,281C 148.205,279.578 148.539,278.245 148.5,277C 147.906,276.536 147.239,276.369 146.5,276.5C 146.953,275.542 147.619,274.708 148.5,274C 148.167,273.667 147.833,273.333 147.5,273C 149.433,272.749 151.266,272.249 153,271.5C 154.144,273.709 154.977,276.043 155.5,278.5 Z"/></g>
<g><path style="opacity:1" fill="#131315" d="M 221.5,267.5 C 221.177,281.412 221.51,295.246 222.5,309C 222.167,309.167 221.833,309.333 221.5,309.5C 220.833,308.167 220.167,306.833 219.5,305.5C 218.813,307.274 217.98,308.941 217,310.5C 213.667,309.5 213.667,308.5 217,307.5C 217.792,295.454 217.626,283.454 216.5,271.5C 218.353,272.614 218.853,271.948 218,269.5C 217.346,270.696 216.846,270.696 216.5,269.5C 217.85,268.05 219.516,267.383 221.5,267.5 Z"/></g>
<g><path style="opacity:0.903" fill="#060606" d="M 365.5,281.5 C 367.262,281.357 368.929,281.691 370.5,282.5C 371.791,286.045 371.791,289.545 370.5,293C 368.559,293.743 366.726,293.576 365,292.5C 364.245,288.745 364.411,285.078 365.5,281.5 Z"/></g>
<g><path style="opacity:0.419" fill="#030304" d="M 193.5,282.5 C 194.885,283.947 194.552,284.947 192.5,285.5C 191.925,287.411 190.925,289.078 189.5,290.5C 187.537,291.96 185.704,293.627 184,295.5C 182.786,293.951 181.286,292.785 179.5,292C 178.378,289.876 176.878,288.043 175,286.5C 174.333,284.833 174.333,283.167 175,281.5C 177.365,278.421 180.532,275.421 184.5,272.5C 188.234,275.231 191.234,278.564 193.5,282.5 Z M 192.5,285.5 C 189.536,287.962 186.703,290.629 184,293.5C 180.796,290.631 177.963,287.465 175.5,284C 177.963,280.535 180.796,277.369 184,274.5C 187.819,277.505 190.653,281.172 192.5,285.5 Z"/></g>
<g><path style="opacity:1" fill="#111115" d="M 158.5,277.5 C 159.477,280.287 159.81,283.287 159.5,286.5C 158.673,291.985 158.173,297.652 158,303.5C 157.162,304.999 156.329,305.332 155.5,304.5C 154.185,295.735 154.185,287.068 155.5,278.5C 156.609,278.443 157.609,278.11 158.5,277.5 Z"/></g>
<g><path style="opacity:1" fill="#0f1012" d="M 206.5,272.5 C 206.334,277.179 206.501,281.845 207,286.5C 207.17,288.715 207.837,290.715 209,292.5C 209.374,291.584 209.874,290.75 210.5,290C 208.578,288.54 207.911,286.873 208.5,285C 209.308,284.692 209.975,284.192 210.5,283.5C 207.918,281.097 208.251,278.763 211.5,276.5C 211.5,286.5 211.5,296.5 211.5,306.5C 211.636,309.524 210.302,311.024 207.5,311C 208.517,309.951 208.684,308.784 208,307.5C 207.667,307.833 207.333,308.167 207,308.5C 205.872,303.215 205.705,298.048 206.5,293C 205.915,291.698 205.249,290.531 204.5,289.5C 204.5,287.5 204.5,285.5 204.5,283.5C 205.167,279.833 205.833,276.167 206.5,272.5 Z"/></g>
<g><path style="opacity:1" fill="#131416" d="M 354.5,264.5 C 355.252,270.457 355.252,276.457 354.5,282.5C 353.778,282.918 353.278,283.584 353,284.5C 350.951,279.807 350.118,275.14 350.5,270.5C 348.173,270.665 346.007,271.331 344,272.5C 343.187,280.08 343.353,287.58 344.5,295C 343.741,299.471 342.908,303.971 342,308.5C 341.333,307.167 340.667,307.167 340,308.5C 339.167,293.489 339.334,278.489 340.5,263.5C 344.05,266.28 348.05,267.114 352.5,266C 350.399,264.34 350.566,262.506 353,260.5C 353.21,262.058 353.71,263.391 354.5,264.5 Z"/></g>
<g><path style="opacity:0.999" fill="#0c0c0d" d="M 307.5,234.5 C 307.989,257.395 307.989,280.395 307.5,303.5C 308.833,303.5 310.167,303.5 311.5,303.5C 310.961,282.409 310.961,262.076 311.5,242.5C 313.851,240.771 316.518,240.104 319.5,240.5C 319.227,247.531 319.227,254.531 319.5,261.5C 321.461,262.848 321.628,264.181 320,265.5C 319.831,278.34 319.331,291.007 318.5,303.5C 318.83,286.991 318.496,270.658 317.5,254.5C 317.5,250.5 317.5,246.5 317.5,242.5C 316.167,242.5 314.833,242.5 313.5,242.5C 313.706,264.311 313.706,285.978 313.5,307.5C 314.833,307.5 316.167,307.5 317.5,307.5C 317.833,307.5 318.167,307.5 318.5,307.5C 319.913,306.009 321.413,305.342 323,305.5C 323.442,296.129 323.609,286.963 323.5,278C 322.672,277.085 321.672,276.419 320.5,276C 322.991,275.374 322.991,274.541 320.5,273.5C 321.763,272.892 323.43,272.226 325.5,271.5C 325.5,283.5 325.5,295.5 325.5,307.5C 329.5,307.5 333.5,307.5 337.5,307.5C 337.333,292.163 337.5,276.83 338,261.5C 341.904,258.534 344.071,259.534 344.5,264.5C 346.199,264.66 347.866,264.494 349.5,264C 348.02,261.765 348.353,259.932 350.5,258.5C 351.708,259.234 353.041,259.567 354.5,259.5C 354.5,261.167 354.5,262.833 354.5,264.5C 353.71,263.391 353.21,262.058 353,260.5C 350.566,262.506 350.399,264.34 352.5,266C 348.05,267.114 344.05,266.28 340.5,263.5C 339.334,278.489 339.167,293.489 340,308.5C 340.667,307.167 341.333,307.167 342,308.5C 342.908,303.971 343.741,299.471 344.5,295C 343.353,287.58 343.187,280.08 344,272.5C 346.007,271.331 348.173,270.665 350.5,270.5C 350.118,275.14 350.951,279.807 353,284.5C 353.278,283.584 353.778,282.918 354.5,282.5C 354.344,292.089 354.344,300.922 354.5,309C 358.752,309.652 362.752,308.486 366.5,305.5C 368.323,306.491 369.823,307.824 371,309.5C 375.152,307.508 376.985,308.841 376.5,313.5C 344.077,313.271 311.077,313.271 277.5,313.5C 274.972,312.834 272.306,312.168 269.5,311.5C 272.076,310.117 271.742,309.283 268.5,309C 270.101,308.727 271.601,308.227 273,307.5C 273.198,305.618 273.698,303.952 274.5,302.5C 274.7,299.925 276.033,297.591 278.5,295.5C 278.298,290.034 277.631,284.201 276.5,278C 277.423,275.959 277.756,273.792 277.5,271.5C 280.722,271.108 283.722,271.608 286.5,273C 285.167,275.667 285.167,278.333 286.5,281C 285.934,281.995 285.267,282.828 284.5,283.5C 284.5,280.167 284.5,276.833 284.5,273.5C 282.833,273.5 281.167,273.5 279.5,273.5C 280.041,284.975 280.041,296.308 279.5,307.5C 280.833,307.5 282.167,307.5 283.5,307.5C 284.429,300.753 284.762,294.086 284.5,287.5C 285.267,288.172 285.934,289.005 286.5,290C 285.731,293.212 285.565,296.712 286,300.5C 286.333,299.833 286.667,299.167 287,298.5C 287.658,300.108 287.158,301.275 285.5,302C 286.167,302.333 286.833,302.667 287.5,303C 284.803,305.81 285.303,306.643 289,305.5C 289.5,291.504 289.667,277.504 289.5,263.5C 288.5,263.5 287.5,263.5 286.5,263.5C 286.662,265.527 286.495,267.527 286,269.5C 285,268.833 284,268.167 283,267.5C 280.189,269.18 278.356,268.513 277.5,265.5C 279.717,266.369 282.05,266.702 284.5,266.5C 284.5,264.5 284.5,262.5 284.5,260.5C 287.079,260.083 289.246,260.75 291,262.5C 291.5,277.496 291.667,292.496 291.5,307.5C 296.5,307.5 301.5,307.5 306.5,307.5C 306.169,282.994 306.502,258.661 307.5,234.5 Z M 284.5,283.5 C 284.5,284.833 284.5,286.167 284.5,287.5C 284.762,294.086 284.429,300.753 283.5,307.5C 282.167,307.5 280.833,307.5 279.5,307.5C 280.041,296.308 280.041,284.975 279.5,273.5C 281.167,273.5 282.833,273.5 284.5,273.5C 284.5,276.833 284.5,280.167 284.5,283.5 Z M 345.5,272.5 C 346.833,272.5 348.167,272.5 349.5,272.5C 349.5,284.167 349.5,295.833 349.5,307.5C 347.801,307.66 346.134,307.494 344.5,307C 345.36,295.423 345.694,283.923 345.5,272.5 Z M 317.5,254.5 C 317.5,272.167 317.5,289.833 317.5,307.5C 316.167,307.5 314.833,307.5 313.5,307.5C 313.706,285.978 313.706,264.311 313.5,242.5C 314.833,242.5 316.167,242.5 317.5,242.5C 317.5,246.5 317.5,250.5 317.5,254.5 Z"/></g>
<g><path style="opacity:0.045" fill="#000000" d="M 317.5,254.5 C 318.496,270.658 318.83,286.991 318.5,303.5C 319.833,304.833 319.833,306.167 318.5,307.5C 318.167,307.5 317.833,307.5 317.5,307.5C 317.5,289.833 317.5,272.167 317.5,254.5 Z"/></g>
<g><path style="opacity:0.989" fill="#09090b" d="M 255.5,306.5 C 260.768,307.477 266.101,307.477 271.5,306.5C 272.15,292.854 272.483,278.854 272.5,264.5C 274.415,264.216 276.081,264.549 277.5,265.5C 274.592,266.159 274.258,266.993 276.5,268C 275.167,268.667 274.167,269.667 273.5,271C 274.167,277 274.833,283 275.5,289C 276.022,291.2 275.355,293.2 273.5,295C 273.182,297.731 273.515,300.231 274.5,302.5C 273.698,303.952 273.198,305.618 273,307.5C 271.601,308.227 270.101,308.727 268.5,309C 271.742,309.283 272.076,310.117 269.5,311.5C 272.306,312.168 274.972,312.834 277.5,313.5C 247.5,313.5 217.5,313.5 187.5,313.5C 189.948,312.527 192.615,312.194 195.5,312.5C 199.828,312.863 203.495,312.196 206.5,310.5C 206.167,309.5 205.5,308.833 204.5,308.5C 203.232,309.428 201.899,309.595 200.5,309C 199.642,307.212 198.642,305.378 197.5,303.5C 196.757,304.908 195.923,306.241 195,307.5C 191.446,303.946 188.279,300.779 185.5,298C 188.595,297.065 190.929,295.231 192.5,292.5C 193.167,291.167 193.833,291.167 194.5,292.5C 195.117,292.389 195.617,292.056 196,291.5C 196.175,295.211 196.675,298.878 197.5,302.5C 201.022,301.169 201.355,299.336 198.5,297C 199.833,295.667 199.833,294.333 198.5,293C 199.636,291.855 200.636,290.688 201.5,289.5C 203.138,313.408 204.138,313.408 204.5,289.5C 205.249,290.531 205.915,291.698 206.5,293C 205.705,298.048 205.872,303.215 207,308.5C 207.333,308.167 207.667,307.833 208,307.5C 208.684,308.784 208.517,309.951 207.5,311C 210.302,311.024 211.636,309.524 211.5,306.5C 212.688,307.048 213.855,307.381 215,307.5C 215.5,296.172 215.667,284.838 215.5,273.5C 213.517,273.157 212.183,273.824 211.5,275.5C 210.761,275.631 210.094,275.464 209.5,275C 209.833,274 210.167,273 210.5,272C 212.473,271.505 214.473,271.338 216.5,271.5C 217.626,283.454 217.792,295.454 217,307.5C 213.667,308.5 213.667,309.5 217,310.5C 217.98,308.941 218.813,307.274 219.5,305.5C 220.167,306.833 220.833,308.167 221.5,309.5C 221.833,309.333 222.167,309.167 222.5,309C 221.51,295.246 221.177,281.412 221.5,267.5C 221.662,265.473 221.495,263.473 221,261.5C 220.586,261.043 220.086,260.709 219.5,260.5C 218.849,262.847 217.516,264.514 215.5,265.5C 215.39,262.941 216.056,260.608 217.5,258.5C 220.157,256.886 221.99,257.552 223,260.5C 223.5,276.163 223.667,291.83 223.5,307.5C 227.871,306.462 232.205,306.462 236.5,307.5C 235.846,283.26 235.846,258.927 236.5,234.5C 243.071,233.264 249.404,233.264 255.5,234.5C 256.608,258.562 256.608,282.562 255.5,306.5 Z M 194.5,292.5 C 194.666,296.514 194.499,300.514 194,304.5C 191.982,302.65 190.149,300.65 188.5,298.5C 190.882,296.785 192.882,294.785 194.5,292.5 Z M 243.5,242.5 C 244.5,242.5 245.5,242.5 246.5,242.5C 248.489,263.808 249.156,285.474 248.5,307.5C 247.5,307.5 246.5,307.5 245.5,307.5C 244.79,285.98 244.123,264.314 243.5,242.5 Z"/></g>
<g><path style="opacity:1" fill="#141518" d="M 238.5,247.5 C 239.5,248.167 240.5,248.833 241.5,249.5C 242.64,267.79 242.807,286.123 242,304.5C 240.853,303.542 239.853,303.875 239,305.5C 238.803,300.914 238.303,296.414 237.5,292C 237.833,291.667 238.167,291.333 238.5,291C 236.382,286.122 236.382,281.122 238.5,276C 238.394,266.657 238.394,257.157 238.5,247.5 Z"/></g>
<g><path style="opacity:1" fill="#121214" d="M 255.5,306.5 C 254.496,307.683 253.662,309.016 253,310.5C 252.333,307.833 251.667,307.833 251,310.5C 249.16,309.167 248.66,309.334 249.5,311C 248.833,311.167 248.167,311.333 247.5,311.5C 246.137,310.802 244.971,310.802 244,311.5C 243.516,309.807 244.016,308.473 245.5,307.5C 246.5,307.5 247.5,307.5 248.5,307.5C 249.117,307.389 249.617,307.056 250,306.5C 250.667,284.833 250.667,263.167 250,241.5C 248.687,240.713 247.52,241.046 246.5,242.5C 245.5,242.5 244.5,242.5 243.5,242.5C 242.685,241.571 241.852,240.571 241,239.5C 240.626,240.416 240.126,241.25 239.5,242C 240.65,244.096 241.65,246.096 242.5,248C 242.43,248.765 242.097,249.265 241.5,249.5C 240.5,248.833 239.5,248.167 238.5,247.5C 238.335,243.818 238.501,240.152 239,236.5C 243.508,236.324 248.508,236.324 254,236.5C 253.191,239.444 253.691,242.11 255.5,244.5C 254.173,265.294 254.173,285.961 255.5,306.5 Z"/></g>
<g><path style="opacity:0.418" fill="#020103" d="M 248.5,307.5 C 249.156,285.474 248.489,263.808 246.5,242.5C 247.52,241.046 248.687,240.713 250,241.5C 250.667,263.167 250.667,284.833 250,306.5C 249.617,307.056 249.117,307.389 248.5,307.5 Z"/></g>
<g><path style="opacity:0.996" fill="#0d0d0e" d="M 146.5,276.5 C 147.239,276.369 147.906,276.536 148.5,277C 148.539,278.245 148.205,279.578 147.5,281C 147.836,282.03 148.503,282.53 149.5,282.5C 149.5,290.833 149.5,299.167 149.5,307.5C 150.833,307.5 152.167,307.5 153.5,307.5C 154.239,307.631 154.906,307.464 155.5,307C 154.226,306.023 154.226,305.189 155.5,304.5C 156.329,305.332 157.162,304.999 158,303.5C 158.173,297.652 158.673,291.985 159.5,286.5C 159.811,293.09 159.478,299.59 158.5,306C 159.094,306.464 159.761,306.631 160.5,306.5C 162.435,307.15 164.435,307.483 166.5,307.5C 167.167,307.5 167.833,307.5 168.5,307.5C 169.498,307.344 170.498,307.844 171.5,309C 170.549,309.718 170.383,310.551 171,311.5C 172.84,310.167 173.34,310.334 172.5,312C 175.379,312.957 177.879,312.457 180,310.5C 180.333,310.833 180.667,311.167 181,311.5C 183.359,308.876 183.025,308.209 180,309.5C 178.179,306.851 175.679,305.184 172.5,304.5C 172.624,303.893 172.957,303.56 173.5,303.5C 176.069,302.604 178.069,300.938 179.5,298.5C 177.81,296.481 176.144,294.481 174.5,292.5C 174.435,292.062 174.601,291.728 175,291.5C 177.205,294.04 179.705,296.207 182.5,298C 179.462,301.196 179.962,302.03 184,300.5C 185.02,301.891 185.853,303.391 186.5,305C 187.766,305.309 188.933,305.809 190,306.5C 189.805,308.126 189.805,309.793 190,311.5C 191.245,311.539 192.578,311.205 194,310.5C 195.03,310.836 195.53,311.503 195.5,312.5C 192.615,312.194 189.948,312.527 187.5,313.5C 165.932,313.353 144.932,313.353 124.5,313.5C 120.816,312.265 120.65,310.599 124,308.5C 125.851,310.781 127.518,310.781 129,308.5C 130.147,309.458 131.147,309.125 132,307.5C 132.853,309.603 134.02,309.603 135.5,307.5C 138.388,308.01 140.721,307.344 142.5,305.5C 143.529,303.136 143.529,300.803 142.5,298.5C 142.76,296.813 143.427,295.313 144.5,294C 143.487,288.655 143.487,283.155 144.5,277.5C 145.167,277.167 145.833,276.833 146.5,276.5 Z M 174.5,292.5 C 176.144,294.481 177.81,296.481 179.5,298.5C 178.069,300.938 176.069,302.604 173.5,303.5C 173.185,299.629 173.518,295.962 174.5,292.5 Z M 183.5,303.5 C 182.859,304.482 182.193,305.482 181.5,306.5C 187.227,308.252 187.894,307.252 183.5,303.5 Z"/></g>
<g><path style="opacity:0.485" fill="#030303" d="M 350.5,258.5 C 352.994,256.923 354.827,257.59 356,260.5C 356.5,276.163 356.667,291.83 356.5,307.5C 358.833,307.5 361.167,307.5 363.5,307.5C 363.452,302.119 365.952,300.453 371,302.5C 371.494,304.134 371.66,305.801 371.5,307.5C 377.331,306.513 379.498,308.846 378,314.5C 373.915,315.152 369.748,315.485 365.5,315.5C 284.883,314.176 204.383,314.176 124,315.5C 119.231,314.247 118.397,311.747 121.5,308C 123.473,307.505 125.473,307.338 127.5,307.5C 126.679,301.842 128.846,300.175 134,302.5C 134.352,304.247 134.852,305.914 135.5,307.5C 134.02,309.603 132.853,309.603 132,307.5C 131.147,309.125 130.147,309.458 129,308.5C 127.518,310.781 125.851,310.781 124,308.5C 120.65,310.599 120.816,312.265 124.5,313.5C 144.932,313.353 165.932,313.353 187.5,313.5C 217.5,313.5 247.5,313.5 277.5,313.5C 311.077,313.271 344.077,313.271 376.5,313.5C 376.985,308.841 375.152,307.508 371,309.5C 369.823,307.824 368.323,306.491 366.5,305.5C 362.752,308.486 358.752,309.652 354.5,309C 354.344,300.922 354.344,292.089 354.5,282.5C 355.252,276.457 355.252,270.457 354.5,264.5C 354.5,262.833 354.5,261.167 354.5,259.5C 353.041,259.567 351.708,259.234 350.5,258.5 Z M 183.5,303.5 C 182.859,304.482 182.193,305.482 181.5,306.5C 187.227,308.252 187.894,307.252 183.5,303.5 Z"/></g>
<g><path style="opacity:0.608" fill="#020202" d="M 176.5,322.5 C 163.295,323.184 149.961,323.85 136.5,324.5C 132.003,323.837 131.503,325.171 135,328.5C 142.413,327.519 149.913,327.186 157.5,327.5C 188.391,327.759 218.558,327.759 248,327.5C 251.654,328.062 255.154,328.729 258.5,329.5C 216.165,329.667 173.832,329.5 131.5,329C 130.065,326.733 130.398,324.733 132.5,323C 147.163,322.5 161.83,322.333 176.5,322.5 Z"/></g>
<g><path style="opacity:0.995" fill="#080808" d="M 300.5,322.5 C 298.444,323.216 296.277,323.883 294,324.5C 269.146,323.879 243.979,323.546 218.5,323.5C 217.833,324.167 217.167,324.833 216.5,325.5C 215.304,325.154 215.304,324.654 216.5,324C 214.5,323.833 212.5,323.667 210.5,323.5C 203.579,323.755 196.246,323.755 188.5,323.5C 187.353,323.818 186.519,324.484 186,325.5C 185.667,324.833 185.333,324.167 185,323.5C 183.887,324.711 182.72,324.711 181.5,323.5C 173.549,324.303 165.549,324.803 157.5,325C 158.5,325.333 159.5,325.667 160.5,326C 159.263,326.232 158.263,326.732 157.5,327.5C 149.913,327.186 142.413,327.519 135,328.5C 131.503,325.171 132.003,323.837 136.5,324.5C 149.961,323.85 163.295,323.184 176.5,322.5C 217.992,322.491 259.325,322.491 300.5,322.5 Z"/></g>
<g><path style="opacity:0.999" fill="#0e0e0e" d="M 312.5,322.5 C 314.903,323.131 317.236,324.131 319.5,325.5C 320.443,322.973 322.443,322.806 325.5,325C 324,326.167 322.5,327.333 321,328.5C 315.723,327.322 310.723,327.322 306,328.5C 300.204,326.741 294.537,326.741 289,328.5C 280.382,327.62 271.882,327.286 263.5,327.5C 261.829,327.668 260.496,328.335 259.5,329.5C 259.167,329.5 258.833,329.5 258.5,329.5C 255.154,328.729 251.654,328.062 248,327.5C 218.558,327.759 188.391,327.759 157.5,327.5C 158.263,326.732 159.263,326.232 160.5,326C 159.5,325.667 158.5,325.333 157.5,325C 165.549,324.803 173.549,324.303 181.5,323.5C 182.72,324.711 183.887,324.711 185,323.5C 185.333,324.167 185.667,324.833 186,325.5C 186.519,324.484 187.353,323.818 188.5,323.5C 196.246,323.755 203.579,323.755 210.5,323.5C 212.5,323.667 214.5,323.833 216.5,324C 215.304,324.654 215.304,325.154 216.5,325.5C 217.167,324.833 217.833,324.167 218.5,323.5C 243.979,323.546 269.146,323.879 294,324.5C 296.277,323.883 298.444,323.216 300.5,322.5C 304.472,321.38 308.472,321.38 312.5,322.5 Z"/></g>
<g><path style="opacity:1" fill="#060607" d="M 259.5,329.5 C 260.496,328.335 261.829,327.668 263.5,327.5C 271.882,327.286 280.382,327.62 289,328.5C 294.537,326.741 300.204,326.741 306,328.5C 310.723,327.322 315.723,327.322 321,328.5C 322.5,327.333 324,326.167 325.5,325C 322.443,322.806 320.443,322.973 319.5,325.5C 317.236,324.131 314.903,323.131 312.5,322.5C 329.742,321.858 347.075,322.025 364.5,323C 366.62,324.523 366.953,326.356 365.5,328.5C 330.173,329.5 294.84,329.833 259.5,329.5 Z"/></g>
<g><path style="opacity:0.991" fill="#0c0c0c" d="M 217.5,334.5 C 217.369,335.376 217.702,336.043 218.5,336.5C 222.818,335.601 227.151,335.434 231.5,336C 230.279,338.034 228.945,339.867 227.5,341.5C 227.167,341.5 226.833,341.5 226.5,341.5C 224.324,340.039 221.991,339.706 219.5,340.5C 217.608,337.956 215.775,337.956 214,340.5C 206.876,339.283 199.543,339.283 192,340.5C 190.105,340.385 188.438,339.718 187,338.5C 186.333,339.167 185.667,339.833 185,340.5C 180.247,339.846 175.413,339.513 170.5,339.5C 163.92,339.284 157.587,339.951 151.5,341.5C 145.852,341.689 144.518,339.522 147.5,335C 170.822,333.287 194.155,333.121 217.5,334.5 Z"/></g>
<g><path style="opacity:0.851" fill="#080808" d="M 227.5,341.5 C 228.945,339.867 230.279,338.034 231.5,336C 227.151,335.434 222.818,335.601 218.5,336.5C 217.702,336.043 217.369,335.376 217.5,334.5C 262.108,334.35 306.441,334.184 350.5,334C 352.673,335.865 353.007,338.031 351.5,340.5C 310.172,341.5 268.839,341.833 227.5,341.5 Z"/></g>
<g><path style="opacity:0.499" fill="#020202" d="M 226.5,341.5 C 201.5,341.5 176.5,341.5 151.5,341.5C 157.587,339.951 163.92,339.284 170.5,339.5C 175.413,339.513 180.247,339.846 185,340.5C 185.667,339.833 186.333,339.167 187,338.5C 188.438,339.718 190.105,340.385 192,340.5C 199.543,339.283 206.876,339.283 214,340.5C 215.775,337.956 217.608,337.956 219.5,340.5C 221.991,339.706 224.324,340.039 226.5,341.5 Z"/></g>
<g><path style="opacity:0.906" fill="#070708" d="M 260.5,345.5 C 282.833,346.167 305.167,346.833 327.5,347.5C 302.166,348.166 276.833,348.499 251.5,348.5C 225.607,347.865 199.774,347.199 174,346.5C 173,347.167 172,347.833 171,348.5C 167.73,347.868 164.563,347.201 161.5,346.5C 194.487,345.567 227.487,345.233 260.5,345.5 Z"/></g>
<g><path style="opacity:0.422" fill="#010101" d="M 159.5,347.5 C 158.829,348.847 158.829,350.014 159.5,351C 194.469,351.815 229.136,352.315 263.5,352.5C 229.002,353.664 194.336,353.831 159.5,353C 156.876,351.031 156.876,349.198 159.5,347.5 Z"/></g>
<g><path style="opacity:1" fill="#0e0e0f" d="M 161.5,346.5 C 164.563,347.201 167.73,347.868 171,348.5C 172,347.833 173,347.167 174,346.5C 199.774,347.199 225.607,347.865 251.5,348.5C 276.833,348.499 302.166,348.166 327.5,347.5C 330.187,347.336 332.854,347.503 335.5,348C 336.357,348.689 337.023,349.522 337.5,350.5C 312.496,351.7 288.163,352.367 264.5,352.5C 264.167,352.5 263.833,352.5 263.5,352.5C 229.136,352.315 194.469,351.815 159.5,351C 158.829,350.014 158.829,348.847 159.5,347.5C 159.842,346.662 160.508,346.328 161.5,346.5 Z"/></g>
<g><path style="opacity:0.329" fill="#010102" d="M 260.5,345.5 C 285.836,345.333 311.169,345.5 336.5,346C 339.351,347.742 340.018,350.075 338.5,353C 313.132,353.645 288.466,353.478 264.5,352.5C 288.163,352.367 312.496,351.7 337.5,350.5C 337.023,349.522 336.357,348.689 335.5,348C 332.854,347.503 330.187,347.336 327.5,347.5C 305.167,346.833 282.833,346.167 260.5,345.5 Z"/></g>
<g><path style="opacity:0.147" fill="#050505" d="M 177.5,357.5 C 188.718,357.432 200.051,357.598 211.5,358C 213.698,359.67 214.032,361.67 212.5,364C 200.169,364.841 187.836,365.175 175.5,365C 172.759,361.711 173.425,359.211 177.5,357.5 Z"/></g>
<g><path style="opacity:0.083" fill="#020203" d="M 298.5,357.5 C 296.863,358.38 295.03,359.046 293,359.5C 271.786,358.719 250.286,358.385 228.5,358.5C 226.885,359.154 225.218,359.654 223.5,360C 223.381,361.281 223.881,362.448 225,363.5C 226.583,363.507 228.249,363.174 230,362.5C 232.607,363.123 235.107,363.79 237.5,364.5C 232.543,364.619 227.543,364.786 222.5,365C 221.565,362.619 221.232,360.119 221.5,357.5C 247.167,357.5 272.833,357.5 298.5,357.5 Z"/></g>
<g><path style="opacity:0.995" fill="#0c0c0d" d="M 298.5,357.5 C 306.84,357.334 315.173,357.5 323.5,358C 326.371,360.84 326.037,363.174 322.5,365C 294.098,364.503 265.764,364.336 237.5,364.5C 235.107,363.79 232.607,363.123 230,362.5C 228.249,363.174 226.583,363.507 225,363.5C 223.881,362.448 223.381,361.281 223.5,360C 225.218,359.654 226.885,359.154 228.5,358.5C 250.286,358.385 271.786,358.719 293,359.5C 295.03,359.046 296.863,358.38 298.5,357.5 Z"/></g>
<g><path style="opacity:0.999" fill="#101010" d="M 193.5,359.5 C 192.833,360.5 192.167,361.5 191.5,362.5C 186.36,363.488 181.026,363.821 175.5,363.5C 175.36,361.876 176.027,360.71 177.5,360C 182.823,359.501 188.156,359.334 193.5,359.5 Z"/></g>
<g><path style="opacity:1" fill="#181818" d="M 193.5,359.5 C 199.683,359.047 205.683,359.547 211.5,361C 204.924,362.377 198.257,362.877 191.5,362.5C 192.167,361.5 192.833,360.5 193.5,359.5 Z"/></g>
<g><path style="opacity:0.493" fill="#040404" d="M 291.5,375.5 C 289.143,375.663 286.81,375.497 284.5,375C 283.483,373.951 283.316,372.784 284,371.5C 287.457,369.768 290.291,370.434 292.5,373.5C 292.137,374.183 291.804,374.85 291.5,375.5 Z"/></g>
<g><path style="opacity:0.788" fill="#070707" d="M 243.5,369.5 C 246.85,369.335 250.183,369.502 253.5,370C 254.576,371.726 254.743,373.559 254,375.5C 250.927,376.617 247.76,376.784 244.5,376C 243.577,373.959 243.244,371.792 243.5,369.5 Z"/></g>
<g><path style="opacity:0.716" fill="#080808" d="M 227.5,369.5 C 234.179,369.264 235.512,371.431 231.5,376C 225.813,378.037 223.146,376.204 223.5,370.5C 225.099,370.768 226.432,370.434 227.5,369.5 Z"/></g>
<g><path style="opacity:0.363" fill="#030303" d="M 210.5,375.5 C 209.402,374.603 209.402,373.77 210.5,373C 205.887,372.083 201.721,372.916 198,375.5C 197.07,373.034 196.237,373.201 195.5,376C 195.645,376.772 195.978,377.439 196.5,378C 198.901,378.795 201.068,379.962 203,381.5C 203.333,381.167 203.667,380.833 204,380.5C 206.74,381.899 209.24,383.566 211.5,385.5C 205.858,384.182 200.525,382.015 195.5,379C 192.659,375.841 193.326,373.508 197.5,372C 202.834,371.433 208.167,370.933 213.5,370.5C 214.084,373.285 213.084,374.952 210.5,375.5 Z"/></g>
<g><path style="opacity:0.725" fill="#090909" d="M 265.5,369.5 C 268.187,369.336 270.854,369.503 273.5,370C 275.558,371.808 275.892,373.975 274.5,376.5C 271.482,376.665 268.482,376.498 265.5,376C 264.232,373.837 264.232,371.67 265.5,369.5 Z"/></g>
<g><path style="opacity:0.575" fill="#080808" d="M 211.5,385.5 C 212.496,385.586 213.329,385.252 214,384.5C 218.748,386.18 223.415,387.18 228,387.5C 228.333,386.833 228.667,386.167 229,385.5C 231.302,387.574 233.968,388.908 237,389.5C 247.351,389.499 257.684,389.499 268,389.5C 269.473,389.097 270.806,388.43 272,387.5C 273.398,388.051 274.732,388.384 276,388.5C 276.464,387.906 276.631,387.239 276.5,386.5C 275.193,385.847 273.86,385.18 272.5,384.5C 258.338,384.374 244.004,384.374 229.5,384.5C 225.216,383.179 220.883,382.012 216.5,381C 215.944,380.617 215.611,380.117 215.5,379.5C 236.057,383.644 256.724,384.477 277.5,382C 282.618,380.605 287.285,378.438 291.5,375.5C 294.652,373.746 297.985,372.913 301.5,373C 305.368,375.998 305.035,378.664 300.5,381C 277.485,391.352 253.485,394.352 228.5,390C 222.451,389.432 216.784,387.932 211.5,385.5 Z"/></g>
<g><path style="opacity:1" fill="#151515" d="M 276.5,386.5 C 278.066,383.259 280.733,381.759 284.5,382C 286.754,380.623 288.92,379.123 291,377.5C 292.016,378.634 292.683,378.301 293,376.5C 293.483,377.448 293.649,378.448 293.5,379.5C 294.552,379.351 295.552,379.517 296.5,380C 290.345,383.319 284.178,385.819 278,387.5C 277.617,386.944 277.117,386.611 276.5,386.5 Z"/></g>
<g><path style="opacity:0.999" fill="#131313" d="M 210.5,375.5 C 209.761,375.369 209.094,375.536 208.5,376C 210.925,377.213 213.259,378.379 215.5,379.5C 215.611,380.117 215.944,380.617 216.5,381C 220.883,382.012 225.216,383.179 229.5,384.5C 244.004,384.374 258.338,384.374 272.5,384.5C 273.86,385.18 275.193,385.847 276.5,386.5C 276.631,387.239 276.464,387.906 276,388.5C 274.732,388.384 273.398,388.051 272,387.5C 270.806,388.43 269.473,389.097 268,389.5C 257.684,389.499 247.351,389.499 237,389.5C 233.968,388.908 231.302,387.574 229,385.5C 228.667,386.167 228.333,386.833 228,387.5C 223.415,387.18 218.748,386.18 214,384.5C 213.329,385.252 212.496,385.586 211.5,385.5C 209.24,383.566 206.74,381.899 204,380.5C 203.667,380.833 203.333,381.167 203,381.5C 201.068,379.962 198.901,378.795 196.5,378C 195.978,377.439 195.645,376.772 195.5,376C 196.237,373.201 197.07,373.034 198,375.5C 201.721,372.916 205.887,372.083 210.5,373C 209.402,373.77 209.402,374.603 210.5,375.5 Z"/></g>
</svg>
